<?xml version="1.0" encoding="utf-8"?>
<!-- Generator: Adobe Illustrator 19.0.1, SVG Export Plug-In . SVG Version: 6.00 Build 0)  -->
<!DOCTYPE svg PUBLIC "-//W3C//DTD SVG 1.1//EN" "http://www.w3.org/Graphics/SVG/1.1/DTD/svg11.dtd">
<svg version="1.1" id="Layer_1" xmlns="http://www.w3.org/2000/svg" xmlns:xlink="http://www.w3.org/1999/xlink" x="0px" y="0px"
	 width="36px" height="27px" viewBox="0 0 36 27" enable-background="new 0 0 36 27" xml:space="preserve">
<g id="Large_Plus_Expand">
</g>
<g>
	<path fill="#B70021" d="M6.9,14.3c-3-0.6-5.4-2.8-5.4-6.5c0-4.2,3.3-7,7.3-7c4.9,0,7.8,4,7.8,9.6c0,8.3-5.5,14.3-15.5,15v-2.8
		c5.7-0.9,9.1-3.7,9.5-8.3H6.9z M24.7,14.3c-3-0.6-5.4-2.8-5.4-6.5c0-4.2,3.2-7,7.2-7c4.9,0,7.8,4,7.8,9.6c0,8.3-5.4,14.3-15.5,15
		v-2.8c5.8-0.9,9.1-3.7,9.6-8.3H24.7z"/>
</g>
</svg>
