<?xml version="1.0" encoding="utf-8"?>
<!-- Generator: Adobe Illustrator 19.1.0, SVG Export Plug-In . SVG Version: 6.00 Build 0)  -->
<!DOCTYPE svg PUBLIC "-//W3C//DTD SVG 1.1//EN" "http://www.w3.org/Graphics/SVG/1.1/DTD/svg11.dtd">
<svg version="1.1" xmlns="http://www.w3.org/2000/svg" xmlns:xlink="http://www.w3.org/1999/xlink" x="0px" y="0px" width="36px"
	 height="27px" viewBox="0 0 36 27" enable-background="new 0 0 36 27" xml:space="preserve">
<g id="Layer_1">
	<g id="Line_Arrow">
	</g>
	<g id="Large_Plus_Expand">
	</g>
	<g id="Line_Arrow_1_">
	</g>
	<g>
		<path fill="#B70021" d="M11.6,11.5c3,0.6,5.4,2.8,5.4,6.5c0,4.2-3.3,7-7.3,7c-4.9,0-7.8-4-7.8-9.6c0-8.2,5.5-14.3,15.5-15v2.8
			C11.5,4,8.2,6.9,7.7,11.5H11.6z M29.3,11.5c3,0.6,5.4,2.8,5.4,6.5c0,4.2-3.2,7-7.3,7c-4.9,0-7.8-4-7.8-9.6c0-8.2,5.5-14.3,15.5-15
			v2.8c-5.7,0.9-9.1,3.8-9.5,8.3H29.3z"/>
	</g>
</g>
<g id="Isolation_Mode">
</g>
<g id="Map_Zoom_Control">
</g>
</svg>
