<?xml version="1.0" encoding="utf-8"?>
<!-- Generator: Adobe Illustrator 19.1.0, SVG Export Plug-In . SVG Version: 6.00 Build 0)  -->
<!DOCTYPE svg PUBLIC "-//W3C//DTD SVG 1.1//EN" "http://www.w3.org/Graphics/SVG/1.1/DTD/svg11.dtd">
<svg version="1.1" id="Layer_1" xmlns="http://www.w3.org/2000/svg" xmlns:xlink="http://www.w3.org/1999/xlink" x="0px" y="0px"
	 viewBox="0 0 930 445" enable-background="new 0 0 930 445" xml:space="preserve">
<path opacity="0.2" fill="#A6ADB2" enable-background="new    " d="M9.7,116.5c-2.6-0.2-5.3,0-5.7,1c-0.5,1,2.4,1.8,4.2,1.8
	s5.3-1.3,4.6-1.5C12.1,117.5,9.7,116.5,9.7,116.5z M369.3,297.4c-0.1-1.1-0.5-2.2-1.1-3.2h0.6c-0.9-1.6-2.3-3-3.2-3.5
	c-1-0.5-2.9-0.8-4.4-1.6h-0.9c-0.5-0.3-1-0.7-1.3-1.2c-0.5-0.8-1.3-1.5-2.2-2.2h0.7c-1.6-1.2-3.6-2.1-4.5-1.7
	c-1.3,0.5-3.5,1-5.3-0.2c-1.4-1-3.5-2.2-4.8-3.1h-0.8c-0.2-0.2-0.4-0.3-0.5-0.5c-1.1-1-4-1.8-5.3-1.8s-1.1-1-3.1,2.1
	c-1.2,1.8-0.9,2.9-1.3,3.4c-0.3,0.1-0.9,0.1-1.8-0.1c-1.6-0.3-1.6-0.4-1-0.8c0.2-0.1,0.4-0.3,0.6-0.4c0.7-0.4,1.6-1,2.3-1.9h-0.2
	c0.1-0.2,0.2-0.3,0.3-0.5c0.8-1.2,0.9-2.2,0.7-2.9h0.5c-0.3-1.3-1.7-2-3.2-1.5c-0.4,0.1-0.6,0.3-0.8,0.5c-1.6,0.8-0.5,2.2-3.8,2.9
	c-2.9,0.6-3.4-1-2.2-1.9h0.1c0.1-0.1,0.2-0.1,0.2-0.2c0.2-0.1,0.4-0.2,0.5-0.2c1.2-0.3,3-1.1,4.2-1.9c1.3-0.8,2.4-1.7,2.4-2.2v-0.6
	h-0.5c-0.2-1.3-0.7-3.1-2.1-3.1c-0.4,0-0.6-0.1-0.9-0.4h0.8c-1.1-0.4-1.2-2.4-3-5.1h-0.6c-0.1-0.2-0.2-0.3-0.4-0.5
	c-0.7-1-1.6-2-2.5-2.9h0.7c-2.3-2.4-4.8-4.3-6.8-4c-2.6,0.5-4.1,3-5.5,0.2c-0.2-0.5-0.5-0.9-0.8-1.3h-0.5c-1.1-1.5-2.2-2.1-2.8-3.3
	l-0.1-0.1h0.6c0-0.1-0.1-0.1-0.1-0.2c-0.9-1.5-3.1,0-3.8-0.8l-0.7-0.8c0,0-2.9,0.8-1.3-1.5c0.4-0.5,0.7-1.2,0.9-1.8H301
	c0.4-1.3,0.7-2.5,0.7-3.4h0.4c0.1-0.8,0-1.3-0.2-1.2c-0.1,0-0.2,0.2-0.3,0.3l-0.1-0.1c-0.7,0.3-1.8,3.9-2.8,3.6
	c-1.1-0.2-0.2-0.8-2.4-2.3c-0.2-0.2-0.5-0.2-0.7-0.3h0.9c-1.5-0.9-3.5-0.7-4.7,0h0.2c-0.9,0.3-1.5,0.8-1.5,1.4c0,0.9-0.5,1.6-0.8,2
	h-0.5c-0.2-0.3-0.7-1-1.1-2c-0.7-1.6-3.7-1.8-5.3-0.3c-0.7,0.7-1.3-0.1-1.8-1.1h0.5c-0.7-1.2-1.2-3-1.9-3c-0.5,0-1.2,0.3-2,0.9
	c-1,0.6-2.1,1.6-2.8,3c-0.9,1.8-0.8,4.3-1.1,5.1c-0.4-0.2-0.7-1.3-0.8-2.6h-0.5c-0.1-1.3-0.1-2.6,0-3.3v-0.1h0.4V243
	c0.2-1.5,2.7-4.1,0.9-4.6c-0.8-0.2-1.7,0.2-2.6,0.8c-0.9,0.6-1.8,1.4-2.5,1.8c-0.2,0.1-0.3,0.2-0.4,0.2c-0.3,0.1-0.8,0.3-1.3,0.7
	c-1.1,0.7-2.7,2.1-3.8,3.7c-1.2,1.9-1.9,3.1-3,3.9c-1.3,0.7-3.1-0.1-2.7-0.8c0.2-0.4-0.9-1.4-2-2.1h-0.9c-0.9-0.4-1.6-0.6-1.9-0.2
	c-0.1,0.2-0.4,0.4-0.6,0.6c-0.9,0.6-2.2,1.2-3.6,1.9c-1.9,1-3.7-1.3-4.2-2.3h-0.6c-0.4-0.7-1-1.2-1.2-3.4h0.4c0-0.3-0.1-0.8-0.1-1.2
	c-0.1-1.3,0-2.6,0.1-3.9h-0.4c0.2-1.3,0.4-2.4,0.6-3.4h0.3c0.2-0.7,0.3-1.2,0.5-1.7c0.3-0.9-0.4-2.2-1.2-3.4H242
	c-1.1-1.4-2.6-2.4-3.4-2.3c-1.6,0.3-3.1,2.1-4.6,1.8c-1.6-0.2-0.9-0.8-3.3-0.8c-2.1,0-0.8-0.4-0.2-2.1h0.3c0.1-0.3,0.2-0.6,0.3-1
	c0.2-1.3,0-2.7,0-4.1h-0.4c0.1-1.1,0.4-2.2,1.5-3.1l0.3-0.3h0.2c1.4-1.3,1.6-3.5,1.3-5.1h-0.5c-0.3-1-0.7-1.7-1.3-1.8
	c-1.6-0.3-4.4,0.8-6.4,0.5c-2-0.2-3.5,1.8-2.9,4.1c0.7,2.3-1.1,3.9-1.8,3.6c-0.7-0.3-1.6-1.6-4,0.5s-3.3,1.3-5.8-1
	c-0.3-0.3-0.5-0.6-0.9-0.9h0.7c-1.6-1.5-3.2-3.1-4.2-5.1h-0.5c-0.3-0.7-0.5-1.5-0.6-2.3c0-0.4-0.1-0.8-0.1-1.1h0.4
	c-0.2-1.8-0.3-3.5-0.3-5.1h-0.4c0.1-1.2,0.2-2.3,0.6-3.1c0-0.1,0.1-0.2,0.1-0.3h0.3c0.6-1.5,0.8-3.8,0.3-5.1h-0.5
	c-0.2-0.3-0.4-0.6-0.7-0.8c-0.9-0.3,0.2-1.7,1.4-2.6l0.9-0.6c0.2-0.1,0.5-0.3,0.7-0.3c0.4-0.1,0.9-0.4,1.4-0.7
	c1.4-0.9,3.1-2.6,3.5-3.4h-0.2c0.7-0.7,2.7-0.5,4.9-0.5c2.4,0,2.9,0,5.3,1.6c1.1,0.7,1.8,0.6,2.3,0.2c0.5-0.2,0.8-0.7,0.9-1.2h-0.4
	c0-0.2,0.1-0.4,0.1-0.5c0-0.8,1.4-1.3,4-1.1c2.6,0.3,5.9-2,6.6-1.3c0.7,0.8,2,3.9,3.3,2.8c1.3-1,1.8-2.8,2.2,0.3
	c0.5,3.1,1.6,7.7,3.5,8.5c2,0.8,0.9,3.9,2.9,4.1c0.3,0,0.6-0.1,0.9-0.3c1-0.3,1.8-2.3,1.9-4.1h-0.4c0.1-0.9,0-1.8-0.2-2.3
	c-0.1-0.3-0.2-0.7-0.4-1.1h0.5c-0.4-1.4-1-3.4-1.6-5.1H249c-0.4-1-0.7-1.9-1.1-2.3c-0.2-0.3-0.3-0.7-0.3-1.1h0.4
	c-0.1-1.3,1-3.1,2.4-4.2c0.2-0.1,0.3-0.2,0.4-0.3c0.1,0,0.2-0.2,0.4-0.2c0.2-0.1,0.5-0.3,0.7-0.4c1-0.8,2.1-2.1,3.1-3.4h0.2
	c1.3-1.6,2.5-3.3,3.3-4.1c0.2-0.1,0.4-0.3,0.5-0.4c2-1.1,5.4-1.7,4.3-3.4c-0.2-0.2-0.3-0.4-0.4-0.7h0.6c-1.2-1.8-2.2-3.7-2.3-5.1
	h-0.5c0-1.5,1.3-1,2,0s3.3-1.5,2.6-2.8c-0.1-0.2-0.2-0.4-0.2-0.6h0.5c-0.4-0.8-0.3-1.7,0.1-2.2c0.2-0.1,0.4-0.1,0.7-0.1
	c0.5,0.1,1-0.1,1.2-0.3c0.8-0.3,1-1.4,0.5-2.3c-0.1-0.1-0.1-0.2-0.1-0.3h-0.4c0.2-0.9,1.9-1.7,3.1-1.3c1.6,0.5,6.7,0.9,7.3-0.1
	c0.3-0.5-0.2-1.2-0.8-2h0.6c-0.7-1.1-1.8-2.3-1.8-3.5c0-0.6,0.2-1.1,0.5-1.6h-0.2c0.9-1.2,2.5-2.1,3.5-2.3c1.5-0.2,3.5,0,3.7-0.8
	c0-0.1,0.1-0.2,0.2-0.3h0.3c0.2-0.3,0.6-0.9,1.1-1.3c0.5-0.3,1-0.3,1.1,0.5c0.2,1.8,0,4.9,1.8,4.9s4-2.3,4.6-2.6
	c0.7-0.2,4.9-1.3,5.7-1.5c0.7-0.2,3.9-0.6,5.1-1.5c0.6-0.3,1-0.8,0.8-1.3c-0.3-0.8-0.6-1.6-0.9-2.3H303c-0.3-0.8-0.7-1.4-1-1.8
	c-0.7-0.8-1.4,0.2-2.2,1.5c-0.2,0.2-0.3,0.3-0.5,0.4c-0.7,0.4-1.4,0.3-1.8-0.2H297c-0.4-1,0.2-4.1-1.3-3.1s-1.8,2.1-2.6,1.5
	c-0.6-0.3-1.2-1.3-1.5-1.9h0.5c-0.2-0.4-0.4-0.7-0.4-0.7s2.2-1.3,0.7-3.6c-0.2-0.3-0.4-0.6-0.7-0.8h-0.8c-1.1-0.8-2.5-0.7-3.9,0
	h-0.1c-0.2,0.1-0.4,0.2-0.5,0.3c-2.2,1.3-2,1-4.6,1.8c-2.7,0.8-3.9,1.5-3.9,1.5s0.4-1.9,1.1-3.6h-0.3c0.3-0.7,0.7-1.3,1.1-1.7
	c1.4-1.4,5.6-1,7.3-2.2c0.3-0.2,0.5-0.3,0.7-0.5c0.1-0.1,0.2-0.1,0.2-0.2c1.6-0.5,4.2,1.2,4.2,1.2l0.3-0.3l0.1,0.1
	c0,0,0.4-0.5,0.9-0.9c0.3-0.1,0.5-0.1,0.5,0.3c0,1.3-0.4,4.6,0.9,4.6s5.1-2.1,3.5-2.6c-0.9-0.3-0.4-0.8,0.5-1.4
	c0.6-0.4,1.5-0.9,2.2-1.5c1.6-1,4.4,0.3,5.2-0.2c0.1-0.1,0.2-0.1,0.3-0.2h0.2c0.6-0.4,1.2-1.7,2-2.4c0.2-0.1,0.4-0.2,0.7-0.2
	c1.6,0,2.2,2.3,0,3.9s-2.4,5.4-3.5,6.4s-0.4,2.3,1.3,2.1c1.8-0.3,3.3,0.2,4.8-0.3c1.6-0.5,2.5,0.5,2.9,1.3c0.3,0.5,0.9,0.1,1.3-0.3
	h0.1c0.2-0.2,0.4-0.3,0.6-0.5c0.6-0.1,2.8-0.5,3.5,0.6c0.5,0.6,0.9,0.4,1-0.1h0.3c0.3-0.4,0.4-1.5,0-2.3c-0.5-0.9-1-1.9-1.6-2.8
	h-0.5c-0.2-0.3-0.4-0.7-0.5-1c-0.6-1.5-1.5-2.1-3.3-1.5c-1.4,0.4-2-0.2-2.8-0.8h0.7c-0.3-0.2-0.5-0.5-0.9-0.7c-1.1-0.8-2,1-1.1-0.8
	c0.8-1.7,1.3-2.3,1.9-3.6h-0.3c0.4-0.9,1.6-2.3,1.8-3.4h0.4c0.3-0.9,0.2-1.7-1.1-2c-2.8-0.8-3.7-1.3-4.2-2.8c0-0.1-0.1-0.2-0.1-0.3
	h-0.5c-0.7-1.1-2.2-2.6-3.4-3.4h0.8c-0.6-0.4-1.1-0.7-1.4-0.7c-0.9,0-5.1,0.9-5.3-0.4c-0.2-0.8-0.6-2.5-1.2-4h-0.5
	c-0.3-0.8-0.7-1.6-1.1-2.1c-0.2-0.3-0.6-0.8-1.1-1.3h0.6c-1.1-1.4-2.8-3.7-4-5.1h-0.6c-0.4-0.5-0.7-0.9-0.9-1
	c-0.7-0.5-1.5-0.3-3.5,2.8c-0.7,1.1-1.4,1.9-2.1,2.4c-1,0.6-1.9,0.6-2.8,0.2c-1.6-0.8-3.3,0-4.8-2c-0.8-1,0-1.7,0.8-2.3
	c0.7-0.5,1.4-1,1.1-1.6c-0.5-1-2.8-1.5-4.8-1.9h1.9c-1-0.2-2.1-0.4-3-0.5c-2.2-0.3-3.7-3.1-7.1-3.4c-3.3-0.2-7.3,0.5-8.4,0.5
	c-0.3,0-0.4,0.1-0.6,0.3c-0.9,0.2-1,1.9-1.4,4.6c-0.3,2.3,0.8,3.2,0.3,3.8c-0.1,0-0.2,0.1-0.3,0.1c-1,0.2-1.8,0.5-1.9,0.7
	c-0.7,0.3-0.7,0.7,0.7,1.4c2,1,4.6,5.2,4.6,5.2s0,2.3-1.6,3.6s-3.1,2.6-4,1c-0.1-0.1-0.2-0.2-0.2-0.3h0.6c-0.7-1.1-2-1.2-2.5-0.7
	c-0.5,0.1-0.8,0.5-0.5,1.2c0.7,1.6,2,2.3,2,3.9c0,1.5,2,5.4,0.7,6.7s-2.9,0.2-4,0.5c-1.1,0.2-2.2-2.1-1.3-2.6
	c0.2-0.1,0.2-0.3,0.3-0.6h0.3c0.4-1.1-0.4-4.1-0.4-4.1s-0.1,0.2-0.4,0.5c0-0.2-0.1-0.3-0.1-0.3s-1.1,1.8-1.8,2.4
	c-0.2,0-0.2-0.2-0.2-0.7c0.2-1.6-0.5-2.3-0.8-3.1h-0.5c-0.1-0.3-0.2-0.6-0.2-1c0-0.8-0.4-1.6-0.9-2.4h0.6c-0.7-1.1-2-2-3.2-1.7
	c-2,0.5-3.8,0.9-7.6,0.2c-3.7-0.8-5.3-1.3-8.4-3.1c-0.4-0.2-0.7-0.4-1-0.5H224c-0.9-0.3-1.6-0.2-2.2,0h-0.4
	c-0.3,0.1-0.6,0.2-0.9,0.2s-0.5-0.1-0.6-0.2h-0.6c-0.5-0.9-0.6-2.8-1.6-3.4h0.8c-0.2-0.2-0.5-0.4-0.8-0.5c-2-0.5-0.7-1.1-1.1-4.5
	v-0.2h-0.5c-0.3-1.9-0.8-2.3,0.4-3.4h0.1c0.5-0.5,1.4-1.3,3.1-2.5c1.4-1,2.3-1.8,3-2.6h-0.2c1.6-1.6,2.1-2.5,4.7-2.8
	c3.8-0.5,5.1,2.3,5.1,1c0-0.3,0.1-0.9,0.2-1.6h0.4c0.2-1.3,0.5-3,0.7-4c0.1,2.5,4.4,2.8,2.4,4.6s-0.9,2.1,0.7,2.1s4.4-1.8,4.4-1.8
	s3.5-1.8,4.4-0.3s0.9,3.1,2.4,3.1s4.6-1.9,2.3-3.7h0.7l-0.5-0.5c-2.9-1.8-4.6-1.6-6.4-3.6c-0.4-0.5-0.7-0.8-0.9-1h-0.8
	c-0.2-0.1-0.4-0.1-0.6,0h-0.3c-0.2,0.1-0.4,0.2-0.7,0.2c-1,0.3-1.6,0-1.9-0.2h-0.7c-0.2-0.2-0.3-0.3-0.5-0.3c-0.6,0-1.7,0.5-2.2-0.5
	s0.2-1.3,2.4-1.3c2.2,0,4.8,0.8,4.8,0.8s2.6-1,3.3-1.3c0.4-0.2,2-0.4,2.9-1.2c0.8-0.4,1.3-1.1,1.1-2.2c-0.5-1.7-1.8-2.1-2.7-2.5
	h-0.9c-0.2-0.1-0.2-0.2-0.3-0.3c-0.7-0.8,1.3-1.8,2.4-2.3s4.2,0,4.2,0s2,0.3,2-0.8h0.4v-0.2c0-0.5-0.1-1.2,0-1.5
	c0.1,0,0.3,0.1,0.5,0.2c1.3,0.8,0,3.1,2,2.6s2.4,0,3.5,0.8c1,0.7,0,3.4-1,4.2c-0.4,0.2-0.7,0.4-1,0.6c-0.9,0.5-1.6,1.2,0.3,1.4
	c2.4,0.3,4.2,0.3,4.2,0.3s0.1-0.1,0.2-0.3h0.2c0,0,1.6-1.8,2.2-3.4c0.1-0.2,0.2-0.4,0.3-0.5c0.6-0.2,1.3,0.4,1.9,0.8
	c0.7,0.4,3,1,2.2,1.8c-0.2,0.1-0.4,0.2-0.7,0.3c-1,0.3-1.7,0.7-2.3,1.1c-1.5,0.8-2,1.8-2.5,2.8c-0.2,0.5-0.4,0.9-0.7,1.1
	c-0.5,0.3-1.2,0.3-2.6-0.1H260c-1-0.2-1.9-0.2-2.5,0H257l-0.1,0.1c-0.4,0.2-0.7,0.5-0.9,0.9c-0.7,1.3-0.2,5.4,0.9,4.9s2.2-0.5,3.5-1
	s6.6,0.5,7.9,0.3c1.3-0.3,3.5,2.6,4.2,2.1s2,1,3.3,2.1c0.5,0.3,0.7,0.2,0.9-0.1c0.3,0,0.5-0.4,0.8-0.7h-0.2c0.4-0.3,0.9-0.3,1.8,0.5
	c2.4,2.1,1.1,2.1,2.4,2.1s4.2,0.3,4.2,0.3v-0.3h0.4c0,0,0.1-1.1,0.8-1.7c0.3-0.1,0.7-0.2,1.2-0.1c2,0.5,3.8,2.8,4,1.7
	c0.3,0.1,0.5,0,0.4-0.7s-0.1-1.2-0.1-1.8H292c-0.1-1.1-0.3-2.1-1.4-3.1c-0.1-0.1-0.2-0.2-0.4-0.3h0.8c-1.8-1.5-4.6-2.5-5-3.3
	c-0.4-0.6-0.6-1.2-0.5-1.8h-0.3c0.1-0.1,0.1-0.2,0.2-0.3c0.7-0.5,3.8,0.3,5.5,1.5c1.8,1.3,3.3,2.6,4.6,1.5c0.1-0.1,0.2-0.1,0.3-0.2
	c0,0,0.1,0,0.2-0.1c0.2-0.2,0.5-0.3,0.7-0.5c0.7-0.4,1.3-0.7,1.8-1.1c0.4-0.2,0.7-0.5,1-0.8l0.2-0.2h-0.2c0.7-1,1.8-2.6,1.8-2.6
	s-2-0.3-4-0.8h1.5c-1.9-0.4-4.1-1.1-4.6-1.8c-0.9-1.3-4-3.1-4.8-3.1s-2.9,1.5-3.9-0.2H285c0-0.1-0.1-0.2-0.1-0.3
	c-0.4-1-0.6-2.2-0.8-3.1h0.5c-0.3-1.6-0.5-2.9-1.1-3.1c-0.7-0.2-6.8-1.2-9.9-2h-1.3c-0.3-0.1-0.5-0.2-0.7-0.3
	c-1.1-0.6-4.8-2-7.2-3.1h1c-0.7-0.3-1.4-0.7-1.9-1c-2-1.3-4.8-3.1-6.6-3.1c-1.8,0-9,1-10.4,0.8c-1.3-0.3-5.3,0.5-6.8,0.8
	c-0.2,0-0.3,0.1-0.4,0.3c-1.6,0.3,2,3.6-1.3,4.4c-3.1,0.7-2.9,1.2-2.3-2.1h0.4c0-0.3,0.1-0.5,0.1-0.8c0.7-3.9-2.2-4.9-5.1-3.3
	c-1.8,0.9-4.1,1.7-5.5,2.5c-1.2,0.6-1.9,1.3-1.3,2.1c1.1,1.8-0.2,3.1,1.9,4.9c2.2,1.8,3.1,2.3,6,2.1c2.8-0.3,5.7,0.5,5.7,0.5
	s0,3.1-1.1,3.6c-0.2,0.1-0.5,0.2-0.7,0.3h-0.4c-0.4,0.1-0.9,0.3-1.2,0.6c-0.4,0.2-0.8,0.6-1,1.2c-0.2,0.5-0.5,1-1,1.3
	c-0.6,0.3-1.2,0.4-1.2,0c0-0.5,0.5-1.9,0.3-3.1h-0.4c-0.1-0.5-0.3-0.9-0.7-1.3c-1.6-1.3-2-1.5-3.7-0.2c-1.8,1.3-2,1.8-2.9-0.3
	c-0.2-0.6-0.6-1.1-1-1.6h0.6c-1.1-1.4-2.7-2.5-2.7-2.5s-0.9-1.3-1.9-2.6h-0.7c-0.3-0.4-0.6-0.7-0.9-1c-1.3-1.3-3.7-1-4,0.3
	c-0.2,1.3,0.5,2.6,1.3,4.9c0.7,1.9,1.1,4.3,0.4,5.2c-0.1,0-0.1,0.1-0.2,0.1c-0.4,0.1-0.6,0.2-0.9,0.4c-0.9,0.4-1,1.3-1.7,1.9
	c-0.1,0-0.2,0.1-0.2,0.1c-1.6,0.5-2.2-0.8-2.2-2.8v-0.5H209c-0.1-1.4-0.4-2.6-0.3-3.4h0.4c0-0.3,0-0.6,0.2-0.7c0.4-0.8-1.8,0.5-4,0
	c-1.1-0.3-2,0-2.5,0.4c-0.9,0.4-1.1,1.2,0.3,1.7c1.9,0.7,2.5,3.1,1.3,4.2c-0.1,0-0.1,0.1-0.2,0.1c-2,0.8-9.5,0-11.9,0
	s-6,0.8-6.6-0.8c-0.3-0.6,0-1.1,0.5-1.5c0.8-0.5,1.9-0.8,2.7-0.8c1.6,0,6.2,0.3,7.9-2.6h0.2c0-0.1,0.1-0.1,0.2-0.2
	c1.8-2.9-2.2-3.4-4-3.4c-1.2,0-2.3-0.4-3.6-1.5h-0.7c-0.4-0.4-0.8-0.8-1.2-1.3c-0.7-0.8-0.7-1.5-0.5-2.1h0.4
	c0.2-1.4,1.8-2.3,1.5-3.1c-0.4-1-2.6-0.2-4.6-0.2c-1.1,0-2.5-0.5-3.5-0.7c0.9,0,1.6-0.1,1.8-0.4c0.2-0.1,0.4-0.2,0.5-0.3
	c0.1-0.2,0.2-0.3,0.3-0.4h-0.2c0.6-0.5,1.3-0.8,1.4-1.6c0.1-0.4,0.2-1.1,0.4-1.8h0.3c0.3-1.3,0.6-2.7,0.6-2.7s-0.9-1.9-2.3-1
	c-1.5,0.9-1.9,1.4-3.2,1c-0.9-0.2-1.2-1.8-2.2-2.4H176c-0.4,0.1-0.7,0.3-1,0.5c-1.3,0.7-1.7,1.8-2.3,2.3c-0.1,0.1-0.2,0.2-0.4,0.3
	c-0.8,0.4-1.8,0.6-2.2,0.3c-0.6-0.3-4-2.6-4-2.6s-4.5-0.2-6.5-0.8h-1c-0.2-0.1-0.2-0.2-0.3-0.3c-0.3-1-1.5-2.8-4.7-2.4
	c-3.2,0.3-8.8,2.6-9.7,2.6c-0.7,0,0.3,1.3,0.2,1.8c-0.9,0-1.9-0.1-2.5,0.5c-0.4,0.2-0.8,0.5-0.9,1.1c-0.3,1,1.3,1,3.2,1s5,0,5.9-0.5
	s5.3-1.7,5.1-0.2s1.8,4,2.8,3.6c1-0.3,3.1-2.6,4.1-1.7c1.1,0.9,1.2,2.9,2.2,3.4s3.8,0.5,5.1,0s5-0.5,6.6-0.2
	c0.9,0.2,2.8,0.6,4.4,0.8c-0.4,0-0.6,0.1-0.8,0.3c-0.4,0.1-0.6,0.3-0.6,0.9c0,1.5,1.4,5.3,1.4,6.5c-0.2-0.1-0.2-0.2-0.3-0.3h-0.7
	c-0.8-1-0.9-2.2-1.5-3.4h0.5c-0.2-0.3-0.3-0.7-0.5-1c-1.1-1.5-2.9-1.3-5.1-1c-2.2,0.3-6,1-7.1,0.8c-1.1-0.3-0.2-0.3-2.6-1.6
	s-3.5-1-5.3-2.3h-0.7c-1.2-1.1-0.1-1.6-3-1.8c-3.1-0.3-2.9,1.8-6,1.3s-4,0.2-7,0c-3.1-0.3-4.6-0.5-5.1,1.3s-1.3,4.9-2.6,4.9
	s-2.9,1.8,1.3,2.1c4.2,0.2,1.8,2.6,5.5,2.3c3.1-0.2,5.9-0.3,7.3-1.4c0,0,0.1-0.1,0.2-0.1h-0.1c0.2-0.2,0.5-0.5,0.6-0.8
	c0.9-2.1,1.5-2.1,2-1.3c0.4,0.8,3.7,5.4,3.7,5.4s2.2,2,3.1,2.6c0.9,0.5-0.9,2.9-2.6,1.5c-1.8-1.3-5.1-1-6.4-2.3h0.8
	c-0.1-0.1-0.2-0.1-0.3-0.2c-1.3-1.3-4.9-1.8-6.4-1.6c-1.5,0.2-6.6-0.2-7.5-0.2c-0.3,0-0.7,0.3-1.2,0.6c-1.2,0.7-3,2.2-3,2.2
	s-0.2-0.3-0.4-0.8h0.5c-0.4-0.7-1-1.9-1.4-2.5c-0.3-0.5-0.7-0.3-1.1,0.1c-0.5,0.2-1,0.8-1.4,1.2h-0.1c-0.9,0.2-3.5-2.1-6.2-1
	c-0.8,0.3-1.2,0.6-1.6,0.8c-0.4,0.2-0.7,0.4-0.9,0.6c-0.6,0.3-1.3,0.5-3.1,0.4c-3.7-0.2-4.6-1-6-0.8l-1.3,0.2v0.2l-0.4,0.1
	c0,0,0.2,1-1.3,2.1c-1.5,1-2.6,2.3-3.7,0.8c-1.1-1.5-1.8-1.5-2.4-1.8c-0.2-0.1-0.3-0.2-0.5-0.3h0.9c-0.7-0.3-2-1.5-4.8-0.7
	s-5.9-3.8-6.8-3.8c-0.9,0-10.2,2.2-11.9,1.7c-1.3-0.4-4.5-1.8-6.8-2.3H66c-1.8,0.3-3.9,0.6-3.9,0.6s-1.4-0.3-2.6-0.6h-2.8
	c-0.9,0.3-2,0.5-2.8,0h-0.7c-1.1-1.3-3.1-2.1-3.1-2.1s-0.6,1.9-1.7,2.9c-0.1,0.1-0.2,0.1-0.3,0.2c-1.5,0.5-4.8,1.5-5.5,1
	s-6.4,2.1-6.4,2.1S33,64,32.1,63.8c-0.3-0.1-1,0.1-1.7,0.4h0.2c-1.4,0.5-3.5,1.8-3.2,2.6c0.4,1,0,3.1,3.5,3.1s3.7,1.6,5.1,1.8
	c1.3,0.3,1.8,0,3.3,1.6c1.3,1.3,1.5,2.7,0.3,2.8h-0.7c-2-0.3-4.2-0.8-5.5-2.1l-1.3-1.3L29.7,74c-3.1,0.3-7.1,2.1-7.1,2.1
	s1.1,2.3,3.1,3.9c2,1.5,6.9,1.5,6.9,1.5s2.9,0.2,4.4-0.8c0.2-0.1,0.5-0.3,0.7-0.4c0.1-0.1,0.3-0.2,0.4-0.3c1.1-0.6,2.3-0.4,3-0.2
	c0.9,0.3-0.6,3.6-3,3.4c-2.5-0.2-5.3,0.3-7.3,2.1c-1.9,1.8-3.7,2.1-2.8,4.1c0.9,2,4.2,4.6,4.4,5.9c0.2,0.8,1.8,0.2,3-0.6
	c0.7-0.4,1.3-1,1.6-1.5h-0.3c0.5-1.3,2.6-1.3,2,1.5s2.2,3.4,2.2,3.4s0-0.1,0.2-0.3c0.1,0,0.2,0.1,0.2,0.1s0.7-1.3,1.3-1.9
	c0.1,0,0.2,0,0.3,0.1c0.7,0.5,2.9,2.9,2.9,2.9s0.3-0.3,0.8-0.6l0.1-0.1c0.9-0.6,2.2-1.1,2.8-0.1c0.9,1.5-1.3,2.8-2.7,3.6h-0.1
	c-1.8,0.9-5.8,2.6-6.8,3.4c-0.1,0.1-0.2,0.1-0.3,0.2h-0.1c0,0.1-0.2,0.1-0.2,0.2c-0.6,0.4-1.5,0.9-2.4,1.4H37
	c-1.6,0.8-3.2,1.6-3.9,1.6c-1.1,0-1.6,3.1,0.4,2.8s7.5-2.6,9-3.4c1.6-0.8,2.1,2.6,6.1,0.2c0.7-0.4,1.3-0.8,1.8-1.3h0.1
	c2-1.7,3.2-3.5,4-4.3c0.1-0.1,0.2-0.1,0.3-0.1c1.1,0.3,1.3,2.1,3.1,2.6c0.8,0.2,1.6-0.1,2.3-0.6c1-0.5,1.9-1.5,2.6-2
	c0.2-0.2,0.5-0.4,0.7-0.8H63c0.6-1.2,0.9-2.8,0.1-2.6c-1.1,0.3-4,0-4,0s0.5-0.3,1.1-0.8h0.1c0.9-0.7,2.3-1.9,2.3-2.8
	c0-0.7,0.1-1.5,0.5-2.3h-0.2c0.4-0.6,0.8-1.2,1.6-1.6c1.8-0.8,1.8-0.3,0.7,2.9c-1,2.7,1.5,2,3,0.9c0.3-0.2,0.5-0.4,0.8-0.6
	c1.2-0.7,2.8,2.2,5,0.6c0.1,0,0.1-0.1,0.1-0.1c0.1-0.1,0.2-0.1,0.3-0.2c0.7-0.5,1.2-1.2,1.4-1.9h-0.3c0.6-1.6,0.6-3.1,1.4-3.1
	c1.4,0,3.8,2.8,5.1,1.8c1.4-1,4.7,2.1,6.9,2.1s9.6,2.5,11,2.5c1.3,0,5.3,1.8,5.5,5.2s1.6,3.1,2.9,3.1c1.3,0,4.4,1.3,4.4,2.6
	s-0.9,6.5,1.3,7.8s4.2,3.4,5.1,2.8c0.4-0.3,0.4-1.5,0.2-2.6h0.5c-0.2-1.2-0.7-2.5-1.3-2.8c-0.8-0.4-0.7-1.4-0.7-2.3h-0.5
	c0-0.3,0-0.5-0.2-0.8c-0.4-1,1.3-1,2,0.8c0.6,1.8,2.4,5.2,3.5,5.2s3.5,3.1,2.9,4.9c-0.7,1.8,0.2,5.5,2.2,5.5s4.9,2.5,5.7,2.8
	c0.9,0.2,1.4,2.5,1.4,3.3s1.7,4.2,1.7,6s-0.7,9-0.9,11.9c-0.2,2.8,1.8,7.7,4,10.3s1.8,8.4,3.1,9.4s4.6,3,6.6,2.7s3.3,1.5,5.1,5.1
	s3.5,9.6,4.9,10.1c1.3,0.5,3.5,2.3,2.4,3.6s-2.9,4.1-0.9,4.1s2.7-1.3,4.2,1s3.5,3.6,3.3,5.2c-0.2,1.5,1.8,2.1,2.6,2.3
	c0.9,0.2,2.7,4.6,4.6,3c0.2-0.1,0.4-0.2,0.6-0.4c0.7-0.7,0.6-1.5,0.2-2.3h-0.6c-0.8-1.3-2.5-2.6-3.5-3.4h0.7
	c-0.3-0.3-0.6-0.5-0.8-0.7c-0.9-0.9-0.5-2.5-1.3-4.4h-0.5c-0.4-0.7-0.9-1.5-1.7-2.3c-0.4-0.4-0.7-0.8-1.1-1.1h0.6
	c-1.8-2-2-3.6-3.1-5.1h-0.6c-0.2-0.3-0.4-0.5-0.7-0.8c-1-0.9-1.9-1.8-2.3-2.7h0.5c-0.7-1.1-0.9-2.2,0.4-3.2c1.8-1.1,2.1,2.2,2.9,4.3
	c0.9,2.3,5.5,7,7.5,9c2,2.1,5.5,9.3,6.6,9.3s4.2,4.1,4.2,4.1s1.8,3.4,1.1,4.4s0.9,4.9,2.4,5.9c1.6,1,8.3,1.1,8.6,4.9
	c0.1,1,1.2,5.9,3.6,5.9c2.4,0,5.6-1.3,6.3-0.5c0.6,0.7,2.4,3.5,3.7,2.3c0.2-0.1,0.5-0.2,0.7-0.5h-0.2c1.1-1.6,1.4-2.3,3.3-2.3
	c2,0,2.9,1.8,4,3.1s4.2,4.7,5.7,4.4c1.5-0.3,3.5,2.1,4.6,1.3c1.1-0.8,2.9,0.5,3.7,1c0.9,0.5,2.7,2.4,2.5,5.5s3,3.8,4.3,4.5
	c1.3,0.8,3.1,2.6,4.2,3.9s3.5,1.5,4.2,2.3s1.1,2.3,3.1,1c1.2-0.8,1.5-1.9,1.6-2.7h0.4c0.1-0.4,0-0.8,0-1c0.7-0.1,2.1-0.2,2.8,0.6
	c1.1,1,1.8,4.4,2.4,4.9c0.7,0.5,2,4.4,1.1,7.2c-0.9,2.8-0.7,5.7-1.6,5.7s-3.3,2.7-4.6,3.5c-1.3,0.8-3.5,5-3.3,6.3s0.9,5.4,0.5,7.2
	c-0.5,1.8-2.1,3.6-1.4,6.5c0.7,2.8,5.3,3.6,5.5,6.2s3.5,8.3,4,10.8c0.5,2.6,2.8,5.6,2.8,9.2s6.7,5.8,7.8,6.1
	c1.1,0.2,3.1,2.6,4.6,3.3c1.6,0.8,2.9,2.3,4,4.4s0.9,5.1,0.9,5.9s-0.7,8.8-1.3,13.4c-0.7,4.6,1.6,9,0.3,10.3
	c-1.3,1.3-3.8,1.8-2.5,3.4s-1.6,2.6-1.6,3.4s1.8,4.9,0.9,6.7c-0.9,1.8-1.6,4.4-2.2,5.9c-0.7,1.5-2.2,3.1-1.8,5.4
	c0.4,2.3-1.8,1.5-1.8,3.9s2,1.3,1.6,4.1c-0.4,2.8-1.6,3.6-1.6,5.7s1.1,4.9,1.1,5.7c0,0.8-1.1,3.4-2.6,5.4c-1.5,2.1-2.6,3.4-2.5,4.7
	c0.2,1.3,1.8,2.8,1.6,3.6c-0.2,0.8-2.2,3.4-2,5.2c0.2,1.8,2.2,1,2.6,2.3c0.5,1.3-2.6,2.3-1.3,3.6c1.3,1.3,3,1,2.6,4.1
	s2.4,3.9,3.1,4.7c0.7,0.8,2,2.6,3.1,2.6s2-0.8,2.4-3.5h0.4v-0.4c0.1-0.5,0.2-0.8,0.4-1c0.9-0.3,2.1,1.3,0.5,2.8
	c-2.2,2-3.3,3.1-2.6,3.1c0.7,0,4,2.1,5.7,2.1c1.8,0,5.3-1,6-1.3c0.6-0.2,5.3-1,5.9-1.8c0.1,0,0.2-0.1,0.2-0.1h-0.2
	c0-0.7-3.8-0.5-5.7-1.2c-0.9-0.3-1.9-1.2-3-2.2h0.7c-1.5-1.4-3-3.3-3.2-4.2c-0.1-0.2-0.2-0.5-0.2-0.9h-0.4c-0.2-1.1-0.1-2.4,0.4-3.4
	h0.3c0.2-0.6,0.5-1.1,1-1.4c1-0.7,2.8-2.4,4.3-3.7h-0.1c0.7-0.6,1.3-1.2,1.6-1.4c0.4-0.3,0.8-1.1,1.1-1.9h0.3
	c0.5-1.3,0.9-2.9,0.5-3.2c-0.7-0.5-4,0-4.4-0.8c-0.2-0.3-0.3-0.7-0.2-1.1h-0.4c0.2-0.6,0.7-1.3,1.9-2.2c0.4-0.4,0.9-0.8,1.2-1.2h0.2
	c1.6-1.7,2.5-3.6,3.3-4.3c0.2-0.2,0.5-0.5,0.9-0.8h-0.2c0.8-0.8,1.7-1.8,2.1-3c0-0.2,0.1-0.3,0.1-0.4h0.4c0.5-1.6-0.7-0.6-2-0.6
	s-2-2.8-2-4.1c0-0.1,0.1-0.1,0.1-0.2c1-0.1,3.4,1.1,5.3,1.5c0.9,0.2,1.2,0.1,1.4-0.2c0.7-0.1,0.6-0.7,0.4-1.4h-0.5l-0.3-1.2
	c-0.1-0.7,0-1.5,0.2-2.2h0.3c0.2-0.5,0.4-0.9,0.6-1.2c0.2-0.1,0.4-0.1,0.6,0.1c1.3,0.8,8.2-0.3,9-0.5c0.1,0,0.2-0.1,0.4-0.2
	c0.5-0.2,1.4-1.6,2.4-3.2h-0.2c0.6-1.1,1.2-2.2,1.6-2.8c0.2-0.2,0.2-0.4,0.4-0.7h0.3c0.7-1.2,0.8-2.3-0.2-3
	c-0.5-0.4-1.5-1.2-2.4-2.1h-0.7c-0.9-0.9-1.8-1.8-1.9-2.2c-0.1-0.2-0.1-0.7,0-1.2h0.4c0.2-1.4,0.9-3.6,1.3-4.9
	c0.2,1.7,0.4,7.3,2.9,8.2c3.1,1,4.8,1.5,7.7-1.5c0.5-0.6,1.1-1.2,1.6-1.7h0.2c1.9-2,3.3-3.6,3.8-5.1H324c0-0.2,0.1-0.3,0.1-0.4
	c0.1-1,0.4-2.1,0.7-3h0.4c0.3-0.9,0.7-1.7,1.3-2.1c0.5-0.3,0.9-0.3,1.3-0.7c0.5-0.3,1.1-0.8,1.8-2.2h-0.3c0-0.1,0.1-0.3,0.2-0.4
	c1.2-3,2.2-1.3,3.4-3h0.2c0.2-0.2,0.4-0.5,0.5-0.9c0.6-1.3,0.2-2.8-0.2-4.2h-0.5c-0.4-1.3-0.5-2.5,0.1-3.4h0.2
	c0.2-0.3,0.4-0.6,0.7-0.9c0.7-0.6,1.6-1.2,2.5-1.7c2.2-1.4,4.4-2.6,4.4-2.6s1.3-0.8,4-1.6c2.6-0.7,5.3-0.3,6.3-1.7h0.2
	c0.1-0.1,0.2-0.3,0.3-0.4c0.6-1.1,1.2-3,2-4.7h-0.3c0.3-0.7,0.6-1.3,1-1.8s0.7-1.1,1.1-1.7h0.3c1-1.6,1.8-3.6,1.2-4.5
	c0-0.1-0.1-0.3-0.1-0.6h-0.4c0-0.9,0.4-2.1,0.7-3.4h0.3c0.5-1.8,1.1-3.7,1-4.5c0-0.2-0.1-0.4-0.2-0.6h-0.5c-0.2-0.9-0.6-2.1-0.5-3.4
	h0.4c0-1.4,0.4-2.9,1.9-4.3c0.3-0.3,0.5-0.6,0.9-0.8h-0.2c1.1-1.1,2.1-2.3,3-3.4h0.2c1.7-2.1,3-4,3.2-4.8c0-0.1,0-0.2,0.1-0.3h-0.4
	c0.3-0.8,0.7-2,1.2-3.4h0.3c0.7-1.8,1.3-3.7,1.3-5.1h-0.4v-0.6L369.3,297.4L369.3,297.4z M254.8,141h0.2c0.4-0.4,0.7-0.7,1-0.9
	c0.1-0.1,0.2-0.1,0.3,0c0.6,0.5,5.3-0.8,6.2,0.5c0.9,1.3-0.9,1.5-3.1,2.6c-2.2,1-2.9,0.8-3.7,2.1c-0.2,0.3-0.5,0.5-0.8,0.7
	c-0.9,0.5-2,1-2.9,1.6c-0.5,0.3-1,0.6-1.4,1.1c-0.3,0.3-0.6,0.6-1,0.9v0.1c-1.3,0.9-2.8,1.2-3.1,0.3c0-0.1-0.1-0.2-0.1-0.3h0.5
	c-0.2-0.5-0.3-0.8-0.2-0.9c0.1,0,0.1-0.1,0.2-0.1c0.2-0.1,0.4-0.1,0.5-0.5c0-0.2,0.4-0.4,0.7-0.7c1.2-0.8,3-1.6,3-1.6l0.1-0.1
	c0.2-0.1,0.3-0.2,0.3-0.2s0.3-0.4,0.8-1h-0.2C252.7,143.3,253.9,141.9,254.8,141L254.8,141z M244.3,134.1c0.7-0.3,3.7-0.3,5.3,0
	c1.4,0.2,3.3,3.9,2.9,4.9c-1.1,0.1-2.7-1.1-2.7-2.8v-0.3h-0.2c-0.1,0.1-0.2,0.3-0.2,0.5c0-1.8-1.6,3.3-0.7,4.9
	c0.7,1.2-0.7,2.5-1.8,3.1h-1.3c-0.5-0.5-0.9-1.9-0.9-3.4h0.4v-1.2c0.2-1.7-0.6-3.3-2-3.9h-2.7l-0.6,0.3c-1.6,0.7-2.5,2.4-3.2,3
	c-0.9,0.8-0.9,5.2-0.7,6.2c0.2,0.8,0.2,3-0.7,4c0,0-0.1,0.1-0.2,0.1c-0.3,0.2-0.7,0.4-1.1,0.3c-0.3,0-0.5-0.2-0.7-0.3h1
	c-1.5-0.4-1.5-3.3-1.3-5.1h-0.4c0-0.3,0-0.6,0.1-0.8c0.1-0.6,0-1.6-0.1-2.6h0.4c-0.1-1.7-0.3-3.8,0.3-5.1H233c1-1.9,3.4-2.6,5.1-2.8
	C239.9,132.8,243.6,134.3,244.3,134.1L244.3,134.1z M224.2,128.2c0.6-0.3,1.5-0.5,2.8-1.1c2.9-1.3,6-4.9,7.3-3.4
	c1.4,1.5,3.8,3.4,5.3,3.6c1.3,0.2,0,2.6-0.8,3.4c-0.7,0.2-3.1-0.5-5-0.5c-2,0-1.5-1.5-2.4-1.3c-0.9,0.3-2.8,0.8-4.2,1.6
	c-1.3,0.8-3.5,0.6-3.5-0.8C223.8,128.9,223.9,128.5,224.2,128.2L224.2,128.2z M140.6,131.2c-1,0.2-1.7-2.5-1.9-3.9h-0.5
	c-0.2-1.3-2.4-1.3-3.5-2.1c-0.4-0.2-0.8-0.8-1.2-1.4h0.6c-0.7-0.9-1.3-2-1.3-2.5h0.2c0.7,0.3,2,1.8,2.6,1.8s4,3.1,4.8,4.1
	S141.3,130.4,140.6,131.2L140.6,131.2z M308.4,374.2c0-0.1,0-0.1,0.1-0.2c0.1-0.2,0.1-0.1,0.2,0.2H308.4L308.4,374.2z M165.6,41.1
	c1.2,0,4.1-1.2,5-0.3c0.9,0.9,3.1,0.2,3-0.7c-0.1-0.3,0-0.7,0-1.3h0.4c0.1-1.3,0.4-3.4-0.9-3.5c-1.8-0.2-4.3,1.9-6.9,2.9
	c-0.2,0.1-0.4,0.2-0.5,0.3C164.1,39.3,164.4,41.1,165.6,41.1z M188.5,38.5c1.8,0,5.6-1,5.9-0.2c0.3,0.9-0.2,1.6,1.9,1.9
	c2.1,0.4,3,0.7,4.1,0.7c0.8,0,0.9-1,0.5-2.1h0.5c-0.2-0.6-0.5-1.3-0.9-1.9c-1.1-1.5-0.7-1.4-3.4-2.2c-2.6-0.8-5.3-0.8-7-0.7
	c-1.2,0.1-2.5-0.1-3.4,0.6c-0.6,0.3-1,0.8-1.2,1.7C185.3,37.5,186.8,38.5,188.5,38.5L188.5,38.5z M213.8,55.9c1.9-0.3,4.7-0.7,6-0.8
	c0.2,0,0.5-0.2,0.6-0.3c1.1-0.4,1.3-2.7-0.1-2.9c-0.9-0.1-1.7-0.8-2.5-1.1h-1.7c-0.8,0.3-2.3,1.1-3.5,1.8c-1.3,0.8-2.4,1.7-2.1,2.3
	C210.7,55.3,211.9,56.2,213.8,55.9L213.8,55.9z M207.1,40.4c1.6,0.8,4.2,2.4,6.2,3.3c1.9,0.9,5.6,1,6.8,2.8c1.2,1.7,5.1,3.1,5.1,3.1
	l4.7,0.5c0,0,3.2-0.9,6.6-0.5c3.4,0.3,8.4,0.9,11.2,0.7c2.8-0.2,3.2-1.2,3.5-1.9c0.1-0.3-0.7-0.7-1.7-1h1.1
	c-1.6-0.6-4.6-1.3-5.5-1.2c-1.3,0.2-8.8,0.2-11,0s-5-0.2-6.8,0s-3.1-1.4-4.4-2.2c-0.5-0.3-1.3-1-2.2-1.7H220c-1.2-0.9-2.5-1.8-3.5-2
	c-1.8-0.3-1.4-0.3-5.1-1.4h-0.1h1.3c-0.2-0.1-0.5-0.1-0.8-0.2c-1.9-0.5-5-1.2-5-1.7c0-0.2-0.1,0.1-0.2,0.5c-0.2-0.1-0.2-0.2-0.2-0.3
	C206.3,36.6,205.4,39.5,207.1,40.4L207.1,40.4z M417.3,80.7h0.2c0,0,3.2-2.9,2.1-4.1c-0.1-0.1-0.3-0.2-0.4-0.3h-0.8
	c-1.4-0.9-3.4-1.5-4.6-1.7c-1.3-0.2-2.6,1.2-5.6,1.2c-1.3,0-2.3,0.3-3.2,0.4h-2.2c-0.2-0.1-0.4-0.2-0.6-0.4c-1.1-1.4-6-2.1-6.5-1.2
	c-0.6,1.2-1.7,1.2-0.6,3.6c1.2,2.4,2.1,3.8,3.1,3.6s4.6-0.3,5,1c0.4,1.4,1.6,2.6,4.1,1.7c2.5-0.9,4.6-1.4,5.2-2.4s4.6-1.2,4.6-1.2
	L417.3,80.7L417.3,80.7z M263.8,215c0.3-0.1,0.5-0.3,0.5-0.5c0.1-0.5-0.4-1.3-1.1-2.1h-0.7c-0.8-0.8-1.8-1.4-2.6-1.3
	c-1.1,0.2-3.2-0.8-4.9-2.1h0.8c-0.8-0.5-1.5-1.1-2.1-1.7c-1.8-1.8-5.1-1.8-6.4-1.8s-6.6,1.8-6.6,1.8v0.1c-0.2,0.1-0.4,0.1-0.4,0.1
	c-0.2,2.6,2,1.8,4.6,1.8s7.3-0.5,8.1,0.8c0.9,1.3,4.9,3.4,6,4.4S263.1,215.8,263.8,215L263.8,215z M288.2,222.6c0.7-0.4,1-1,1-1.7
	h-0.4c-0.1-1.2-1-2.3-2.2-2.1c-2,0.4-1.5,5,0.9,4.2C287.8,223,288,222.8,288.2,222.6z M671.1,252.5c-0.2-0.2-0.3-0.5-0.4-0.9h0.5
	c-0.7-1.8-1.3-5.5-3-4.6c-0.1,0-0.2,0.1-0.2,0.2h-0.2c-1.4,0.7-2.9,13.1-0.2,14.2c0.8,0.3,1.6-0.3,2.2-1.4h0.2
	c0.8-1.3,1.4-3.4,1.7-5.1h-0.4C671.4,253.8,671.4,252.9,671.1,252.5L671.1,252.5z M483.2,156.6c0.5-0.2,1-0.7,1.4-1.4
	s0.4-1.6,0.1-2.3h-0.5c-0.5-1-1.3-1.8-1.9-1.8c-2.1,0-3.1,3.9-1.8,5.2C481.4,157.2,482.3,157.3,483.2,156.6z M467.4,155.7
	c0.3-0.1,0.5-0.3,0.6-0.5c0.4-0.8-0.3-2.3-1.4-1.4c-0.4,0.1-0.8,0.5-1.2,1.4C464.9,156.1,466.7,156.4,467.4,155.7z M497,164.8
	c0.5,0.2,1.7,0.1,2.4-0.5c0.8-0.3,1.3-1,0.9-2.4c-0.1-0.2-0.2-0.4-0.2-0.5h-0.5c-1-1.8-2.6-1.8-3.2-1.8c-0.6,0-3.5-0.8-4.6,0
	c-0.8,0.6,1.3,2.3,2.4,2.8S496.1,164.5,497,164.8L497,164.8z M435,120.6c1.8,0.3,3.7-1.3,5.3-2c1.2-0.6,2.8-1.7,3.4-3.2h0.3
	c0.3-0.5,0.5-1.1,0.5-1.8c0-1.2-0.2-2.4-0.4-3.4h-0.5c-0.2-0.7-0.5-1.4-0.9-1.8c-0.9-1-2.4-1.3-3.7-1c-2,0.4-2.2,2.8-3.5,2.8h-1.1
	c-0.2,0.1-0.4,0.2-0.5,0.3c-0.7,0.3-1.1,0.9-0.9,2c0.5,1.8,1.3,3.1,0,3.9C431.7,117.3,433.2,120.4,435,120.6L435,120.6z
	 M445.8,109.5c2.2,1,6.9,2.1,5.1,3.1s-6.9,6.1-7.3,7.7c-0.4,1.5,5.8,0.8,5.8,0.8s-1.3,1.8-0.2,2.3c0.4,0.2,0.7,0,1-0.3
	c0.5-0.2,0.9-0.8,1.6-1.3c0.2-0.2,0.6-0.3,0.9-0.3c1.8,0,5.3,1.3,7.1,1.3c0.5,0,1.2-0.3,1.8-0.7c1.3-0.7,2.6-2.1,2.9-3.4h-0.4v-0.5
	c-0.1-0.8-0.6-1.9-1.4-2.9h0.6c-0.9-1.3-2.1-2.4-3.2-3.1c-0.7-0.3-1.4-1.1-2.1-2.1h-0.6c-0.9-1.2-1.6-2.5-2.3-3.4h0.6
	c-0.4-0.6-0.8-1-1.1-1.2c-0.9-0.7,1.4-2.3,2.7-3.9h-0.2c0.6-0.8,0.9-1.5,0.4-2.1c-1-1.1-3.2-1.1-5.1-1.3h3.2c-2-0.3-4.4-0.1-5.7-1
	c-1-0.7-1.9-0.5-2.8,0.1c-0.8,0.4-1.5,1.2-2,2c-1.1,1.5-2.5-0.3-3.8,0.2c-1.8,0.7-1.1,3.4-0.2,4.7
	C442,105.7,443.6,108.5,445.8,109.5L445.8,109.5z M900.4,93c5.3-0.3,7.2-3.3,12.3-4.9c5.1-1.5,9-2.6,10.6-1.8c1,0.5,2.3,0.5,2.8-0.1
	c0.5-0.2,0.7-0.7,0.3-1.4h-0.6c-0.9-1.1-2.5-2.4-3.3-3.4h0.6c-0.5-0.6-0.9-1.2-0.6-1.5c1.1-0.3,2.2-0.5,3-1.2
	c0.7-0.4,1.2-0.9,1.6-1.9v-0.5h-0.4c-0.1-1-0.6-2.2-0.9-3.4h0.5c-0.5-1.4-0.8-2.8,0.1-3.8c0.4-0.4,0.5-0.8,0.5-1.3h-0.4
	c-0.2-1.5-1.8-2.8-3.4-3.4h1c-0.4-0.2-0.9-0.4-1.2-0.5c-2.2-0.5-10.8,0.5-12.5-0.5c-1.8-1-4.6-2.3-5.5-1.5l-0.1,0.1
	c-0.1,0-0.2,0.1-0.3,0.1c-0.9,0.8-2.9,4.9-2.9,4.9s-1.6,0.5-2.9-1.8c-0.2-0.3-0.5-0.6-0.9-0.8h0.7c-2.1-1.7-8.2-1.5-10.2-1.5
	c-2.2,0-4.6,0.5-7.1,0.8c-2.4,0.2-3.7,1-5.5-0.8s-4.2-2.6-5.1-3.4c-0.1-0.1-0.3-0.2-0.5-0.3h-1.9c-1.4-0.1-3.2-0.1-5.1,0H861
	c-3.7,0.5-7.4,0.5-7.4,0.5l-1-0.5h-0.9c-0.7-0.4-1.7-1-2.9-1.8c-0.9-0.6-1.8-1.1-2.6-1.6h0.9c-1.8-1.1-3.4-1.8-4.1-1.8
	c-0.9,0-7.7,1.3-9.3,0s-3.1-2.1-4.2-2.1c-0.6,0-1.2-0.7-1.3-1.3h-0.4c0-0.3,0.2-0.5,0.7-0.5c1.3,0,7.5-2.1,7.5-2.1s-0.2-0.4-0.6-0.8
	h0.6c-0.6-0.8-2-2.3-3.6-2.3c-2.2,0-6.2-1.3-7.3-1.3c-0.4,0-0.5,0.1-0.6,0.3c-0.4,0.1-0.5,0.3-0.6,0.6c-0.2,0.1-0.6,0.1-1.2-0.1
	c-2.2-0.5-5.2,1.1-5.7-0.5c-0.4-1-1-0.9-1.6-0.4c-1.2,0.5-2.4,3.6,0,4.3c3.3,1,6.4,0,7.3,1.6c0.9,1.5,0,2.3,0,3.3s-1.8,3.9-2.9,4.4
	c-1.1,0.5-2.4-0.8-4.6,0.5c-2.2,1.3-7.8,0.2-8.4,1c-0.7,0.8-2-2.1-3.1-1.5c-0.7,0.3-2.2,1.9-3.5,2.8c-0.5,0.4-1.1,0.6-1.6,0.5
	c-0.7-0.1-1.6-0.6-2.2-1.3h-0.7c-0.6-0.7-1-1.6-1-2.6v-0.8h0.4c-0.1-1.9-0.7-4.1-1.3-4.6c-0.3-0.2-1.4-0.4-2.6-0.5h-4.8
	c-1.8,0.2-6.7,0.7-7.9,1.7c-0.3,0.1-0.5,0.2-0.6,0.4c-0.2,0.2-0.4,0.4-0.7,0.5c-1.1,0.6-2.6,1-3.7,1c-1.5,0-2.8-1.8-6.2-2.3
	c-3.3-0.5-10.6-0.8-11.5-0.5c-0.6,0.2-2.3-0.2-2.7-0.8h-0.5c0-0.2,0-0.3,0.2-0.5c0.5-0.5,1.7-1.7,2.4-2.9h0.2
	c0.8-1.2,1.2-2.5,0.2-3.3c-1.9-1.5-6.2-1.5-8.2-1.8h-2.3c-1.5-0.2-3.1-0.4-5.3,0h-0.7c-2.1,0.7-2.8,1.8-3.9,0.5
	c-0.1-0.1-0.2-0.2-0.2-0.3c0.6,0.1,1.4,0.5-1.5-1c-4.6-2.3-7.3,0-8.2-1.3c-0.2-0.2-0.2-0.4-0.3-0.6c-0.4,0.7-1.2,1.6-3,2.6
	c-3,1.7-5.1,2.1-5.9,2.3c-0.9,0.3-7-1-7-1.8V42h-0.4c-0.4-4.7-2.7,0.2-4.8,1.7h-0.1c-2.2,1-3.7,2.6-6,2.1c-2.2-0.5-5.7-0.5-8,0.5
	c-0.7,0.3-1.2,0.5-1.9,0.7h0.4c-1.7,0.6-3,0.9-4.8,2.4c-0.5,0.4-1.1,0.7-1.6,1h-0.1c-2,1-4.2,1.5-4.2,1.5s-3.7-0.3-5.8-0.3
	c-1.3,0-2.8,0-3.3,0.5c-0.7,0.3-0.9,0.7,0,1.6c1.8,1.8,7.1,3.6,7.7,4.6c0.7,1,1.5,4,0.5,4.8c-1.1,0.5-2.5,0.1-2.7-2
	c-0.1-1.2-0.2-1.8-0.7-2.3h-0.7c-0.4-0.3-1.1-0.6-2.1-1c-2.5-1-2.5-0.3-4.4-2.4h0.7l-0.5-0.5c-1.8-1.9-3.8-2.1-5.1-1.2
	c-0.4,0.2-0.8,0.5-1.1,0.9c-1,1.3-0.6,3.8-1.3,4.6c-1.2,0.3-2.6,1.1-3-0.5h-0.5c0-0.1,0-0.2-0.1-0.3c-0.1-0.9-0.1-2.1-0.2-3.1h0.4
	c-0.2-1.5-0.4-2.6-1.1-1.8c-0.2,0-0.5,0.2-0.8,0.8c-1.6,2.6-2.2,2.6-2.2,3.9s1.3,2.6,0.9,4.9c-0.5,2.3-0.5,3.9,0.2,3.9
	c0.6,0,2.2-2.3,4.1-2.9c2-0.5,5.5-1.8,5.8,0.5c0.2,2,1.9,2.9,0.9,3.7c-0.1,0-0.2,0.1-0.2,0.1c-2.2,1-4.6,0.5-5.1-1
	c0-0.1-0.1-0.2-0.1-0.2h-0.5c-0.6-1-1.9-0.9-3.3,0.3c-1.5,1.3-4.8,5.9-4.8,5.9s-3.8,2-5.3,2.3h-0.5c-0.5-0.4,0.7-2,2.1-3.4h0.2
	c0.6-0.6,1.2-1.1,1.7-1.5c1.2-0.9,2.2-2.4,2.5-3.6h-0.4c0.1-0.5,0.1-0.8-0.1-1.1c-0.2-0.3-0.5-1.2-0.8-2.4h0.5
	c-0.4-1.8-0.7-4-0.3-4.9c0-0.1,0-0.2,0.1-0.3h-0.3c0.5-1.1,1.6-2.4,0.6-3.4h0.6c-0.2-0.3-0.4-0.5-0.8-0.8c-2.2-1.3-3.7-2.8-5.5-3.6
	c-0.5-0.2-1.1,0-1.7,0.4c-1.4,0.7-2.8,3.2-4.1,4c-1.5,1-1.3,2.3-3.3,2.6c-2,0.2-3.4,3.4,0,5.2c3.3,1.8,4.4,3.1,3.5,4.1
	c-0.4,0.1-0.9,0.1-1.5,0h-1.6c-0.9-0.2-1.6-0.5-1.6-0.5s-2.8-1.5-4.6-1.5c-1.5,0-3.3-0.9-4.9-1.3h1.3c-0.6-0.2-1.2-0.4-1.8-0.5
	c-1.6-0.2-4.5-0.2-5.8,0.5h0.2c-0.4,0.1-0.8,0.3-1,0.6c-0.6,0.6-1.6,2.1-2.8,2.9h-0.2c-0.5,0.2-1,0.3-1.5,0h-0.9
	c-1.4-0.9-1.6-1.7-3.8-0.8c-2.4,1-4.8-0.8-6.2,0.8c-0.3,0.4-0.5,0.7-0.6,0.9c-0.4,0-1-0.2-2.6-0.8h-1.1c-3-1.1-3.4-0.1-4.8,0.8
	c-0.5,0.3-1.2,0.6-2.1,0.7c-3.7,0.7-6-0.5-7.2,0.5c-0.3,0.1-0.5,0.2-0.7,0.5c-1.1,1.5-2.6,4.4-3.3,2.6h0.5c0-0.1-0.1-0.1-0.1-0.2
	c-0.5-1.4,1-3.5,1.3-4.9h-0.4c0-0.3,0-0.6-0.2-0.8c-1.1-1-5.8-0.5-6.4,0.3c-0.7,0.8-0.2,3.6,0.2,4.6c0.4,0.9,0.9,3.9,0.3,4.4h-0.4
	c-1.3-0.8-1.1-3.4-2.4-3.1c-1.3,0.3-2.9,1-3.5,1.5s-3.3,0.5-4,1.5c-0.5,0.9,0,3.1-0.5,3.9c-1,0.3-2,1.2-4.4-0.5
	c-1.8-1.3-2.2-1.1-2.6-0.7c-0.4,0.1-0.5,0.5-0.9,0.7c-0.1,0.1-0.2,0.2-0.4,0.3c-1.1,0.7-3,1.5-3.2-0.3c-0.2-1.6,0.1-2.5-0.4-3.3
	h-0.6c-0.2-0.3-0.5-0.7-1-1c-2-1.6-0.5-1.6,2.2-0.5c2.6,1,6,1.5,10.8-0.2c2.6-1,4.4-1.6,5.1-2.2c1.1-0.6,1.2-1.1,0.1-1.7
	c-1.1-0.6-2-1.8-3.2-2.8H564c-0.9-0.8-1.9-1.5-3.2-1.8c-3.1-0.5-7.7,1.7-12.5-0.3c-1.2-0.5-2.2-1-3-1.3h1c-2.8-1.3-3.9-1.9-5.5-2.3
	c-0.9-0.2-3.6-1.5-6.9-2.8h-1.1c-4.2-1.6-9-3.2-12-2.6c-1.7,0.3-4.3,1.4-7.1,2.6h-0.2c-3.5,1.6-7.2,3.6-10,5.1h0.1
	c-2.4,1.3-4.2,2.4-4.4,2.6c-0.9,0.8-2.2,3.9-5.1,6.5c-1.1,1-2.5,1.9-4.1,2.8c-2.4,1.3-5.1,2.4-7.6,3c-0.7,0.2-1.3,0.5-2,0.9
	c-3.8,2.1-7.8,8-7.8,8.9c0,1,1.8,4.9,1.3,5.7c-0.4,0.8,0.9,4.7,3.3,5.7s6.6,0.8,6.8-0.8c0-0.4,0.3-0.8,0.7-1.3h0.2
	c0.4-0.7,1.1-1.4,1.7-1.9c0.5-0.3,1.1-0.2,1.2,0.6c0.2,2.3,2.4,5.9,1.9,7.5c-0.4,1.6,0,3.1,1.6,2.8c1.6-0.2,9.7-2.3,9.7-2.3
	s0.3-0.1,0.6-0.4c0.5-0.3,2.2-1.4,2.1-3h-0.4c-0.2-1.1,0.5-2.3,1.4-3.4h0.2c0.9-1.1,2-2.1,2.3-2.5c0.4-0.4,1.2-1.5,1.5-2.6h-0.4
	c0.2-0.8-0.1-1.6-1.3-2.1c-1.4-0.5-2.6-0.8-3.1-1.4h0.7c-1-0.6-1.1-1.4,0.8-3.3c0.3-0.3,0.6-0.5,0.9-0.7c2.4-1.4,4.4,0.3,7.8-3.6
	c0.2-0.3,0.4-0.6,0.6-0.8h0.2c2.2-2.9,0.8-4.4,1.1-5.1h-0.2c0.3-0.1,0.7-0.2,1.5-0.3c4.2-0.2,8.6-0.5,7.7,1c-0.5,1-2.7,2.6-4.9,4.1
	c-0.1,0.1-0.2,0.1-0.3,0.2c-1.3,0.8-2.6,1.6-3.6,2.2c-2.9,1.5-2.5,4.4-1.4,5.9s1.6,5.1,3.5,4.6c2-0.5,4.4-2.3,6.6-2.1
	c2.2,0.3,6.6-0.3,7.2-0.3c0.6,0,3.2,3,2.3,3.9c-1.8,0.5-3.9,0.2-7.6,0.5c-3.6,0.2-7.5,0.3-7.9,0.9c-0.3,0.1-0.5,0.2-0.5,0.4
	c0,0.8,5.1,2.6,3.3,3.9c-1.8,1.3-3.5-0.3-5.7-0.5c-2.2-0.3-3.5,3.4-4.2,5.4c-0.5,1.4,0.2,3.5-0.4,4.3c-0.3,0.1-0.8,0.1-1.4-0.2h-1.2
	c-2.9-1-5-1-5.8-0.5c-0.9,0.5-2.5-0.5-4.7,0.3c-0.2,0.1-0.4,0.1-0.5,0.2h-0.5c-1.1,0.3-1.7,0.3-3.8,0.3h-2.9l-1.8,0.3l-0.5-0.5H488
	c-0.5-0.6-1.1-1.4-1.2-2.6v-0.8h0.4c0-1.9,0.8-3.9-0.2-4.3c-0.9-0.4-3.6,0-5,1c-0.5,0.3-1,0.7-1.2,1.1c-0.6,1.6-1.3,4.4-0.4,5.7
	c0.6,0.9,2,2.3,2.1,2.9c-0.2,0-0.3,0-0.5-0.1c-2.3-0.7-5.1-1-6.9,0.2c-0.3,0.2-0.5,0.3-0.8,0.5c-1.7,1.5-4.8,4.9-4.8,4.9H468
	c-1.2,0.2-2.6,0.6-3.2,1.1h-0.1c-0.5,0.3-0.7,0.6-0.7,0.9c0,1.5,0,3.6-2,3.9c-2,0.3-4.6,1-7.3,1.5c-1.2,0.2-1.8,0.6-2.5,1
	c-0.6,0.3-1.3,0.7-2.6,0.8c-1.2,0.1-1.9,0.4-2.3,0.7c-1.1,0.6-0.8,1.5,1.2,1.9c2.9,0.5,7.3,2.6,7.5,4.9c0.2,2.3-0.2,4.9-1.3,7.2
	c-0.8,1.6-5.3,0.5-7.9,0.5s-7.9-1-10.1,0s-1.8,6.2-1.1,8.5s-0.2,3.6-1.1,4.4c-0.9,0.8-1.1,3.1,0,4.1s2,3.4,2.9,3.6
	c0.9,0.2,3.7-0.8,4.8,0.5c1.1,1.3,2.2,4.4,2.9,3.6c0.2-0.3,0.5-0.9,0.9-1.6h0.3c0.3-0.7,0.7-1.4,1.1-1.8c0.2,0,0.3,0,0.5,0.1
	c1.1,0.8,3.7-0.2,5.7-0.5c0.5-0.1,1-0.3,1.4-0.6c0.9-0.5,1.6-1.4,2.4-2.3h-0.2c0.4-0.5,0.9-0.9,1.4-1.3c1.6-1,1.2-1.2,0.6-2.1h0.6
	c-0.2-0.2-0.4-0.5-0.6-1c-0.5-1.3,1.1-2.7,2.6-4.1h-0.2c0.3-0.2,0.5-0.5,0.7-0.8c1.5-1.8,4.4-0.2,5-2.3c0-0.1,0.1-0.2,0.1-0.3h0.3
	c0.5-1.7,0.8-4.2,1.8-5c0.2-0.1,0.3-0.1,0.5-0.1c1.8,0.2,4.2,1.5,5.7,1.5c0.7,0,1.9-0.7,3-1.4c0.1-0.1,0.2-0.1,0.3-0.2
	c1.1-0.8,2.1-1.5,2.5-1.8c0.9-0.5,4.2-0.2,4.6,2.1c0.5,2.3,4.2,5.2,5.1,5.7c0.9,0.5,6.6,2.6,7.5,3.4c0.9,0.8,2.2,3.1,2.7,5.2
	c0.4,1.9,2.6,4.1,3.2,3c0.2,0,0.5-0.1,0.5-0.5h-0.4c0-0.8-0.3-2.1-0.6-3.4h0.5c-0.4-1.6-0.8-3.1-0.5-3.8c1.5,0.3,3.3-0.5,3.3-0.5
	s-0.1,0-0.1-0.1c0.3-0.1,0.5-0.2,0.5-0.2s-0.2-0.2-0.7-0.5h-0.7c-1.3-1-3.7-2.8-4.8-3.3c0,0-0.1,0-0.1-0.1h0.9
	c-0.1-0.1-0.2-0.2-0.4-0.2c-1.5-0.8-4.4-2.3-5.7-4.9h-0.6c-0.9-1.5-2.5-2.3-3.5-3.4h0.7c-0.6-0.6-1.1-1.3-1-2.3c0-0.5,0.2-0.8,0.4-1
	c1.1-0.3,3,0.8,4.2,2.3c1.8,2,6.2,4.9,7.7,6.7c1.6,1.8,4,2.6,4.6,4.9c0.7,2.3,2.6,4.9,3.3,5.9s1,9.2,1.7,10.5c0.4,0.8,2-0.3,3.4-1.6
	h0.1c1.1-0.9,2.2-2,2.7-2.5c0.9-0.8,2.3-1.4,3-2.6h-0.3c0.1-0.2,0.2-0.5,0.2-0.8c0.1-1-0.5-1.9-1.3-2.6h0.7c-0.9-0.9-2-1.6-2.5-2
	c-0.3-0.3-0.2-0.5,0.2-0.8c0.7-0.4,1.6-0.8,2.3-1.3c0.3-0.2,0.6-0.3,0.8-0.5s0.4-0.3,0.6-0.5h-0.1c1.1-0.9,2.4-1.7,3.1-0.5
	c0.9,1.6,0.4,7.7,0.9,8.8c0.5,1,4.9,2.6,5.8,3.9c0.9,1.3,4.6,1.8,5.3,1c0.6-0.8,4.2,0.5,5.1,0.8c0.9,0.3,3.5-0.5,5.3-1
	c1.7-0.5,3.5-2.1,3.3,1.3c-0.2,3.4-0.9,8.5-3.1,11.1c-1.5,1.7-1.6,2.9-2.1,3.5c-0.2,0.1-0.5,0.2-1,0.2c-1,0-1.9,0-2.7,0.4
	c-0.7-1.3-1.7-2.4-3-2c-1.9,0.6-4.1,0.8-6.1,1.9c-0.9,0.5-1.8,1.2-2.5,2.2c-1,1.4-1.7,2.2-2.2,2.5h-1.2c0-0.1-0.1-0.1-0.2-0.2
	c-0.2-0.5,1.3-1.8,2.8-3.2h0.1c1.7-1.5,3.5-3.1,3-3.8c-0.9-1.3-6.2-0.8-9-0.8c-0.9,0-1.8-0.2-2.6-0.5h-1.1c-1.5-0.6-2.9-1.5-4.2-1.8
	c-2.2-0.5-3.2,4.8-5.5,7.3c-1.5,1.7-3.4,0.5-5.2-0.5h0.9c-1.1-0.6-2.1-1.2-2.8-1.2c-2,0-5.7-3.4-5.7-3.4s-0.5-0.2-1.2-0.5h-1
	c-1.2-0.5-2.6-1-3.5-1c-1,0-2.7-1.4-3.9-2.4h0.7c-0.9-0.7-1.6-1.2-2-1.2c-0.8,0-3-2.1-1.7-3.2c1.8-0.7,5.1,1,3.5-4.1h0.5
	c0-0.2-0.1-0.3-0.1-0.5c-1.8-5.7-7.8-4.6-9.3-3.8s-12.5,0.5-13.4,0.5s-7.2,2.6-9.2,3.6c-0.1,0.1-0.3,0.1-0.4,0.2h0.2
	c0,0-0.1,0.1-0.2,0.1c-2,1-5.5,2.3-6.4,2.8s-5.5-1-7.5,0.3c-2.1,1.3-4,3.3-5.1,4c-0.1,0.1-0.2,0.1-0.3,0.1c-0.2,0-0.4,0.1-0.7,0.3
	c-0.8,0.4-2.5,2.2-3.7,5.6c-1.2,3.7,0.1,7-2,8.4c-1.8,0.9-4.9,2.3-7.2,3.7c-1,0.6-1.9,1.2-2.4,1.9c-1.8,2.1-3.2,10.1-5.3,13.4
	c-2.2,3.4,0,6.5,0.4,8.5c0.4,2.1,2,5.9-0.4,9.6c-2,3-2.2,4.7-2.8,5.4l-0.1,0.1c-0.2,0-0.2,0.1-0.3,0.2l-0.1,0.1
	c-1.1,0.3,1.1,1.3,1.6,3.9c0.4,2.6-2,5.2,2.2,7.5s8,2.4,9.1,5.5s4.8,10.2,4.8,10.2s3.9,4.1,6,5.9c1.2,1.1,1.9,1.1,2.3,0.6
	c0.4-0.1,0.6-0.4,0.8-0.9h-0.3c0.1-0.2,0.2-0.5,0.2-0.7c0.5-1.8,3.1-2.1,6.2-2.1s5.3,0.8,8.4,0.3c0.9-0.1,1.6-0.6,2.3-1.1
	c1.9-1.3,3.3-3.6,4.2-4.4c1.2-0.5,5.6-1.1,8.5,0.9c2.8,2.1,2.4,4.9,4,6.7c1.5,1.8,4.2,0.8,6.2-1s1.1-1,3.5,0.5s3.5,3.1,1.3,5.4
	s-0.9,5.9-2.2,9.6c-1.4,3.6,1.2,3.6,3.7,5.2c2.4,1.5,4.4,11.6,5.8,13.4c1.3,1.8-0.4,7,1.1,10.1s2.2,5,0.5,6.5
	c-1.8,1.5-4,4.6-4.2,9.7c-0.2,5.2,0.9,8.8,1.8,10.6c0.9,1.8,3.1,6.7,4.2,8.5c1.1,1.8,4.9,5.1,5.1,8c0.2,2.8-2.9,7.3-1.8,8.8
	c1.1,1.5,1.8,3.9,3.7,5.9c2,2.1,2.6,6.4,2.6,6.4s0.7,1.8,0.9,4.6c0.2,2.9,0.4,4.7,2.6,5.9c2.2,1.3,3.7,1.5,4.9,0.3
	c1.1-1.3,5.8-3.8,8.6-3.6c2.6,0.2,6.3,0.6,9.1-1.1c0.4-0.2,0.8-0.5,1.2-0.8c0.6-0.5,1.2-1.1,1.9-1.9h-0.2c0.9-1,1.9-2.2,2.8-3.4h0.2
	c1.6-2.1,3.1-4.1,3.9-5.1l0.1-0.1h-0.2c0.8-0.9,2-2.2,2.9-3.4h0.2c1-1.3,1.8-2.7,1.6-3.7c-0.1-0.4-0.3-0.9-0.5-1.3h-0.5
	c-0.5-1.2-1.1-2.4-1.2-3.4h0.5c-0.1-0.6,0-1.1,0.4-1.5c1.6-0.8,5.4-1.5,6.9-2.5c0.6-0.3,1.1-0.7,1.1-1V348h-0.4c0-0.7-0.2-2-0.5-3.4
	h0.5c-0.4-1.9-1-3.9-1.3-5.1h-0.5c0-0.2-0.1-0.4-0.2-0.5c-0.2-0.7,0.1-1.7,0.8-3h0.2c0.6-1,1.4-2.3,2.3-3.5c0.4-0.5,0.8-1.1,1.3-1.6
	h-0.2c1.3-1.3,2.8-2.5,3.9-3.4h0.1c0.8-0.6,1.4-1.1,1.7-1.5c0.5-0.6,1.9-1.9,3.2-3.6h-0.2c0.7-1.1,1.4-2.2,1.6-3.4h0.4
	c0-0.2,0.1-0.4,0.2-0.7c0.2-1.4,0-3-0.1-4.4h-0.4c-0.2-1.3-0.3-2.5-0.2-3.4h0.4c0-0.6,0.1-1.1,0.3-1.4c0.6-1.3,0.4-2.4-0.4-3.7h-0.6
	c-0.3-0.5-0.7-1-1.2-1.5s-0.9-1.2-1.1-1.9h0.5c-0.7-1.7-1.1-3.8-1.4-5.1h-0.5c-0.1-0.3-0.2-0.6-0.3-0.8c-0.2-0.3-0.2-1.4-0.2-2.6
	h0.4c0.1-1.7,0.5-3.9,1.1-5.1h-0.3c0.2-0.4,0.4-0.6,0.6-0.7c0.5-0.2,1.4-1.3,2.4-2.7h0.2c1.2-1.6,2.5-3.7,3.5-5.1h-0.2
	c0-0.1,0.1-0.1,0.2-0.2c0.5-0.7,1.4-1.9,2.4-3.2h0.2c1.3-1.7,2.8-3.7,4.2-5.1h-0.1c0.9-0.9,1.8-1.6,2.5-1.8c0.9-0.2,1.8-0.8,2.8-1.7
	h0.1c1.8-1.4,3.4-3.5,3.8-5.1H584v-0.2c0.1-0.7,0.6-1.8,1.4-3.2h0.3c0.9-1.5,2-3.4,3-5.1H588c0.8-1.3,1.5-2.5,1.9-3.4h0.3
	c0.3-0.6,0.5-1.2,0.6-1.5c0.1-0.7,0.5-2.1,0.9-3.7h-0.3c0.3-1.1,0.6-2.3,0.8-3.4h0.4c0.2-1.3,0.3-2.5,0-3c-1.1-1.5-9.7,2.3-10.8,2.9
	c-0.1,0-0.2,0.1-0.4,0.2h0.1c-0.1,0-0.2,0.1-0.2,0.1c-1.1,0.5-4.2,2.6-7.8,2.3c-1.9-0.1-2.3-1.2-2.3-2.4h0.4c0-1.1,0.3-2.3,0.2-3
	c-0.1-0.4-0.4-1.2-0.9-2.1h-0.5c-0.6-1.1-1.4-2.4-2.1-3.4h0.6c-0.9-1.2-1.6-2.1-1.9-2.2c-0.5-0.2-1.6-1.3-2.7-2.9h-0.6
	c-0.7-1-1.3-2.2-1.7-3.3v-0.1h0.5c0-0.1,0-0.1-0.1-0.2c-0.7-1.9-2.8-3.5-4.6-4.9H557c-1-0.8-1.9-1.5-2.5-2.3
	c-0.2-0.3-0.4-0.7-0.5-1.1h0.5c-0.4-1.3-0.4-3.1-0.3-5.1h-0.4v-3.4h0.4c-0.1-1.4-0.3-2.8-0.7-3.8c-0.2-0.4-0.4-0.9-0.6-1.3h-0.5
	c-0.5-1.1-1-2.3-1.4-3.4h0.5c-0.7-1.8-1.4-3.5-2.1-5.1h-0.5c-0.2-0.5-0.4-1-0.7-1.5c-0.3-0.7-0.6-1.3-0.9-1.9h0.5l-0.3-0.6
	c2-0.6,4.6-1.4,4.9-0.1c0.4,1.8,2.9,5.7,3.3,8.5c0.4,2.8,2.8,1.8,3.1,4.4c0.2,2.6,2.4,8.8,3.3,9.6c0.9,0.8,4.9,4.9,5.5,6.5
	c0.7,1.5,1.6,3.6,2.2,7.5c0.7,3.9,1.3,9,3.1,9.8s7.7-1.3,8.8-2.1c1.1-0.8,8.4-4.9,11.1-5.2c2.6-0.2,3-2.3,6.4-3.1
	c1.4-0.3,2.6-1,3.7-1.8c1.8-1.2,3.2-2.8,4.6-4.1l0.3-0.3h-0.2c0.8-0.9,1.7-2.1,2.5-3.4h0.3c1.2-1.9,2.3-4,2.8-5.1h-0.3
	c0.6-1.2,1.8-2.2,2.1-3.4h0.4c0.2-0.6,0.3-1.2-0.1-2c-0.5-0.9-1.8-2.1-3.2-3.1h-0.7c-1.5-1.1-3.1-1.9-4-2c-0.7-0.1-1.1-0.7-1.4-1.4
	h0.5c-0.5-1.1-0.7-2.5-1.4-2.5c-0.3,0-0.5,0.1-0.6,0.3c-0.9,0.3-0.9,1.9-2.9,3.1c-1.2,0.7-2.5,1.9-3.7,2.6c-0.7,0.4-1.3,0.7-1.9,0.5
	c-0.4-0.1-0.5-0.3-0.6-0.5h-0.5c0-0.7,0.3-1.8-1.3-3.3c0,0,0-0.1-0.1-0.1h0.7l-0.2-0.2c-2.4-2.3-3.3-2.8-3.3-4.6
	c0-0.1-0.1-0.2-0.1-0.3H590c-0.4-0.9-1.5-2.1-2.6-3.4h0.7c-1.2-1.4-2.5-2.8-2.7-4.1c-0.1-0.3,0-0.7,0-1.1H585
	c0.7-2.3,3.4-4.5,4.3-2.5c1.1,2.3,2,5.9,4.8,7.5c2.9,1.6,5.5,4.1,6.9,4.6c1.3,0.5,4.6-2.8,5.7-2.3c1.1,0.5,3.3,5.1,5.3,5.9
	s8.6,1,9.7,1c1,0,4.9,0.2,6.2-0.9c0.4-0.2,0.6-0.4,0.8-0.6c0.3-0.5,0.6-0.9,0.9-1.1c0.4-0.2,0.8-0.2,1.4-0.2c1.1,0,3.1,4.6,4.6,5.2
	c1.6,0.5,4.4,0.3,4.2,3.6c-0.2,3.4,1.3,6.2,2.9,6.5c0.5,0.1,1.1-0.2,1.7-0.7c0.2-0.1,0.4-0.2,0.5-0.4c1.4-1.2,2.8-2.8,2.8-2.8
	s0,6.4-0.2,8.8c-0.2,2.3,2.4,10.8,2.4,10.8s3.3,8,4.2,9.8s4.6,7.2,4.6,9.5s0.4,5.9,1.8,5.9c0.8,0,1.5-1.3,2.3-2.9h0.3
	c0.7-1.3,1.3-2.8,2-4c0.2-0.4,0.5-0.7,0.7-1.1h-0.3c0.7-1.1,1.4-2.3,2-3.4h0.3c0.5-1,1-2,1.2-3c0.2-0.6,0.2-1.3,0.2-2.1h-0.4
	c0-1.1-0.2-2.3-0.3-3.4h0.4c-0.2-2-0.5-3.9-0.5-4.8V229H668c0.2-1.2,1.1-2.3,2.7-3.4c0.2-0.1,0.4-0.3,0.6-0.4
	c0.4-0.2,0.7-0.4,1.1-0.6c0.4-0.2,0.8-0.4,1.2-0.7c1.2-0.8,2.3-2.1,3.4-3.4h-0.2c1-1.2,1.9-2.4,2.9-3.4h0.2c0.3-0.3,0.6-0.7,0.9-0.9
	c1.4-1.2,2-2.9,3-4.1h-0.2c0.9-1,2.1-1.8,4.4-1.8c5.3,0,4.8,0,6.2-1.5l0.1-0.1h0.2c0-0.1,0.1-0.1,0.2-0.2c0.4-0.5,0.8-0.8,1.1-1.1
	c0.7-0.4,1.4-0.1,1.8,1.6c0.7,2.8,4.4,7,5.1,8c0.6,1,1.9,3.9,1.7,7s-1.3,11.6-0.2,11.6c0.3,0,0.7-0.5,1.2-1.3h0.3
	c0.7-1.3,1.8-3.4,2.5-5.1h-0.3c0.7-1.6,1.2-2.8,1.2-2.8s0.3-0.3,0.9-0.6c0.1-0.1,0.2-0.1,0.3-0.2c1.4-0.8,3.6-1.7,3.4,1.1
	c-0.2,4.1,0.5,8.5,0.5,11.1s4,8.8,4,7.2c0-0.5,0.2-1.3,0.4-2.2h0.4c0.4-1.5,1-3.5,1.2-5.1h-0.4c0-0.3,0.1-0.7,0.1-1
	c0-2.3,1.1-1.3,4,1c2.8,2.3,4.9,7,4.9,7s2.7,8.7,3.2,10c0.3,0.7,1.4-1.2,2.4-3.4h0.3c0.9-1.8,1.8-3.8,2.1-4.6l0.3-0.6h-0.3
	c0.5-1,1.1-1.6,2.5-2c1.2-0.4,2.6-0.5,3.5-1.4h0.1c0.6-0.4,1.1-1.1,1.4-2.2c0.2-0.9,0.5-1.9,0.8-2.9h-0.3c0.3-1.1,0.5-2.2,0.4-3.4
	h0.4c-0.1-1.2-0.4-2.5-1.3-3.8c-0.4-0.5-0.6-0.9-0.9-1.3h-0.5c-0.9-1.3-1.6-2.4-2.3-3.4h0.6c-1-1.4-1.8-2.6-2.8-3.5
	c-0.5-0.4-0.9-1-1.2-1.6h-0.6c-0.7-1.2-1.3-2.5-1.7-3.4h0.5c-0.4-0.8-0.5-1.5-0.5-1.5s1.8-1.9,3.4-3.6h-0.2c0.7-0.8,1.4-1.6,1.8-2
	c1.3-1.5,3.3-0.5,3.5,1.3s-1.9,3.4-2.4,7.2c-0.4,3.9,2.6,5.2,3.5,3.9c0.2-0.1,0.3-0.1,0.4-0.3c0.2-0.4,0.7-1,1.1-1.6h-0.2
	c0.9-1.3,1.8-2.8,1.8-3.3v-0.1h0.4V217c0-0.8-1.6-0.5-1.8-3.4c-0.1-0.6,0-1.1,0.2-1.6H746c0.8-1.8,2.8-2.9,3.6-2.3
	c1.1,0.8,8.1-1,11.5-3.1c0.1,0,0.1-0.1,0.2-0.1s0.2-0.1,0.2-0.1c1.2-0.7,2.2-1.8,3.1-2.9h-0.2c0.9-1.2,1.7-2.4,2.5-3.4h0.2
	c0.5-0.8,1.1-1.5,1.6-2c0.7-0.6,2-1.8,3.4-3.1H772c1.1-1.1,2.2-2.3,3.1-3.4h0.2c1.2-1.5,2.1-3,1.9-4.1c-0.1-0.3-0.1-0.7-0.1-1.1
	h-0.4c-0.1-1.1-0.1-2.2-0.2-3.4h0.4c-0.1-1.6-0.3-3.4-1-5.1h-0.5c0-0.2-0.1-0.3-0.2-0.5c-0.5-1.1-1.1-2-1.7-2.9h0.6
	c-1.4-2.1-2.7-3.7-3.4-4.8c-0.1-0.1,0-0.2-0.1-0.3h-0.4c0.4-1.1,3.9-1.6,5.8-3.4h0.1c0.2-0.1,0.4-0.3,0.5-0.4c2.2-2.3,0-4.4-1.1-4.1
	c-1.1,0.3-4,1-5.1,0.8c-0.6-0.2-1.1-0.6-1.8-1.3h-0.7c-0.4-0.4-0.9-1-1.5-1.5c-0.7-0.6-0.8-1.3-0.6-1.9h0.4c0.1-0.6,0.5-1.2,1-1.6
	c0.2-0.1,0.5-0.2,0.7-0.1c0.4,0.1,1-0.2,1.6-0.6c1-0.6,2.3-1.8,3.3-2.7h-0.1l0.5-0.5c1.3-1.3,3.3-2.3,2.7-1s-2.2,5.9-0.5,6.2
	c0.7,0.1,1.8-0.5,2.9-1.2c1.1-0.7,2.1-1.5,3-2c0.4-0.2,0.7-0.4,0.8-0.3c0.7,0.2,1.8,3.6,1.1,5.2c-0.6,1.5-0.6,4.1,0.2,3.9
	c0.2-0.1,0.4-0.2,0.6-0.4c0.4-0.2,1-0.8,1.5-1.2h-0.1c0.5-0.3,0.9-0.5,1.1-0.2c0.4,0.8,2.6,2.3,1.5,5.2c-1.1,2.8-3.3,3.9-0.7,5.7
	c1.8,1.2,2.8,0.9,3.9,0.1c0.6-0.4,1.2-0.9,2-1.4c0.3-0.2,0.5-0.5,0.8-0.8c0.6-0.9,1.1-2.1,1.4-3.4h0.3c0.5-1.8,0.5-3.7,0-4.6
	c-0.1-0.2-0.2-0.3-0.4-0.5h-0.6c-0.6-1-1.5-2.3-2.1-3.4h0.5c-0.7-1.1-1.2-2.2-1.2-2.8c0-0.2,0.1-0.4,0.4-0.5c0.9-0.4,2.2-0.8,3-1.4
	c0.2-0.1,0.4-0.2,0.5-0.4h-0.2c0.2-0.2,0.3-0.5,0.3-0.8c0-1,0.4-1.9,0.9-2.6h0.2c0.6-0.9,1.4-1.6,2.3-2c0,0,0.1-0.1,0.2-0.1
	c1-0.6,2.2-2.1,3-2.8c0.2-0.1,0.4-0.1,0.5,0.1c0.6,1,4.1,2.1,5.5,1c0.3-0.1,0.5-0.3,0.7-0.5s0.4-0.5,0.6-0.8h-0.2
	c0.8-0.9,1.9-2.1,3.3-3.4h0.2c1.7-1.7,3.6-3.6,5.3-5.1h-0.1l0.8-0.8c1-0.8,1.8-1.7,2.5-2.6h0.2c1.2-1.6,2.1-3.3,2.7-5.1h-0.3
	c0.3-0.8,0.5-1.7,0.7-2.6c0.1-0.3,0.2-0.6,0.2-0.8h0.4c0.5-2,1.1-3.6,1.4-5.1h-0.4c0.2-0.9,0.3-1.9,0.1-2.8c1.3,3.6,1.5,6.2,1.3,9
	s0,8.8,0.4,9.5c0.4,0.8,2.2,2.6,3.3,2.1c0.1,0,0.1-0.2,0.2-0.2s0.2,0,0.2-0.1c0.2-0.1,0.3-0.3,0.3-0.5h-0.4c0.1-0.8-0.1-2.2-0.4-3.4
	h0.5c-0.2-1.2-0.5-2.3-0.5-2.8c0-0.7,0.8-1.7,1.6-2.3c0.2-0.1,0.3-0.2,0.4-0.2c0.5-0.2,0.5-1.6,0.1-3.2h0.5
	c-0.3-1.3-0.7-2.7-1.2-3.5c-0.4-0.6-0.8-1.1-1.1-1.5h-0.6c-0.6-0.7-0.9-1.1-0.4-1.3c0.7-0.2,1.4-1.3,1.5-2.1h0.3
	c0.2-0.4,0.2-0.8-0.1-1c-0.7-0.5-0.2-2.3-1.8-1.8c-0.8,0.3-2.8,0-3.6,0.8c-0.3,0.1-0.5,0.3-0.6,0.5c-0.7-1.9-1.9-3.1-3.5-2.9
	c-2,0.3-3.1,1.5-5.1,1.5c-1.2,0-1.1-1.3-1-2.3h-0.4c0-0.6,0-1-0.3-1c-0.5,0-1.3,1-2.1,1.6c-0.5,0.3-1,0.4-1.5-0.3
	c0-0.1,0-0.2-0.1-0.3H812c-0.2-1.7,3.5-3.7,6.5-4.9c0.4-0.2,0.9-0.4,1.3-0.7c1-0.6,2.2-1.7,3.4-2.9h-0.1c1.2-1.2,2.4-2.4,3.5-3.4
	h0.1c0.7-0.7,1.4-1.3,2.1-1.7c0.3-0.1,0.5-0.3,0.7-0.3c2.2-0.3,7.7,0.5,12.5,0.3c4.9-0.3,6.4-2.6,8-1.3c1.5,1.3,4.9,2.8,6.8,2.6
	c1.1-0.2,1.3-0.2,1.8-0.5c0.5-0.2,0.9-0.7,2.8-2.3c0.8-0.7,1.6-1.3,2.3-1.8c1.8-1.2,3.3-2.2,4.3-3.4h0.2l0.7-0.7
	c0.4-0.5,0.9-0.9,1.4-1.3c1.8-1.1,4-1.5,4.1,0c0.2,2.1-0.4,4.1,1.3,4.1c1.8,0,4.4-2.1,6.6-3.1c1.3-0.6,2.5-1.3,3.2-1.8
	c0.3-0.2,0.5-0.3,0.7-0.4c-1.2,0.9-8.6,6.9-10.9,8.5c-1.6,1-4.4,1.8-6.7,3.2c-1.3,0.7-2.5,1.5-3.3,2.6c-2.2,3.1-3.5,4.1-3.3,7.5
	s4,7.7,2.2,10.8s-2.4,7.5-2.4,7.5s0.8-1.3,2.1-2.9h0.2c1.1-1.4,2.7-3.2,4.5-4.6c0.2-0.2,0.4-0.3,0.6-0.5h-0.1
	c1.3-1.1,2.3-2.3,3.2-3.4h0.2c1.4-1.8,2.5-3.5,3.3-4.3c0.2-0.2,0.3-0.3,0.5-0.4c1.7-1,4.4-1.4,4.4-2.9c0-0.3,0-0.6,0.1-0.8h0.4
	c0.2-1.6,0.9-3.4,1.5-5.1h-0.3c0-0.1,0.1-0.2,0.1-0.3c0.6-1.7-0.7-1.7-0.3-3.1h0.3c0.1-0.3,0.2-0.7,0.5-1.3c0.7-1.5,1-2.8,2.4-3.6
	c1-0.5,2.5-0.7,4.9-0.7C897.3,92.8,895.1,93.3,900.4,93L900.4,93z M547.7,275.4c0.9,1.7-1.2,6.3-3.2,7.8c-0.3,0.2-0.5,0.2-0.9,0.2
	c-0.8-0.2-1.2-1.4-1.2-2.9H542c0-1.2,0.1-2.5,0.3-3.4h0.4c0.1-0.6,0.3-1.2,0.4-1.5c0-0.1,0.2-0.2,0.3-0.4
	C544.7,274.6,547.2,274.6,547.7,275.4L547.7,275.4z M539,90.2c0-0.1,0.1-0.2,0.2-0.3h0.3c0.2-0.4,0.4-0.7,0.7-0.9
	c2.1-0.8,6,2.4,5.1,3.8c-0.2,0.2-0.4,0.4-0.7,0.5h-2.4C540.4,92.8,538.6,91.6,539,90.2L539,90.2z M566.6,150.8c-1.8,0.5-7.1,1-9,0.8
	c-1.3-0.2-2.9-1.3-4.6-2.1h0.9c-1-0.5-2.1-1-3.2-1.2c-2.3-0.4-5.1-0.3-6.6,0.7c-0.6,0.3-1,0.6-1.3,1.1c-1.1,1.8-5.1,1-6.9,1
	c-1.8,0-4,2.6-4.4,1.6c0,0,0.5-1.7,0.5-3.2h0.4c0.1-1.1,0-2-0.5-2.3c-0.8-0.3-0.4-1.7,0.3-2.9H532c0.4-0.6,0.9-1.2,1.3-1.5
	c0.5-0.4,1.1-1.1,1.7-1.9h0.2c0.9-1.3,1.9-2.9,2.7-4.6c0.1-0.2,0.2-0.3,0.4-0.5H538c1.2-1.8,2.7-2,3.7-1.8c1.1,0.2,3.5,4.9,4.2,6.4
	c0.4,1.1,1.6,0.4,2.6-0.2c0.6-0.4,1.2-0.8,1.6-1.1c0.9-0.5,2.2-2.1,2.5-3.4h-0.4c0.5-1.1,2.3-1.8,4.3-1.8c1.6,0,1,1.1,0,1.9
	c-0.3,0.2-0.6,0.3-0.9,0.4c-0.3,0.1-0.5,0.2-0.6,0.3c-1.2,0.5-0.3,1.5,2.2,2.5c2.6,1,5.1,3.9,7.9,5.7
	C568,146.7,568.4,150.3,566.6,150.8L566.6,150.8z M601,138.2c-1.3,0.7-4.6,1.1-5.8-0.3c-0.7-0.8-1.9-0.7-2.9,0.1
	c-1.1,0.6-2,1.8-2.1,3.3c-0.2,2.9,0.9,0.8,2.2,1.8s1.8,2.6,2.6,4.1c0.9,1.5,2.4,1,3.5,2.3s-3.1,2.8-1.3,4.4c1.8,1.5,2.6,7.7,2.9,9.3
	c0,0.3-0.2,0.6-0.5,0.9c-1.5,0.8-4.4,1.1-5.5,0.9c-1.5-0.3-6.2-2.1-7.7-2.6c-0.3-0.1-0.6-0.5-0.9-1H585c-0.4-1-0.6-2.3-0.6-3.4h0.4
	c0-0.9,0.2-1.6,0.5-2h0.2c1,0.1,1.7,0,2.3-0.5c0.7-0.4,1.4-1.2,2.7-2.6h-0.2c1.4-1.9-2.5-2.9-4.4-3.4h1.4c-0.6-0.2-1.2-0.3-1.6-0.5
	c-1-0.3-2.5-2.5-3.7-4.7h-0.6c-0.7-1.3-1.4-2.4-1.8-3.1c-0.1-0.1-0.1-0.2-0.2-0.3h0.5c-0.8-1.4-0.5-3.3,0.9-5.1h-0.2
	c0.4-0.4,0.8-0.9,1.3-1.3c1.3-1,4.8,1.3,6.6,0c0.9-0.7,1.9-1.5,2.7-2.1h0.1c0.6-0.5,1.1-0.9,1.5-1.3c0.9-0.3,5,0.9,5.6,2.4
	C599.2,135.1,601.8,137.4,601,138.2L601,138.2z M725.6,38.8c0.2-0.9-0.4-1.1-0.5-0.5c-0.2-0.4-0.8-0.1-0.1,1.2
	c0.2-0.3,0.2-0.5,0.2-0.8h0.4L725.6,38.8L725.6,38.8z M593.3,59c1.3,0.5,4.2,0.8,6.6,2.3c2.2,1.4,5.2,2,7,0.7
	c0.3-0.2,0.6-0.4,0.9-0.7c0.5-0.6,0.7-1.3,0.6-2h-0.5c-0.2-1-0.8-1.9-1.4-2.1c-0.5-0.1-0.9-0.6-0.9-1.3h0.5c-0.2-0.8,0.3-2,2-3.1
	c0.9-0.6,1.8-1.2,2.8-1.8c1.9-1.2,3.9-2.2,6-2.6c3.3-0.5,10.8-0.8,13.5,0c1.1,0.3,2.4-0.2,3.7-1.1c1.9-1.2,3.7-3.2,4.4-4.3
	c0.2-0.3,0.2-0.5,0.1-0.8H638c-0.7-1.2-3.8-1.7-4.8,0c-0.1,0.1-0.2,0.2-0.4,0.3c-2.1,1.3-7.1,0.9-8.3,0.5
	c-1.3-0.5-11.9,2.1-14.1,2.1c-0.6,0-1.1,0.3-1.6,0.6c-1.4,0.8-2.5,3-5,4.3c-0.5,0.2-1,0.5-1.6,0.8h-0.1c-2.6,1.4-5.5,3-6.8,3.6
	c-0.1,0-0.1,0.1-0.2,0.2c0,0-0.1,0.1-0.2,0.1C593.5,55.4,591.9,58.5,593.3,59L593.3,59z M818.4,163.7c-0.7,0-3.4,1.2-5.3,2.4
	c-0.8,0.5-1.6,1-2,1.5c-1.3,1.6-7.7-1.3-8.6,0c-0.9,1.3-2.6,2.8-3.8,3.9c-0.8,0.4-2,0.5-2.7,1c-0.7,0.3-1.1,0.9-0.9,2.3
	c0.7,3.1,2.2,5.9,3.5,5.9c0.6,0,1.2-0.2,1.8-0.6c0.6-0.3,1.1-0.8,1.4-1.7h-0.4c0.2-0.4,0.2-0.9,0.2-1.5c0-2.8,3.1,0,4.6-0.3
	c0.9-0.2,1.5-0.8,2-1.6h0.2c0.4-0.6,0.7-1.4,1-2.2c0.2,0.6,0.5,1.2,1.6,1.5c1.2,0.3,2,0.1,2.6-0.3c1-0.5,1.3-1.5,1.3-2
	c0-0.1,0.1-0.2,0.3-0.3c1.3-0.7,4.4-1.6,5.1-2.2c0.8-0.7,4-1.9,4.5-2.9h0.3c0.1-0.2,0.2-0.3,0.3-0.4c0.1-0.6,0.1-2.8,0.3-4.7h-0.4
	c0.2-1.3,0.4-2.4,0.8-2.5c0.5-0.2,1.2-0.4,1.5-0.8h0.2c0.6-0.4,0.8-1.3-0.3-3.5c-0.3-0.5-0.5-1.1-0.7-1.6h-0.5
	c-0.5-1.4-0.9-2.7-1.4-3.4h0.5c-0.5-0.8-1-1.1-1.9-0.5l-0.1,0.1l-0.4,0.2c-1.6,1.1-0.7,5.7-2,8.8
	C820.2,160.6,819.3,162.9,818.4,163.7L818.4,163.7z M756.9,302.3c0.3-0.1,0.5-0.2,0.6-0.5c0.2-1.5-2.4-3.9-3.5-3.9
	c-0.3,0-1-0.1-1.8-0.3h-1.6c-1.8-0.4-3.7-1-3.7-1c-0.8,0.4-1.8,0.7-2.4,1.2c-0.1-0.1-0.1-0.2-0.2-0.2h-0.7c-0.1-0.1-0.1-0.1-0.3-0.2
	c-2.4-1.5-5.3,0-6.2-2.1c-0.2-0.5-0.5-0.9-0.7-1.1h0.6c-0.7-0.9-1.4-0.9-2.1-0.4c-0.4,0.1-0.7,0.4-0.9,0.8c-1.6,2.4,0.4,4.1,1.1,4.7
	c0.7,0.5,3.1,1,5.3,0.8c1.3-0.1,2.8-0.5,3.4-1c0.1,0,0.1-0.1,0.2-0.1c0.1,0.2,0.2,0.5,0.5,0.9c1.8,1.8,2.9,2.6,5.5,2.3
	C752.7,301.8,756.2,303.3,756.9,302.3L756.9,302.3z M768.6,305.1c-0.4,1.9,1.9,2.9,3,1.8c0.3-0.2,0.6-0.4,0.7-0.8H772v-0.2
	C772.3,303.3,769,303.1,768.6,305.1z M768.3,288.1c1.2,0.9,3-1.4,4.4-2.4h0.1c0.2-0.1,0.4-0.3,0.5-0.4c0.4-0.2,0.8-0.2,1,0.2
	c0.9,1.8-0.2,2.6,1.3,4.9c1.6,2.3,4.4,2.1,4.4,2.1v-0.3h0.4c0,0,0-1.5-0.4-3.1h-0.5c-0.2-1.2-0.6-2.5-1.2-3.4h0.5
	c-0.3-0.5-0.6-0.9-1.1-1.2c-1.6-1-2.8-2.1-2.6-2.6c0.3,0,0.6,0,1.1,0.1c1.6,0.3,2.8,0,3.4-0.6c0.3-0.2,0.6-0.4,0.7-0.8H780
	c0-0.3,0-0.6-0.1-1c-0.7-1.5-4.8-0.8-6.2-0.5c-1.3,0.2-3.3-1-3.3-1c-1.3,0.5-1.1,1.8-1.5,4.4C768.6,285,766.6,286.8,768.3,288.1
	L768.3,288.1z M794.4,269.3c-2-1-5.8,8.5-3.1,9.3c0.7,0.2,1.4-0.4,2-1.4h0.3c0.8-1.3,1.4-3.4,1.6-5.1h-0.4
	C795,270.6,794.8,269.5,794.4,269.3L794.4,269.3z M758.6,261.3c-4.1,0-4.4,3.9-5.3,4.7c-0.1,0.1-0.3,0.2-0.4,0.3
	c-0.7,0.4-1.4,0.6-2.7,1c-0.4,0.1-0.7,0.3-1.1,0.6c-1.2,0.8-1.6,2.4-2,3.5c-0.4,1.3-3.5-2.3-4.4-1.3s-0.2,5.9,1.3,10.1
	c1.5,4.1,5.5,6.7,6.6,6.7s3.3,0,4.9,0.5c1.5,0.5,6.6,1,6.4-1.3v-0.4h0.4c-0.2-1.4-0.4-3.3,0-5.1H762c0.2-1,0.7-2,1.4-2.8l0.6-0.6
	h0.2c1.7-1.7,3.3-3,3.2-5.1H767c0-0.4-0.1-0.8-0.3-1.3c-0.2-0.8-0.6-1.5-0.9-2.2h0.5c-1.1-2.3-2.2-3.8-1-5.1h-0.1
	c1.4-1.3,3-1.9,3-3.1c0-0.9-1.8,1.2-3.1-0.3h0.7c-0.7-0.5-1.2-1.9-1.4-4.8c0-0.1,0-0.2-0.1-0.3h-0.6c-0.2-0.1-0.5-0.1-0.8,0h-0.1
	c-0.1,0-0.2,0.1-0.3,0.2c-1,0.5-2.1,1.7-2.3,2.7C760.2,259.7,762.8,261.3,758.6,261.3L758.6,261.3z M769.7,229.5
	c1.3,3.1,5.9,5.4,4.8,6.7c-1.1,1.3-4.4,3.9-4.8,6.2c-0.2,0.8,0.4,0.6,1.2,0c1.1-0.7,3.2-2.7,4.6-4.4h-0.2c0.5-0.6,0.9-1.1,1.1-1.5
	c1.4-2.1,4.1-1.2,5.1-2.1c0.3-0.1,0.5-0.2,0.7-0.5l0.6-1.3c0,0-2.4-0.5-4.4-1.3c-1.9-0.8-4.3,1.9-3.4-1.8h-0.3
	c0.5-1.9,1.5-2.7,2.3-3.4h0.1c1.1-1,2.1-1.4,1.8-3.3c-0.2-0.7-0.4-1.3-0.7-1.8h-0.6c-0.9-1.4-2.2-1.8-2.6-1.8c-1.6,0,0.2,2.8-2,4.6
	C770.8,225.6,768.3,226.4,769.7,229.5L769.7,229.5z M27.1,110.6c-0.6-0.2-0.9-0.1-1.2,0.2c-1,0.3-0.8,2.5-1.8,3.5
	c-0.1,0.1-0.2,0.2-0.4,0.2c-0.9,0.2-2,0.6-2.7,1h0.1c-1.3,0.6-2.1,1.3-0.9,1.6c1.8,0.5,5.8-0.2,6.2-1c0-0.1,0.1-0.3,0.2-0.6H27
	C27.4,114.2,27.7,110.8,27.1,110.6z M32,72.9h0.6l-0.2-0.2L32,72.9z M26,93.3c-0.2,0.1-0.6,0.3-1.3,0.5c-0.1,0.1-0.2,0.1-0.2,0.2
	c-0.1,0-0.2,0-0.2,0.1c-0.9,0.3,1.6,2.1,2.4,2.1c0.2,0,0.4-0.1,0.6-0.3c0.7-0.2,1.7-1.9,1.1-2.5H26V93.3z M799.1,311.2
	c-0.5-0.5-0.6-0.4-0.6,0H799.1z M893.3,343.3c0.2-0.9-0.2-2.2-1.9-3.1h-0.9c-0.6-0.3-1.2-0.5-2-0.7c-4-1-1.3,0.8,0,3.1
	c1.1,1.9,3,3,3.9,2C892.9,344.4,893.2,344.1,893.3,343.3z M921.5,391.2c-0.2-0.3-0.5-0.4-0.8-0.4c-0.4,0-0.7,0.3-1.1,0.4h-1.3
	c-0.2-0.1-0.5-0.2-0.9-0.4c-1.9-1.2-1.6-0.9-2.7-3h0.5c-0.1-0.2-0.2-0.4-0.3-0.7c-0.9-1.6-1.2-3.6-2-4.5h-0.7
	c-0.4-0.2-0.8-0.3-1.4,0.1c-0.9,0.5,0,3.4,0.9,4.4s1.3,4.7,1.1,5.7s-3.9,2.3-2.2,3.6c1.8,1.3,5.1,0,4.6,1.5
	c-0.4,1.6-2.2,3.6-0.2,4.1c0.7,0.2,1.3,0,1.8-0.5c0.6-0.4,1.1-1.1,1.4-1.9h-0.3c0.2-0.4,0.4-0.8,0.5-1.2c0.4-0.8,0.7-1.5,1.1-2.2
	h0.3c0.5-1,1.1-1.8,2.1-2.4c1-0.7,0.7-1.9,0.1-2.6H921.5L921.5,391.2z M927.3,325c-0.5-0.2-1.1,0-1.7,0.5c-2,1.1-4.7,5.2-4.7,5.2
	c1.6,0.7,3.9-0.8,5.2-2.4h0.2C927.6,326.9,928.2,325.3,927.3,325L927.3,325z M736,42.2h-0.2C736,42.3,736.1,42.3,736,42.2z
	 M211.2,46.6c-0.5,0.2-0.9,0.5-1.1,1.1c-0.6,1.8,5.9,2.8,5.2,0.7c-0.2-0.4-0.4-0.7-0.7-1h0.7C214.3,46.1,212.3,45.8,211.2,46.6z
	 M206.1,52.5c-1.2-0.9-5-0.3-6,0.2c-1.1,0.5-4.1-0.9-5.8,0.3v0.1c-0.1,0.1-0.3,0.1-0.3,0.2c-1,0.8-0.5,3.3,1.2,3.4
	c1.6,0.2,4.4-1.2,4.7-0.2s1.4,5.7,4,4.1c0.2-0.1,0.3-0.2,0.4-0.2c0.7-0.4,1.2-0.8,1.6-1.2h-0.2c0.8-0.9,0.9-1.5,1.4-1.6
	c0.3-0.1,0.3-0.8,0.1-1.8h0.5C207.4,54.6,206.8,53,206.1,52.5L206.1,52.5z M910.7,399.7H910c-0.5-0.4-0.9-0.7-1-0.4
	c-0.1,0.5-0.5,0.8-0.9,1.1c-0.5,0.3-0.9,0.5-1.4,0.9c-0.4,0.2-0.8,0.5-1.2,0.9c-1.3,1.3,0,1.8-3.7,4.4s-8.4,5.4-9.3,7.7
	c-0.9,2.3,0.9,3.6,4.4,3.9c2.3,0.2,2.7,0.5,3.4-0.1c0.4-0.2,0.7-0.5,1.3-1.3h-0.2c0.2-0.2,0.3-0.4,0.5-0.7c0.8-1,1.6-1.9,2.4-2.7
	h0.1c1.7-1.8,3.4-3.2,5.4-5l0.1-0.1h-0.2c1.1-1.1,1.7-2.3,2-3.4h0.4c0.6-1.6,0.6-3,0.6-3S911.6,400.6,910.7,399.7L910.7,399.7z
	 M188.9,43.9c-0.2,0.1-0.4,0.2-0.4,0.3c-1.1,1.1,0,4.6-0.4,5c-0.4,0.3,0.1,1.9,1.3,1.5c1-0.3,1.6-2.7,2.3-3.4h0.2l0.2-0.2
	c0.9,0,5.4-1.2,6.2,0.7c0.7,1.9,0.7,1,2.8,1.2c1.2,0.1,2.3-0.8,3-1.7h0.2c0.6-0.7,1-1.5,1.1-1.9c0.2-0.9-1.1-2.6-3.8-2.2
	C198.6,43.6,190.1,42.7,188.9,43.9L188.9,43.9z M777.3,241.4c-0.1,0-0.2,0.1-0.3,0.2h-0.2c-0.7,0.3-2.6,4.9-0.2,4.9s6.6,0.8,5.7-0.5
	c-0.4-0.6-1.2-1.9-2.1-2.9h0.6C780,241.9,778.7,240.8,777.3,241.4z M784.9,272.1h-0.4c0-0.1-0.1-0.2-0.2-0.2c-0.2,0-0.8,0.1-1.6,0.2
	h-1c-2,0.4-4.4,0.9-4.8,1.1c-0.7,0.2-4.6-0.5-4.6-0.5c-0.1,0.1-0.1,0.2-0.2,0.3h-0.2c-1.5,1.8-0.4,3.6,2,3.3c2.5-0.2,7.5-1,8.6-1
	c0.2,0,0.4-0.2,0.6-0.3C783.9,274.6,784.8,272.9,784.9,272.1L784.9,272.1z M785.3,247.1c-0.1,0.2-0.2,0.3-0.3,0.4
	c-0.1-0.1-0.2-0.1-0.2-0.1c-1.1,1.7-1.8,2.6-2.3,3.1c-0.6,0.3-1.2-0.2-2.3-0.8c-1-0.4-2.1-0.1-3.2,0.6c-1.5,0.8-2.7,2.5-2.3,3.3
	c0.7,1.3,5.5-0.3,6.6,2.1c1.1,2.3,1.1,2.6,3.3,2c0.4-0.1,0.8-0.3,1.2-0.5c0.8-0.4,1.6-1.2,2.1-2.1h-0.2c0.7-1.2,1-2.4,0.7-3.3v-0.1
	h0.5v-0.2C788.1,249.7,785.3,247.1,785.3,247.1z M733.9,294.2c0.1-0.3,0.2-0.7,0.2-1.2c0-1.3,0.1-2.6,0.3-3.9H734
	c0.2-1.4,0.6-2.6,1.1-3.4h0.3c0.1-0.2,0.2-0.3,0.3-0.4c1.1-1.5,0.6-3.9-1.1-3.6c-0.7,0.1-1.3-0.3-2-1.1H732c-0.9-0.9-1.8-2.2-3-3.4
	h0.7c-0.4-0.4-0.9-0.8-1.3-1.2c-1.7-1.4-3.2-2.5-4.7-3.9H723c-0.9-0.9-1.8-1.8-2.8-3.1c-0.1-0.1-0.2-0.2-0.3-0.4h0.7
	c-1.7-2.1-3.7-3.7-5.3-5.1h-0.7c-0.7-0.6-1.4-1.2-2-1.8c-0.7-0.7-1.6-1.2-2.4-1.6h0.9c-1.4-0.8-2.9-1.1-3.6-0.9
	c-0.3,0.1-0.5,0.2-0.5,0.3c-2.4,0.8,4.1,6.2,4.8,6.9c0.6,0.8,6.6,6.7,6.6,9.6c0,2.8,1.9,11.7,3,12.7s8.6,2.8,9.5,4.9
	c0.8,1.8,2.4,2.4,2.8,0.7h0.2V294.2z M775.1,199.8c-0.3,0.1-0.6,0.2-0.9,0.5c-3,1.3-4.6,8.6-2.1,8.3c0.3,0,0.6-0.2,0.9-0.4
	c1.1-0.6,2.2-2.4,2.8-4.2h-0.3c0.4-1.4,0.5-2.7,0.2-3.4h0.5C776.1,200,775.7,199.7,775.1,199.8L775.1,199.8z M721.1,251.4
	c-0.8-1.4-2.8-3.6-4.1-4.9h-0.7l-0.7-0.7c-1.8,0.3-1.8,4.1-0.9,5.4c0.9,1.3,2.7,0.5,3.8,5.2c1.1,4.6,3.3,9.3,4.2,11.1
	c0.9,1.8,4.7,4.4,6,5.7c0.6,0.7,1.5,0.5,2,0c0.4-0.2,0.8-0.6,0.9-1.1h-0.4c0.1-0.3,0-0.7-0.2-1c-0.4-0.7-1-1.5-1.5-2.4h0.5
	c-0.7-1.2-1.4-2.4-1.6-3.5c0-0.5-0.2-1-0.3-1.6h-0.5c-0.3-1-0.7-2.2-1.3-3.4h0.5c-0.4-0.9-0.9-1.8-1.4-2.7c-0.6-1-1.1-1.7-1.6-2.4
	h-0.6c-1-1.2-1.9-2-2.6-3.3l-0.1-0.1h0.5C721.2,251.6,721.2,251.5,721.1,251.4L721.1,251.4z M784.6,300.4c-0.3,0.1-0.5,0.3-0.8,0.6
	c-1.3,2.1-3.7,4.1-3.5,5.9c0.2,1.5,1.6,0.9,2.8,0.1c0.4-0.3,0.9-0.6,1.3-0.9h-0.1c0.5-0.4,0.8-0.7,0.8-0.7s3.5-0.5,3.5-2.3
	c0-0.1,0-0.2-0.1-0.4h0.5C788.9,301,786,299.1,784.6,300.4L784.6,300.4z M786,238h-1c-0.2-0.1-0.5-0.2-0.8-0.2
	c-0.9-0.1-3.8,5.4,0.2,5.1c0.7,0,1.2-0.3,1.6-0.6C788,241.5,787.6,239.1,786,238z M844.9,399.7c-0.6-0.1-1.7,0.6-2.8,1.3
	c0,0-0.1,0.1-0.2,0.1c-1.1,0.7-2.2,1.4-2.6,1.3c-1.1-0.3-3.5-1.3-3.5-1.3c-0.1,0.1-0.2,0.2-0.2,0.3c-0.1,0-0.2-0.1-0.2-0.1
	c-2.4,2.8,2.5,2.8,1.8,5.7c-0.7,2.8,3.3,1.8,4.4,1.3c0.5-0.3,1.4-1.8,2.1-3.5h0.3c0.9-1.8,1.5-3.9,1.2-4.8
	C845.2,399.9,845.1,399.8,844.9,399.7z M860.3,365.7c-0.3-1.1-0.7-2.2-1.1-3.4h0.5c-0.6-1.7-1.3-3.4-2.1-5.1h-0.5
	c-0.5-1.2-1.1-2.3-1.6-3.4h0.5c-0.7-1.3-1.3-2.6-1.8-3.5c-0.3-0.5-0.5-1.1-0.8-1.6h-0.5c-0.5-1.2-0.9-2.3-1.3-3.4h0.5
	c-0.6-1.9-0.9-3.7-1-5.1h-0.4v-0.8c0.2-1.5-2.8-1.9-5.5-2.6h1.6c-2-0.4-4.1-0.9-5-1.7c-0.8-0.7-1.3-1.9-1.7-3.4h-0.5
	c-0.3-1.1-0.5-2.3-0.7-3.4h0.4c-0.2-1.3-0.5-2.5-0.9-3.5c-0.2-0.6-0.5-1.1-0.7-1.6h-0.5c-0.7-1.2-1.5-2.3-2.4-3.4h0.6
	c-0.8-0.9-1.6-1.9-2.5-3c-0.4-0.6-0.8-1.3-1.2-2.1h-0.5c-0.5-1.1-0.9-2.3-1.2-3.4h0.5c-0.6-1.9-1.1-3.5-1.4-3.2
	c-0.1,0-0.2,0.2-0.2,0.3c-0.1-0.1-0.2-0.1-0.2,0c-0.7,0.5-2.6,8-1.1,10.3s-0.7,6.9-1.8,10.1c-0.8,2.2-2.3,1-4-0.4h0.7
	c-0.8-0.7-1.6-1.4-2.3-2c-1.7-1.2-3.8-2-5.4-3.1H814c-0.4-0.3-0.8-0.6-1.1-1c-0.5-0.6-0.4-1.5-0.1-2.4h0.3c0.4-1.6,1.6-3.6,1.8-5.1
	h-0.4c0-0.4,0-0.7-0.2-1c-1.1-1.8-7.1-0.2-7.7-0.2c-0.5,0-1.4-1.5-2.3-2.2h0.7c-0.4-0.4-0.9-0.7-1.3-0.7c-0.2,0-0.3,0.1-0.4,0.3
	c-1,0-1.1,2.9-1.1,4.3c-0.1-0.2-0.2-0.3-0.4-0.5h-0.6c-0.6-0.7-1.4-1.7-2.3-2.8c-2-2.3,0.2,1.6-1.8,3.9s-1.3,1.5-2.2,4.1
	c-0.8,2.3-2.4,1.8-4.1-0.1h0.7c-0.4-0.3-0.7-0.7-1.1-1.2c-1.4-1.8-2.4-1.4-3.3-0.8c-0.5,0.3-1,0.8-1.5,1.1c-1.3,0.8-2.4,4.9-3,6.1
	c-1.4,0.3-6.7-1.9-7.8-0.7v0.1c-0.2,0.1-0.3,0.1-0.4,0.2c-1.1,1.3,0.2,9.6,0.2,10.6c0,0.1-0.1,0.1-0.1,0.2c-1.2,0.4-4.4,0.3-5.6,1.4
	c-0.1,0.1-0.2,0.1-0.2,0.2c-0.1,0-0.2,0.1-0.2,0.1c-1.6,1.3-4,0.5-5.5,0.5c-1.6,0-6.8,4.9-8.6,6.2c-1.8,1.3-4.8,5.9-3.9,7.2
	c0.9,1.3,5.6,4.4,4.5,4.9s-1.8,4.1,0.9,7.2c2.6,3.1,1.8,3.9,2,5.4c0.2,1.6,1.3,2.1,3.1,4.7s-3.1,4.6-3.7,6.2
	c-0.7,1.6,1.6,3.9,2.8,5.2c1.3,1.3,4.7,0.5,6.6-0.3c2-0.8,4.2-2.8,5.5-3.1c1.3-0.3,8.8,2.2,8.8,2.2s0-0.2,0.1-0.4
	c0.2,0.1,0.3,0.1,0.3,0.1V383h-0.3c0.1-0.7,0.3-2,0.6-3.4h0.4c0.4-1.9,1-4,1.8-5l0.1-0.1h-0.1c1.8-1.4,6,0.1,6,0.1s2-1.5,7.3-2.8
	s3.1,1.3,5.1,2.1c2,0.8,4.6,1.3,6.2,2.6c1.5,1.3,0,4.4-0.2,5.7c-0.2,1.3,3.7,0.8,4-0.5c0.1-0.6,0.4-1.3,1-1.9h0.2
	c0.5-0.7,1.3-1.5,2.5-2.3c1.8-1.1,0.3,2.5,1.1,4.7c0.9,2.3,2.2-3.1,2.2-0.5c0,0.8,0.7,1.5,0.9,2.3s3.1,1,3.1,3.6s0,4.1,0.7,4.7
	c0.7,0.5,4.2,0,5.7,3.1c0.8,1.6,1.5,1.6,2.1,1c0.7-0.3,1.4-1.6,1.9-2.3c0-0.1,0.1-0.1,0.2-0.1c1.2-0.4,3.5,1,4.3,1.9
	c0.4,0.4,1.1,0.1,2-0.5c0.5-0.3,1.1-0.7,1.7-1.1c0.9-0.6,1.9-1.1,3-1.5c3.3-1,2.9-0.8,3.7-2.3c0.3-0.5,0.5-1.3,0.9-2.2h0.3
	c0.5-1.4,1-3.3,1.9-5.1h-0.3c0.2-0.5,0.5-1,0.8-1.5c0.4-0.6,1-1.2,1.6-1.9h0.2c1.5-1.5,3.4-3.3,5.1-5.1h-0.2c1-1.1,1.8-2.3,2.2-3.4
	h0.3c0.2-0.6,0.4-1.2,0.4-1.7c0-0.9-0.2-2.1-0.6-3.4h-0.9V365.7L860.3,365.7z M768.1,260.1h0.6C768.7,259.9,768.5,260,768.1,260.1z
	 M390.3,59.2h-0.5c-0.4-0.8-0.7-2-1-2.8c-0.1-0.2-0.2-0.3-0.2-0.6h0.5c-0.5-1.2-1.1-3.5,0-4.6c0.2-0.1,0.4-0.2,0.7-0.2
	c2.5-0.3,6.9,2.8,7.8,1.5c0.4-0.1,0.6-0.4,0.6-0.9v-0.9h-0.4c0-1.2,0-2.4,0.2-3.4h0.4c0.1-1.1,0.3-2.2,0.7-2.9
	c0.5-0.9,1.3-1.7,1.7-2.2h-0.3c0.1-0.2,0.1-0.5-0.2-0.6c-0.9-0.5-2.1,0.7-3.1-1.9c-0.1-0.3-0.2-0.6-0.2-0.9h0.5
	c-0.5-2.3,1.1-3.9,2-4.9l0.2-0.2h-0.2c0.7-0.7,1.9-2,3.2-3.4h0.2c1.6-1.6,3.3-3.3,4.8-4.3c0.4-0.3,0.8-0.5,1.2-0.6
	c1.8-0.6,3.3-2.2,3.7-3.6h0.3c0.5-1.1,0.4-2.1-0.6-2.5c-1.9-0.8-5.6-2.1-8.4-0.3c-0.4,0.2-0.9,0.5-1.2,0.9c-2.8,2.8-4.4,5.3-7.7,4.5
	c-1.3-0.3-2.2-1.4-2.9-2.6h0.5c-1-1.6-1.6-3.7-2.6-5.1h-0.6c-0.7-0.9-1.1-2.1-1.4-3.4h0.5c-0.4-1.9-0.5-3.8-0.9-5.1H387
	c-0.2-0.8-0.7-1.3-1.5-1.1l-2.8,0.5c0,0-3.3-0.7-5.3-0.2c-0.8,0.2-1.4,0.5-2.1,0.8h-0.2c-1.3,0.7-2.3,1.4-3.4,1.1
	c-3-0.8-5.7,1.1-6.5,1.3c-4.9,1.3-9,0.3-11.3-0.3c1.8,0.1,4.5,0.2,6.8-0.2c3.2-0.6,8.6-1.8,11.2-2.4c2.6-0.5,0.5-1.7-0.4-1.9
	c-1.4-0.2-3.2-0.6-5.1-1h1.6c-2.9-0.6-6.1-1.4-8.8-1.6c-3.2-0.2-5.3,0.9-8.5,1c-2.6,0.1-5.5,0-8.1,0.5h1.2c-2.1,0.2-4.1,0.7-5.7,1.9
	c-0.9,0.7-2,1.2-3,1.5h-0.4c-1.5,0.4-2.7,0.6-2.9,0.8c0,0,0,0.1-0.1,0.1c-0.2,0.1-0.3,0.1-0.3,0.2c-1.6,2.1-3.1,7.2-4.6,5.8
	c-0.5-0.5-0.9-1.2-1.2-1.8h0.5c-0.7-1.4-1.2-2.8-2.6-1.9c0,0,0,0.1-0.1,0.1s-0.2,0.1-0.3,0.2c-1.9,1.4-0.2,4.8-1.8,7.2
	c-0.2,0.3-0.4,0.5-0.7,0.7c-2.1,1.3-5.3,0.9-6.4,0.2c-1.4-0.8-2.7-1.5-8.1-1.2c-3.5,0.2-7.1,1.2-9,2.4c-1.3,0.7-2,1.6-1.5,2.4
	c0.4,0.8,0.2,1.4-0.3,1.9c-0.9,0.5-2.1,0.7-2.6,0.1c-0.1-0.1-0.2-0.1-0.3-0.2h-1.1c-0.6,0.2-1.3,0.5-1.8,0.9
	c-1.2,0.7-2.3,1.8-2.1,2.8c0.3,2.1-0.7,4.5-3,4s-3.9,1.2-4,2.9c0,0.4-0.4,0.8-0.8,1.1c-1.6,0.9-4.2,1.5-4.4,1.5
	c-0.3,0-3-0.1-4.3,0.4h0.9c-1.5,0.2-2.8,0.7-1.5,1.8c1.6,1.4,2.6,0.5,4.6,1s3.6,4.3,4.7,4.8c0.9,0.4,2,0.2,2.7-0.5
	c0.4-0.2,0.7-0.5,1-0.8c0.3-0.5,0.8-1.8,1.1-2.9h-0.3c0.2-0.8,0.4-1.5,0.4-1.5s0,3.5,1.6,4.1c1.6,0.7,5.6-0.5,6.7-0.3
	s7.4,1.2,9.2,2.2c1.8,1,6,1.7,7.2,4c1.2,2.2,1.4,10,2,10.8c0.2,0.2,0.5,0.1,0.9-0.2c0.5-0.2,1.4-1.2,2-2.1h-0.2
	c0.4-0.5,0.7-1,0.9-1.3c0.5-0.9,3.4-0.3,4.3,0.9c0.9,1.2,3.1,4.1,3,5.3c-0.2,1.2-0.5,3.1-1.4,2.4c-0.8-0.7-2.1-0.5-1.6-1.9
	c0-0.1,0.1-0.2,0.1-0.3h0.3c0.5-1.4,0.8-4.3-0.3-4.3h-2c0,0-1.2-0.4-2.3,0.5c-0.5,0.3-1,0.8-1.5,1.6c-1.3,2.6-0.3,5.2,0.7,5.2
	c0.9,0,3.1,0,3.1,0.7s-2.3,2.8-2.2,4c0.2,1.2,1.9,5.3,2.5,6.2c0.5,0.8,3.4,1.7,4.1,1.9h0.1c-0.2,0.1-0.5,0.2-0.7,0.4
	c-0.5,0.2-0.9,0.6-0.6,1.1c0.7,1.2,1.8,4.1,3.2,4.8c1.5,0.7,5.6,3.8,6.2,5.1c0.5,1.4,3.8-1,4.4-1.2c0.7-0.2,0.5,3.6,2.4,3.8
	c1.3,0.1,2-0.1,2.9-0.8c0.1-0.1,0.2-0.1,0.2-0.2c0.3-0.3,0.7-0.6,1.1-0.9c0.7-0.7,1.1-1.6,1.2-2.5h0.4c0.2-1,0.1-2.1,0.2-3
	s0.1-1.7,0.4-2.1c0.2-0.1,0.5,0,0.9,0.1c1.8,0.5,2.7-0.3,2.5-2c0-0.5-0.2-1-0.3-1.5h0.5c-0.3-1-0.5-1.9,0.2-2.5
	c0.2-0.1,0.5-0.2,0.9-0.2c1.4-0.3,2.5-1,3.4-1.6c0.3-0.2,0.5-0.3,0.8-0.5c0.6-0.4,1.2-0.7,1.8-0.7c1.8,0,6.6,0.9,7.1,0
	c0.2-0.4,0.9-1.7,1.6-3h0.3c0.7-1.2,1.4-2.4,2.1-3c0.1-0.1,0.2-0.2,0.3-0.2c1.5-0.2,5.4,0.7,8.9,0s7.2-3.3,8.5-3.1
	c1.2,0.2,4.2,0.2,3.2-0.9c-0.3-0.3-0.7-0.8-1.1-1.3h0.6c-0.9-1.1-1.9-2.4-3.4-2.4c-1,0-1.6-1.4-1.9-2.7h-0.5
	c-0.2-1.2-0.2-2.3,0.1-2.3c0.5,0,5.5,2,5.3,3.8c-0.1,1.7,0.8,3.9,3.5,3.3c0.5-0.1,0.8-0.3,1.1-0.5c1.9-0.9,1.5-3.1,1-3.7
	C390.5,59.6,390.4,59.4,390.3,59.2L390.3,59.2z M277.1,215.3c-1.7-0.5-3.7,0-5.1,0.3c-0.2,0.1-0.6,0.2-0.9,0.5
	c-1.6,0.9-4.5,3.9-4.5,3.9s2.4,0.5,3.9,0.5c1.6,0,2.5,1,3.8,1.8s3.7-1,4.6-1c0.7,0,1.6,2,2,1c0.3,0.1,0.5-0.2,0.6-1.3h-0.4
	c0.1-1.5-0.4-2.6-1.2-3.4h0.7C279.6,216.3,278.2,215.6,277.1,215.3z M284.8,243.1h2.3C286.4,242.9,285.6,242.9,284.8,243.1z
	 M296.9,132.4c-0.2-0.2-0.4-0.2-0.7,0H296.9z M837.5,290.9c-0.4-0.4-0.9-1.1-1.3-1.9h-0.6c-0.9-1.4-2-2.8-3.8-3.4h1.1
	c-0.4-0.2-0.7-0.3-1.2-0.4c-3.3-0.8-4.2-2.1-7.7-4.1l-1.2-0.6h-1.2c-3.9-1.2-9.5-1-9.7,0.1v0.1c0,0-0.1-0.1-0.2-0.1H811
	c-0.4-0.3-0.9-0.6-1.8-1c-2.6-1-4.6,0-5.3-1.8l-0.3-0.6h0.5c-0.6-1.2-1.6-1.6-2.8-0.7c-0.5,0.2-1,0.7-1.6,1.3
	c-1.7,1.9-2.4,2.1,1.3,2.9s4.9,0.8,3.3,2.8c-1.6,2.1-2.6,4.6-1.3,4.9c1.3,0.2,5.3-1,5.7,0s-0.9,1.3,3.5,2.1s5.3,2.6,6.2,3.6
	c0.7,0.8,2.6,3.3,2.3,4.1h-0.1c-0.5,0-1.1,0.2-1.6,0.6c-1.3,0.7-2.3,2.3-1.2,2.5c1.3,0.3,5.3-0.8,5.5,0s2.4,5.7,4.6,5.4
	c0.4,0,0.7-0.2,1-0.5c0.1,0,0.2,0,0.2-0.1H829c0.9-0.8,1.6-2.1,2.3-3.4h0.3c0.5-1,0.9-2,1.4-2.5c0.1-0.1,0.2-0.2,0.4-0.3
	c1.7-0.9,4.8-1.1,5.2,0.8c0.4,2.3,1.8,4.7,4.4,6.2c2.5,1.4,5.3,2.9,5.8,2c0.3,0,0.5-0.2,0.5-0.4c0.1-0.4-0.1-1.3-0.4-2.4h-0.5
	c-0.4-1.2-1-2.5-1.6-3.4h0.6c-0.4-0.6-0.8-1-1.2-1.2c-1-0.5-2.6-2.2-3.6-3.9H842c-0.6-1.1-1.1-2.1-1.1-2.8c0-0.2-0.1-0.4-0.2-0.6
	h0.5C841.1,292.7,838.8,292.1,837.5,290.9L837.5,290.9z M589.4,314.6h-0.6c-0.3-0.5-0.7-0.8-1.1-1c-2.8-0.9-3.1,3.4-5.3,6.2
	c-1.5,1.9-3.1,3.6-4.2,4.4c-0.4,0.2-0.6,0.3-0.9,0.2c-0.4-0.1-1.4,0.2-2.5,0.9c-1.5,0.9-3.1,2.6-2.1,5.1c1.6,3.9,1.3,7.8-0.2,9.6
	c-1.5,1.8,1.3,7,0.9,9.8c-0.4,2.8,0.7,4.6,3.8,4.6c1.5,0,2.6-0.3,3.4-1.1c1.1-0.7,1.8-1.9,2.5-3.8c0.1-0.3,0.2-0.6,0.2-0.8H583
	c0.4-1.2,0.7-2.3,1-3.4h0.4c0.4-1.8,0.8-3.5,1.5-5.1h-0.3c0.4-0.9,0.8-2.1,1.2-3.4h0.4c0.5-1.8,1-3.6,1.3-5.1h-0.3
	c0.2-0.8,0.4-1.4,0.5-1.7c0.2-0.4,0.4-1,0.5-1.7h0.3c0.4-1.4,0.9-3.3,1.1-5.1h-0.4c0.1-0.9,0.2-1.8,0.1-2.5c0-0.3,0-0.6-0.1-0.9h0.5
	C590.6,317.9,590.1,315.9,589.4,314.6L589.4,314.6z M242.7,85.3c-0.3,0.1-0.6,0.3-0.8,0.6c-0.6,0.8,2.4,1.8,3.2,0.9
	c0.2-0.1,0.4-0.2,0.5-0.3C246,85.6,244.1,84.1,242.7,85.3L242.7,85.3z M250.8,87.3c-0.4,0.1-0.6,0.2-0.7,0.4
	c-1.7,0.8,0.3,2.5,1.6,1.9c0.2-0.1,0.3-0.2,0.4-0.3C253.6,88.6,252.9,86.6,250.8,87.3L250.8,87.3z M828.7,139
	c-0.3,0.1-0.5,0.2-0.7,0.4c-1.4,0.7-1.9,3-1.9,3.7c0,0.3-0.9,0.7-2,1.3H824c-0.3,0.2-0.6,0.4-0.9,0.5c-1.2,0.7-2.1,1.6-1.2,2.6
	c2,2.1,4,0.5,7,0.3c3.1-0.3,6-1.3,6-1.3s2.6,0.1,3.6-0.9c0.5-0.3,0.7-0.6,0.8-1.2h-0.4v-0.2c-0.7-2.6-5.5-2.9-6.4-2.6
	c-0.3,0.1-0.7-0.2-1.1-0.6h0.7C831.3,140.2,830.1,138.6,828.7,139L828.7,139z M257.9,221.5c-0.3,0.1-0.5,0.2-0.7,0.4
	c-1.6,0.8-1.1,4.8,1.2,4c0.3-0.1,0.5-0.3,0.8-0.5C261,224.4,259.8,221.1,257.9,221.5z M256.8,200.1c-0.4,0-0.7,0.2-0.9,0.4
	c-1.4,0.6-0.9,2.9,1.3,2.4c1.9-0.4,1.5-1.9,0.3-2.4h0.9C258,200.2,257.5,200,256.8,200.1L256.8,200.1z"/>
</svg>
