<?xml version="1.0" encoding="utf-8"?>
<!-- Generator: Adobe Illustrator 19.1.0, SVG Export Plug-In . SVG Version: 6.00 Build 0)  -->
<!DOCTYPE svg PUBLIC "-//W3C//DTD SVG 1.1//EN" "http://www.w3.org/Graphics/SVG/1.1/DTD/svg11.dtd">
<svg version="1.1" id="Layer_1" xmlns="http://www.w3.org/2000/svg" xmlns:xlink="http://www.w3.org/1999/xlink" x="0px" y="0px"
	 viewBox="0 0 1045 505" enable-background="new 0 0 1045 505" xml:space="preserve">
<path opacity="0.6" fill="#A6ADB2" enable-background="new    " d="M51.7,174.5c-2.6-0.2-5.3,0-5.7,1c-0.5,1,2.4,1.8,4.2,1.8
	s5.3-1.3,4.6-1.5C54.1,175.5,51.7,174.5,51.7,174.5z M411.3,355.4c-0.1-1.1-0.5-2.2-1.1-3.2h0.6c-0.9-1.6-2.3-3-3.2-3.5
	c-1-0.5-2.9-0.8-4.4-1.6h-0.9c-0.5-0.3-1-0.7-1.3-1.2c-0.5-0.8-1.3-1.5-2.2-2.2h0.7c-1.6-1.2-3.6-2.1-4.5-1.7
	c-1.3,0.5-3.5,1-5.3-0.2c-1.4-1-3.5-2.2-4.8-3.1h-0.8c-0.2-0.2-0.4-0.3-0.5-0.5c-1.1-1-4-1.8-5.3-1.8s-1.1-1-3.1,2.1
	c-1.2,1.8-0.9,2.9-1.3,3.4c-0.3,0.1-0.9,0.1-1.8-0.1c-1.6-0.3-1.6-0.4-1-0.8c0.2-0.1,0.4-0.3,0.6-0.4c0.7-0.4,1.6-1,2.3-1.9h-0.2
	c0.1-0.2,0.2-0.3,0.3-0.5c0.8-1.2,0.9-2.2,0.7-2.9h0.5c-0.3-1.3-1.7-2-3.2-1.5c-0.4,0.1-0.6,0.3-0.8,0.5c-1.6,0.8-0.5,2.2-3.8,2.9
	c-2.9,0.6-3.4-1-2.2-1.9h0.1c0.1-0.1,0.2-0.1,0.2-0.2c0.2-0.1,0.4-0.2,0.5-0.2c1.2-0.3,3-1.1,4.2-1.9c1.3-0.8,2.4-1.7,2.4-2.2v-0.6
	h-0.5c-0.2-1.3-0.7-3.1-2.1-3.1c-0.4,0-0.6-0.1-0.9-0.4h0.8c-1.1-0.4-1.2-2.4-3-5.1h-0.6c-0.1-0.2-0.2-0.3-0.4-0.5
	c-0.7-1-1.6-2-2.5-2.9h0.7c-2.3-2.4-4.8-4.3-6.8-4c-2.6,0.5-4.1,3-5.5,0.2c-0.2-0.5-0.5-0.9-0.8-1.3h-0.5c-1.1-1.5-2.2-2.1-2.8-3.3
	l-0.1-0.1h0.6c0-0.1-0.1-0.1-0.1-0.2c-0.9-1.5-3.1,0-3.8-0.8l-0.7-0.8c0,0-2.9,0.8-1.3-1.5c0.4-0.5,0.7-1.2,0.9-1.8H343
	c0.4-1.3,0.7-2.5,0.7-3.4h0.4c0.1-0.8,0-1.3-0.2-1.2c-0.1,0-0.2,0.2-0.3,0.3l-0.1-0.1c-0.7,0.3-1.8,3.9-2.8,3.6
	c-1.1-0.2-0.2-0.8-2.4-2.3c-0.2-0.2-0.5-0.2-0.7-0.3h0.9c-1.5-0.9-3.5-0.7-4.7,0h0.2c-0.9,0.3-1.5,0.8-1.5,1.4c0,0.9-0.5,1.6-0.8,2
	h-0.5c-0.2-0.3-0.7-1-1.1-2c-0.7-1.6-3.7-1.8-5.3-0.3c-0.7,0.7-1.3-0.1-1.8-1.1h0.5c-0.7-1.2-1.2-3-1.9-3c-0.5,0-1.2,0.3-2,0.9
	c-1,0.6-2.1,1.6-2.8,3c-0.9,1.8-0.8,4.3-1.1,5.1c-0.4-0.2-0.7-1.3-0.8-2.6h-0.5c-0.1-1.3-0.1-2.6,0-3.3v-0.1h0.4V301
	c0.2-1.5,2.7-4.1,0.9-4.6c-0.8-0.2-1.7,0.2-2.6,0.8c-0.9,0.6-1.8,1.4-2.5,1.8c-0.2,0.1-0.3,0.2-0.4,0.2c-0.3,0.1-0.8,0.3-1.3,0.7
	c-1.1,0.7-2.7,2.1-3.8,3.7c-1.2,1.9-1.9,3.1-3,3.9c-1.3,0.7-3.1-0.1-2.7-0.8c0.2-0.4-0.9-1.4-2-2.1h-0.9c-0.9-0.4-1.6-0.6-1.9-0.2
	c-0.1,0.2-0.4,0.4-0.6,0.6c-0.9,0.6-2.2,1.2-3.6,1.9c-1.9,1-3.7-1.3-4.2-2.3h-0.6c-0.4-0.7-1-1.2-1.2-3.4h0.4c0-0.3-0.1-0.8-0.1-1.2
	c-0.1-1.3,0-2.6,0.1-3.9h-0.4c0.2-1.3,0.4-2.4,0.6-3.4h0.3c0.2-0.7,0.3-1.2,0.5-1.7c0.3-0.9-0.4-2.2-1.2-3.4H284
	c-1.1-1.4-2.6-2.4-3.4-2.3c-1.6,0.3-3.1,2.1-4.6,1.8c-1.6-0.2-0.9-0.8-3.3-0.8c-2.1,0-0.8-0.4-0.2-2.1h0.3c0.1-0.3,0.2-0.6,0.3-1
	c0.2-1.3,0-2.7,0-4.1h-0.4c0.1-1.1,0.4-2.2,1.5-3.1l0.3-0.3h0.2c1.4-1.3,1.6-3.5,1.3-5.1h-0.5c-0.3-1-0.7-1.7-1.3-1.8
	c-1.6-0.3-4.4,0.8-6.4,0.5c-2-0.2-3.5,1.8-2.9,4.1c0.7,2.3-1.1,3.9-1.8,3.6c-0.7-0.3-1.6-1.6-4,0.5s-3.3,1.3-5.8-1
	c-0.3-0.3-0.5-0.6-0.9-0.9h0.7c-1.6-1.5-3.2-3.1-4.2-5.1h-0.5c-0.3-0.7-0.5-1.5-0.6-2.3c0-0.4-0.1-0.8-0.1-1.1h0.4
	c-0.2-1.8-0.3-3.5-0.3-5.1h-0.4c0.1-1.2,0.2-2.3,0.6-3.1c0-0.1,0.1-0.2,0.1-0.3h0.3c0.6-1.5,0.8-3.8,0.3-5.1h-0.5
	c-0.2-0.3-0.4-0.6-0.7-0.8c-0.9-0.3,0.2-1.7,1.4-2.6l0.9-0.6c0.2-0.1,0.5-0.3,0.7-0.3c0.4-0.1,0.9-0.4,1.4-0.7
	c1.4-0.9,3.1-2.6,3.5-3.4h-0.2c0.7-0.7,2.7-0.5,4.9-0.5c2.4,0,2.9,0,5.3,1.6c1.1,0.7,1.8,0.6,2.3,0.2c0.5-0.2,0.8-0.7,0.9-1.2h-0.4
	c0-0.2,0.1-0.4,0.1-0.5c0-0.8,1.4-1.3,4-1.1c2.6,0.3,5.9-2,6.6-1.3c0.7,0.8,2,3.9,3.3,2.8c1.3-1,1.8-2.8,2.2,0.3
	c0.5,3.1,1.6,7.7,3.5,8.5c2,0.8,0.9,3.9,2.9,4.1c0.3,0,0.6-0.1,0.9-0.3c1-0.3,1.8-2.3,1.9-4.1h-0.4c0.1-0.9,0-1.8-0.2-2.3
	c-0.1-0.3-0.2-0.7-0.4-1.1h0.5c-0.4-1.4-1-3.4-1.6-5.1H291c-0.4-1-0.7-1.9-1.1-2.3c-0.2-0.3-0.3-0.7-0.3-1.1h0.4
	c-0.1-1.3,1-3.1,2.4-4.2c0.2-0.1,0.3-0.2,0.4-0.3c0.1,0,0.2-0.2,0.4-0.2c0.2-0.1,0.5-0.3,0.7-0.4c1-0.8,2.1-2.1,3.1-3.4h0.2
	c1.3-1.6,2.5-3.3,3.3-4.1c0.2-0.1,0.4-0.3,0.5-0.4c2-1.1,5.4-1.7,4.3-3.4c-0.2-0.2-0.3-0.4-0.4-0.7h0.6c-1.2-1.8-2.2-3.7-2.3-5.1
	h-0.5c0-1.5,1.3-1,2,0s3.3-1.5,2.6-2.8c-0.1-0.2-0.2-0.4-0.2-0.6h0.5c-0.4-0.8-0.3-1.7,0.1-2.2c0.2-0.1,0.4-0.1,0.7-0.1
	c0.5,0.1,1-0.1,1.2-0.3c0.8-0.3,1-1.4,0.5-2.3c-0.1-0.1-0.1-0.2-0.1-0.3h-0.4c0.2-0.9,1.9-1.7,3.1-1.3c1.6,0.5,6.7,0.9,7.3-0.1
	c0.3-0.5-0.2-1.2-0.8-2h0.6c-0.7-1.1-1.8-2.3-1.8-3.5c0-0.6,0.2-1.1,0.5-1.6h-0.2c0.9-1.2,2.5-2.1,3.5-2.3c1.5-0.2,3.5,0,3.7-0.8
	c0-0.1,0.1-0.2,0.2-0.3h0.3c0.2-0.3,0.6-0.9,1.1-1.3c0.5-0.3,1-0.3,1.1,0.5c0.2,1.8,0,4.9,1.8,4.9s4-2.3,4.6-2.6
	c0.7-0.2,4.9-1.3,5.7-1.5c0.7-0.2,3.9-0.6,5.1-1.5c0.6-0.3,1-0.8,0.8-1.3c-0.3-0.8-0.6-1.6-0.9-2.3H345c-0.3-0.8-0.7-1.4-1-1.8
	c-0.7-0.8-1.4,0.2-2.2,1.5c-0.2,0.2-0.3,0.3-0.5,0.4c-0.7,0.4-1.4,0.3-1.8-0.2H339c-0.4-1,0.2-4.1-1.3-3.1s-1.8,2.1-2.6,1.5
	c-0.6-0.3-1.2-1.3-1.5-1.9h0.5c-0.2-0.4-0.4-0.7-0.4-0.7s2.2-1.3,0.7-3.6c-0.2-0.3-0.4-0.6-0.7-0.8h-0.8c-1.1-0.8-2.5-0.7-3.9,0
	h-0.1c-0.2,0.1-0.4,0.2-0.5,0.3c-2.2,1.3-2,1-4.6,1.8c-2.7,0.8-3.9,1.5-3.9,1.5s0.4-1.9,1.1-3.6h-0.3c0.3-0.7,0.7-1.3,1.1-1.7
	c1.4-1.4,5.6-1,7.3-2.2c0.3-0.2,0.5-0.3,0.7-0.5c0.1-0.1,0.2-0.1,0.2-0.2c1.6-0.5,4.2,1.2,4.2,1.2l0.3-0.3l0.1,0.1
	c0,0,0.4-0.5,0.9-0.9c0.3-0.1,0.5-0.1,0.5,0.3c0,1.3-0.4,4.6,0.9,4.6s5.1-2.1,3.5-2.6c-0.9-0.3-0.4-0.8,0.5-1.4
	c0.6-0.4,1.5-0.9,2.2-1.5c1.6-1,4.4,0.3,5.2-0.2c0.1-0.1,0.2-0.1,0.3-0.2h0.2c0.6-0.4,1.2-1.7,2-2.4c0.2-0.1,0.4-0.2,0.7-0.2
	c1.6,0,2.2,2.3,0,3.9s-2.4,5.4-3.5,6.4s-0.4,2.3,1.3,2.1c1.8-0.3,3.3,0.2,4.8-0.3c1.6-0.5,2.5,0.5,2.9,1.3c0.3,0.5,0.9,0.1,1.3-0.3
	h0.1c0.2-0.2,0.4-0.3,0.6-0.5c0.6-0.1,2.8-0.5,3.5,0.6c0.5,0.6,0.9,0.4,1-0.1h0.3c0.3-0.4,0.4-1.5,0-2.3c-0.5-0.9-1-1.9-1.6-2.8
	h-0.5c-0.2-0.3-0.4-0.7-0.5-1c-0.6-1.5-1.5-2.1-3.3-1.5c-1.4,0.4-2-0.2-2.8-0.8h0.7c-0.3-0.2-0.5-0.5-0.9-0.7c-1.1-0.8-2,1-1.1-0.8
	c0.8-1.7,1.3-2.3,1.9-3.6h-0.3c0.4-0.9,1.6-2.3,1.8-3.4h0.4c0.3-0.9,0.2-1.7-1.1-2c-2.8-0.8-3.7-1.3-4.2-2.8c0-0.1-0.1-0.2-0.1-0.3
	h-0.5c-0.7-1.1-2.2-2.6-3.4-3.4h0.8c-0.6-0.4-1.1-0.7-1.4-0.7c-0.9,0-5.1,0.9-5.3-0.4c-0.2-0.8-0.6-2.5-1.2-4h-0.5
	c-0.3-0.8-0.7-1.6-1.1-2.1c-0.2-0.3-0.6-0.8-1.1-1.3h0.6c-1.1-1.4-2.8-3.7-4-5.1h-0.6c-0.4-0.5-0.7-0.9-0.9-1
	c-0.7-0.5-1.5-0.3-3.5,2.8c-0.7,1.1-1.4,1.9-2.1,2.4c-1,0.6-1.9,0.6-2.8,0.2c-1.6-0.8-3.3,0-4.8-2c-0.8-1,0-1.7,0.8-2.3
	c0.7-0.5,1.4-1,1.1-1.6c-0.5-1-2.8-1.5-4.8-1.9h1.9c-1-0.2-2.1-0.4-3-0.5c-2.2-0.3-3.7-3.1-7.1-3.4c-3.3-0.2-7.3,0.5-8.4,0.5
	c-0.3,0-0.4,0.1-0.6,0.3c-0.9,0.2-1,1.9-1.4,4.6c-0.3,2.3,0.8,3.2,0.3,3.8c-0.1,0-0.2,0.1-0.3,0.1c-1,0.2-1.8,0.5-1.9,0.7
	c-0.7,0.3-0.7,0.7,0.7,1.4c2,1,4.6,5.2,4.6,5.2s0,2.3-1.6,3.6s-3.1,2.6-4,1c-0.1-0.1-0.2-0.2-0.2-0.3h0.6c-0.7-1.1-2-1.2-2.5-0.7
	c-0.5,0.1-0.8,0.5-0.5,1.2c0.7,1.6,2,2.3,2,3.9c0,1.5,2,5.4,0.7,6.7s-2.9,0.2-4,0.5c-1.1,0.2-2.2-2.1-1.3-2.6
	c0.2-0.1,0.2-0.3,0.3-0.6h0.3c0.4-1.1-0.4-4.1-0.4-4.1s-0.1,0.2-0.4,0.5c0-0.2-0.1-0.3-0.1-0.3s-1.1,1.8-1.8,2.4
	c-0.2,0-0.2-0.2-0.2-0.7c0.2-1.6-0.5-2.3-0.8-3.1h-0.5c-0.1-0.3-0.2-0.6-0.2-1c0-0.8-0.4-1.6-0.9-2.4h0.6c-0.7-1.1-2-2-3.2-1.7
	c-2,0.5-3.8,0.9-7.6,0.2c-3.7-0.8-5.3-1.3-8.4-3.1c-0.4-0.2-0.7-0.4-1-0.5H266c-0.9-0.3-1.6-0.2-2.2,0h-0.4
	c-0.3,0.1-0.6,0.2-0.9,0.2s-0.5-0.1-0.6-0.2h-0.6c-0.5-0.9-0.6-2.8-1.6-3.4h0.8c-0.2-0.2-0.5-0.4-0.8-0.5c-2-0.5-0.7-1.1-1.1-4.5
	v-0.2h-0.5c-0.3-1.9-0.8-2.3,0.4-3.4h0.1c0.5-0.5,1.4-1.3,3.1-2.5c1.4-1,2.3-1.8,3-2.6h-0.2c1.6-1.6,2.1-2.5,4.7-2.8
	c3.8-0.5,5.1,2.3,5.1,1c0-0.3,0.1-0.9,0.2-1.6h0.4c0.2-1.3,0.5-3,0.7-4c0.1,2.5,4.4,2.8,2.4,4.6s-0.9,2.1,0.7,2.1s4.4-1.8,4.4-1.8
	s3.5-1.8,4.4-0.3s0.9,3.1,2.4,3.1s4.6-1.9,2.3-3.7h0.7l-0.5-0.5c-2.9-1.8-4.6-1.6-6.4-3.6c-0.4-0.5-0.7-0.8-0.9-1h-0.8
	c-0.2-0.1-0.4-0.1-0.6,0h-0.3c-0.2,0.1-0.4,0.2-0.7,0.2c-1,0.3-1.6,0-1.9-0.2h-0.7c-0.2-0.2-0.3-0.3-0.5-0.3c-0.6,0-1.7,0.5-2.2-0.5
	s0.2-1.3,2.4-1.3c2.2,0,4.8,0.8,4.8,0.8s2.6-1,3.3-1.3c0.4-0.2,2-0.4,2.9-1.2c0.8-0.4,1.3-1.1,1.1-2.2c-0.5-1.7-1.8-2.1-2.7-2.5
	h-0.9c-0.2-0.1-0.2-0.2-0.3-0.3c-0.7-0.8,1.3-1.8,2.4-2.3s4.2,0,4.2,0s2,0.3,2-0.8h0.4v-0.2c0-0.5-0.1-1.2,0-1.5
	c0.1,0,0.3,0.1,0.5,0.2c1.3,0.8,0,3.1,2,2.6s2.4,0,3.5,0.8c1,0.7,0,3.4-1,4.2c-0.4,0.2-0.7,0.4-1,0.6c-0.9,0.5-1.6,1.2,0.3,1.4
	c2.4,0.3,4.2,0.3,4.2,0.3s0.1-0.1,0.2-0.3h0.2c0,0,1.6-1.8,2.2-3.4c0.1-0.2,0.2-0.4,0.3-0.5c0.6-0.2,1.3,0.4,1.9,0.8
	c0.7,0.4,3,1,2.2,1.8c-0.2,0.1-0.4,0.2-0.7,0.3c-1,0.3-1.7,0.7-2.3,1.1c-1.5,0.8-2,1.8-2.5,2.8c-0.2,0.5-0.4,0.9-0.7,1.1
	c-0.5,0.3-1.2,0.3-2.6-0.1H302c-1-0.2-1.9-0.2-2.5,0H299l-0.1,0.1c-0.4,0.2-0.7,0.5-0.9,0.9c-0.7,1.3-0.2,5.4,0.9,4.9s2.2-0.5,3.5-1
	s6.6,0.5,7.9,0.3c1.3-0.3,3.5,2.6,4.2,2.1s2,1,3.3,2.1c0.5,0.3,0.7,0.2,0.9-0.1c0.3,0,0.5-0.4,0.8-0.7h-0.2c0.4-0.3,0.9-0.3,1.8,0.5
	c2.4,2.1,1.1,2.1,2.4,2.1s4.2,0.3,4.2,0.3v-0.3h0.4c0,0,0.1-1.1,0.8-1.7c0.3-0.1,0.7-0.2,1.2-0.1c2,0.5,3.8,2.8,4,1.7
	c0.3,0.1,0.5,0,0.4-0.7s-0.1-1.2-0.1-1.8H334c-0.1-1.1-0.3-2.1-1.4-3.1c-0.1-0.1-0.2-0.2-0.4-0.3h0.8c-1.8-1.5-4.6-2.5-5-3.3
	c-0.4-0.6-0.6-1.2-0.5-1.8h-0.3c0.1-0.1,0.1-0.2,0.2-0.3c0.7-0.5,3.8,0.3,5.5,1.5c1.8,1.3,3.3,2.6,4.6,1.5c0.1-0.1,0.2-0.1,0.3-0.2
	c0,0,0.1,0,0.2-0.1c0.2-0.2,0.5-0.3,0.7-0.5c0.7-0.4,1.3-0.7,1.8-1.1c0.4-0.2,0.7-0.5,1-0.8l0.2-0.2h-0.2c0.7-1,1.8-2.6,1.8-2.6
	s-2-0.3-4-0.8h1.5c-1.9-0.4-4.1-1.1-4.6-1.8c-0.9-1.3-4-3.1-4.8-3.1s-2.9,1.5-3.9-0.2H327c0-0.1-0.1-0.2-0.1-0.3
	c-0.4-1-0.6-2.2-0.8-3.1h0.5c-0.3-1.6-0.5-2.9-1.1-3.1c-0.7-0.2-6.8-1.2-9.9-2h-1.3c-0.3-0.1-0.5-0.2-0.7-0.3
	c-1.1-0.6-4.8-2-7.2-3.1h1c-0.7-0.3-1.4-0.7-1.9-1c-2-1.3-4.8-3.1-6.6-3.1c-1.8,0-9,1-10.4,0.8c-1.3-0.3-5.3,0.5-6.8,0.8
	c-0.2,0-0.3,0.1-0.4,0.3c-1.6,0.3,2,3.6-1.3,4.4c-3.1,0.7-2.9,1.2-2.3-2.1h0.4c0-0.3,0.1-0.5,0.1-0.8c0.7-3.9-2.2-4.9-5.1-3.3
	c-1.8,0.9-4.1,1.7-5.5,2.5c-1.2,0.6-1.9,1.3-1.3,2.1c1.1,1.8-0.2,3.1,1.9,4.9c2.2,1.8,3.1,2.3,6,2.1c2.8-0.3,5.7,0.5,5.7,0.5
	s0,3.1-1.1,3.6c-0.2,0.1-0.5,0.2-0.7,0.3h-0.4c-0.4,0.1-0.9,0.3-1.2,0.6c-0.4,0.2-0.8,0.6-1,1.2c-0.2,0.5-0.5,1-1,1.3
	c-0.6,0.3-1.2,0.4-1.2,0c0-0.5,0.5-1.9,0.3-3.1h-0.4c-0.1-0.5-0.3-0.9-0.7-1.3c-1.6-1.3-2-1.5-3.7-0.2c-1.8,1.3-2,1.8-2.9-0.3
	c-0.2-0.6-0.6-1.1-1-1.6h0.6c-1.1-1.4-2.7-2.5-2.7-2.5s-0.9-1.3-1.9-2.6h-0.7c-0.3-0.4-0.6-0.7-0.9-1c-1.3-1.3-3.7-1-4,0.3
	c-0.2,1.3,0.5,2.6,1.3,4.9c0.7,1.9,1.1,4.3,0.4,5.2c-0.1,0-0.1,0.1-0.2,0.1c-0.4,0.1-0.6,0.2-0.9,0.4c-0.9,0.4-1,1.3-1.7,1.9
	c-0.1,0-0.2,0.1-0.2,0.1c-1.6,0.5-2.2-0.8-2.2-2.8v-0.5H251c-0.1-1.4-0.4-2.6-0.3-3.4h0.4c0-0.3,0-0.6,0.2-0.7c0.4-0.8-1.8,0.5-4,0
	c-1.1-0.3-2,0-2.5,0.4c-0.9,0.4-1.1,1.2,0.3,1.7c1.9,0.7,2.5,3.1,1.3,4.2c-0.1,0-0.1,0.1-0.2,0.1c-2,0.8-9.5,0-11.9,0
	s-6,0.8-6.6-0.8c-0.3-0.6,0-1.1,0.5-1.5c0.8-0.5,1.9-0.8,2.7-0.8c1.6,0,6.2,0.3,7.9-2.6h0.2c0-0.1,0.1-0.1,0.2-0.2
	c1.8-2.9-2.2-3.4-4-3.4c-1.2,0-2.3-0.4-3.6-1.5h-0.7c-0.4-0.4-0.8-0.8-1.2-1.3c-0.7-0.8-0.7-1.5-0.5-2.1h0.4
	c0.2-1.4,1.8-2.3,1.5-3.1c-0.4-1-2.6-0.2-4.6-0.2c-1.1,0-2.5-0.5-3.5-0.7c0.9,0,1.6-0.1,1.8-0.4c0.2-0.1,0.4-0.2,0.5-0.3
	c0.1-0.2,0.2-0.3,0.3-0.4h-0.2c0.6-0.5,1.3-0.8,1.4-1.6c0.1-0.4,0.2-1.1,0.4-1.8h0.3c0.3-1.3,0.6-2.7,0.6-2.7s-0.9-1.9-2.3-1
	c-1.5,0.9-1.9,1.4-3.2,1c-0.9-0.2-1.2-1.8-2.2-2.4H218c-0.4,0.1-0.7,0.3-1,0.5c-1.3,0.7-1.7,1.8-2.3,2.3c-0.1,0.1-0.2,0.2-0.4,0.3
	c-0.8,0.4-1.8,0.6-2.2,0.3c-0.6-0.3-4-2.6-4-2.6s-4.5-0.2-6.5-0.8h-1c-0.2-0.1-0.2-0.2-0.3-0.3c-0.3-1-1.5-2.8-4.7-2.4
	c-3.2,0.3-8.8,2.6-9.7,2.6c-0.7,0,0.3,1.3,0.2,1.8c-0.9,0-1.9-0.1-2.5,0.5c-0.4,0.2-0.8,0.5-0.9,1.1c-0.3,1,1.3,1,3.2,1s5,0,5.9-0.5
	s5.3-1.7,5.1-0.2s1.8,4,2.8,3.6c1-0.3,3.1-2.6,4.1-1.7c1.1,0.9,1.2,2.9,2.2,3.4s3.8,0.5,5.1,0s5-0.5,6.6-0.2
	c0.9,0.2,2.8,0.6,4.4,0.8c-0.4,0-0.6,0.1-0.8,0.3c-0.4,0.1-0.6,0.3-0.6,0.9c0,1.5,1.4,5.3,1.4,6.5c-0.2-0.1-0.2-0.2-0.3-0.3h-0.7
	c-0.8-1-0.9-2.2-1.5-3.4h0.5c-0.2-0.3-0.3-0.7-0.5-1c-1.1-1.5-2.9-1.3-5.1-1c-2.2,0.3-6,1-7.1,0.8c-1.1-0.3-0.2-0.3-2.6-1.6
	s-3.5-1-5.3-2.3h-0.7c-1.2-1.1-0.1-1.6-3-1.8c-3.1-0.3-2.9,1.8-6,1.3s-4,0.2-7,0c-3.1-0.3-4.6-0.5-5.1,1.3s-1.3,4.9-2.6,4.9
	s-2.9,1.8,1.3,2.1c4.2,0.2,1.8,2.6,5.5,2.3c3.1-0.2,5.9-0.3,7.3-1.4c0,0,0.1-0.1,0.2-0.1h-0.1c0.2-0.2,0.5-0.5,0.6-0.8
	c0.9-2.1,1.5-2.1,2-1.3c0.4,0.8,3.7,5.4,3.7,5.4s2.2,2,3.1,2.6c0.9,0.5-0.9,2.9-2.6,1.5c-1.8-1.3-5.1-1-6.4-2.3h0.8
	c-0.1-0.1-0.2-0.1-0.3-0.2c-1.3-1.3-4.9-1.8-6.4-1.6c-1.5,0.2-6.6-0.2-7.5-0.2c-0.3,0-0.7,0.3-1.2,0.6c-1.2,0.7-3,2.2-3,2.2
	s-0.2-0.3-0.4-0.8h0.5c-0.4-0.7-1-1.9-1.4-2.5c-0.3-0.5-0.7-0.3-1.1,0.1c-0.5,0.2-1,0.8-1.4,1.2h-0.1c-0.9,0.2-3.5-2.1-6.2-1
	c-0.8,0.3-1.2,0.6-1.6,0.8c-0.4,0.2-0.7,0.4-0.9,0.6c-0.6,0.3-1.3,0.5-3.1,0.4c-3.7-0.2-4.6-1-6-0.8l-1.3,0.2v0.2l-0.4,0.1
	c0,0,0.2,1-1.3,2.1c-1.5,1-2.6,2.3-3.7,0.8c-1.1-1.5-1.8-1.5-2.4-1.8c-0.2-0.1-0.3-0.2-0.5-0.3h0.9c-0.7-0.3-2-1.5-4.8-0.7
	s-5.9-3.8-6.8-3.8c-0.9,0-10.2,2.2-11.9,1.7c-1.3-0.4-4.5-1.8-6.8-2.3H108c-1.8,0.3-3.9,0.6-3.9,0.6s-1.4-0.3-2.6-0.6h-2.8
	c-0.9,0.3-2,0.5-2.8,0h-0.7c-1.1-1.3-3.1-2.1-3.1-2.1s-0.6,1.9-1.7,2.9c-0.1,0.1-0.2,0.1-0.3,0.2c-1.5,0.5-4.8,1.5-5.5,1
	s-6.4,2.1-6.4,2.1s-3.2,0.8-4.1,0.6c-0.3-0.1-1,0.1-1.7,0.4h0.2c-1.4,0.5-3.5,1.8-3.2,2.6c0.4,1,0,3.1,3.5,3.1s3.7,1.6,5.1,1.8
	c1.3,0.3,1.8,0,3.3,1.6c1.3,1.3,1.5,2.7,0.3,2.8h-0.7c-2-0.3-4.2-0.8-5.5-2.1l-1.3-1.3l-2.4,1.3c-3.1,0.3-7.1,2.1-7.1,2.1
	s1.1,2.3,3.1,3.9c2,1.5,6.9,1.5,6.9,1.5s2.9,0.2,4.4-0.8c0.2-0.1,0.5-0.3,0.7-0.4c0.1-0.1,0.3-0.2,0.4-0.3c1.1-0.6,2.3-0.4,3-0.2
	c0.9,0.3-0.6,3.6-3,3.4c-2.5-0.2-5.3,0.3-7.3,2.1c-1.9,1.8-3.7,2.1-2.8,4.1c0.9,2,4.2,4.6,4.4,5.9c0.2,0.8,1.8,0.2,3-0.6
	c0.7-0.4,1.3-1,1.6-1.5h-0.3c0.5-1.3,2.6-1.3,2,1.5s2.2,3.4,2.2,3.4s0-0.1,0.2-0.3c0.1,0,0.2,0.1,0.2,0.1s0.7-1.3,1.3-1.9
	c0.1,0,0.2,0,0.3,0.1c0.7,0.5,2.9,2.9,2.9,2.9s0.3-0.3,0.8-0.6l0.1-0.1c0.9-0.6,2.2-1.1,2.8-0.1c0.9,1.5-1.3,2.8-2.7,3.6h-0.1
	c-1.8,0.9-5.8,2.6-6.8,3.4c-0.1,0.1-0.2,0.1-0.3,0.2h-0.1c0,0.1-0.2,0.1-0.2,0.2c-0.6,0.4-1.5,0.9-2.4,1.4H79
	c-1.6,0.8-3.2,1.6-3.9,1.6c-1.1,0-1.6,3.1,0.4,2.8s7.5-2.6,9-3.4c1.6-0.8,2.1,2.6,6.1,0.2c0.7-0.4,1.3-0.8,1.8-1.3h0.1
	c2-1.7,3.2-3.5,4-4.3c0.1-0.1,0.2-0.1,0.3-0.1c1.1,0.3,1.3,2.1,3.1,2.6c0.8,0.2,1.6-0.1,2.3-0.6c1-0.5,1.9-1.5,2.6-2
	c0.2-0.2,0.5-0.4,0.7-0.8H105c0.6-1.2,0.9-2.8,0.1-2.6c-1.1,0.3-4,0-4,0s0.5-0.3,1.1-0.8h0.1c0.9-0.7,2.3-1.9,2.3-2.8
	c0-0.7,0.1-1.5,0.5-2.3h-0.2c0.4-0.6,0.8-1.2,1.6-1.6c1.8-0.8,1.8-0.3,0.7,2.9c-1,2.7,1.5,2,3,0.9c0.3-0.2,0.5-0.4,0.8-0.6
	c1.2-0.7,2.8,2.2,5,0.6c0.1,0,0.1-0.1,0.1-0.1c0.1-0.1,0.2-0.1,0.3-0.2c0.7-0.5,1.2-1.2,1.4-1.9h-0.3c0.6-1.6,0.6-3.1,1.4-3.1
	c1.4,0,3.8,2.8,5.1,1.8c1.4-1,4.7,2.1,6.9,2.1s9.6,2.5,11,2.5c1.3,0,5.3,1.8,5.5,5.2s1.6,3.1,2.9,3.1c1.3,0,4.4,1.3,4.4,2.6
	s-0.9,6.5,1.3,7.8s4.2,3.4,5.1,2.8c0.4-0.3,0.4-1.5,0.2-2.6h0.5c-0.2-1.2-0.7-2.5-1.3-2.8c-0.8-0.4-0.7-1.4-0.7-2.3h-0.5
	c0-0.3,0-0.5-0.2-0.8c-0.4-1,1.3-1,2,0.8c0.6,1.8,2.4,5.2,3.5,5.2s3.5,3.1,2.9,4.9c-0.7,1.8,0.2,5.5,2.2,5.5s4.9,2.5,5.7,2.8
	c0.9,0.2,1.4,2.5,1.4,3.3s1.7,4.2,1.7,6s-0.7,9-0.9,11.9c-0.2,2.8,1.8,7.7,4,10.3s1.8,8.4,3.1,9.4s4.6,3,6.6,2.7s3.3,1.5,5.1,5.1
	s3.5,9.6,4.9,10.1c1.3,0.5,3.5,2.3,2.4,3.6s-2.9,4.1-0.9,4.1s2.7-1.3,4.2,1s3.5,3.6,3.3,5.2c-0.2,1.5,1.8,2.1,2.6,2.3
	c0.9,0.2,2.7,4.6,4.6,3c0.2-0.1,0.4-0.2,0.6-0.4c0.7-0.7,0.6-1.5,0.2-2.3h-0.6c-0.8-1.3-2.5-2.6-3.5-3.4h0.7
	c-0.3-0.3-0.6-0.5-0.8-0.7c-0.9-0.9-0.5-2.5-1.3-4.4h-0.5c-0.4-0.7-0.9-1.5-1.7-2.3c-0.4-0.4-0.7-0.8-1.1-1.1h0.6
	c-1.8-2-2-3.6-3.1-5.1h-0.6c-0.2-0.3-0.4-0.5-0.7-0.8c-1-0.9-1.9-1.8-2.3-2.7h0.5c-0.7-1.1-0.9-2.2,0.4-3.2c1.8-1.1,2.1,2.2,2.9,4.3
	c0.9,2.3,5.5,7,7.5,9c2,2.1,5.5,9.3,6.6,9.3s4.2,4.1,4.2,4.1s1.8,3.4,1.1,4.4s0.9,4.9,2.4,5.9c1.6,1,8.3,1.1,8.6,4.9
	c0.1,1,1.2,5.9,3.6,5.9c2.4,0,5.6-1.3,6.3-0.5c0.6,0.7,2.4,3.5,3.7,2.3c0.2-0.1,0.5-0.2,0.7-0.5h-0.2c1.1-1.6,1.4-2.3,3.3-2.3
	c2,0,2.9,1.8,4,3.1s4.2,4.7,5.7,4.4c1.5-0.3,3.5,2.1,4.6,1.3c1.1-0.8,2.9,0.5,3.7,1c0.9,0.5,2.7,2.4,2.5,5.5s3,3.8,4.3,4.5
	c1.3,0.8,3.1,2.6,4.2,3.9s3.5,1.5,4.2,2.3s1.1,2.3,3.1,1c1.2-0.8,1.5-1.9,1.6-2.7h0.4c0.1-0.4,0-0.8,0-1c0.7-0.1,2.1-0.2,2.8,0.6
	c1.1,1,1.8,4.4,2.4,4.9c0.7,0.5,2,4.4,1.1,7.2c-0.9,2.8-0.7,5.7-1.6,5.7s-3.3,2.7-4.6,3.5c-1.3,0.8-3.5,5-3.3,6.3s0.9,5.4,0.5,7.2
	c-0.5,1.8-2.1,3.6-1.4,6.5c0.7,2.8,5.3,3.6,5.5,6.2s3.5,8.3,4,10.8c0.5,2.6,2.8,5.6,2.8,9.2s6.7,5.8,7.8,6.1
	c1.1,0.2,3.1,2.6,4.6,3.3c1.6,0.8,2.9,2.3,4,4.4s0.9,5.1,0.9,5.9s-0.7,8.8-1.3,13.4c-0.7,4.6,1.6,9,0.3,10.3
	c-1.3,1.3-3.8,1.8-2.5,3.4s-1.6,2.6-1.6,3.4s1.8,4.9,0.9,6.7c-0.9,1.8-1.6,4.4-2.2,5.9c-0.7,1.5-2.2,3.1-1.8,5.4
	c0.4,2.3-1.8,1.5-1.8,3.9s2,1.3,1.6,4.1c-0.4,2.8-1.6,3.6-1.6,5.7s1.1,4.9,1.1,5.7c0,0.8-1.1,3.4-2.6,5.4c-1.5,2.1-2.6,3.4-2.5,4.7
	c0.2,1.3,1.8,2.8,1.6,3.6c-0.2,0.8-2.2,3.4-2,5.2c0.2,1.8,2.2,1,2.6,2.3c0.5,1.3-2.6,2.3-1.3,3.6c1.3,1.3,3,1,2.6,4.1
	s2.4,3.9,3.1,4.7c0.7,0.8,2,2.6,3.1,2.6s2-0.8,2.4-3.5h0.4v-0.4c0.1-0.5,0.2-0.8,0.4-1c0.9-0.3,2.1,1.3,0.5,2.8
	c-2.2,2-3.3,3.1-2.6,3.1c0.7,0,4,2.1,5.7,2.1c1.8,0,5.3-1,6-1.3c0.6-0.2,5.3-1,5.9-1.8c0.1,0,0.2-0.1,0.2-0.1h-0.2
	c0-0.7-3.8-0.5-5.7-1.2c-0.9-0.3-1.9-1.2-3-2.2h0.7c-1.5-1.4-3-3.3-3.2-4.2c-0.1-0.2-0.2-0.5-0.2-0.9h-0.4c-0.2-1.1-0.1-2.4,0.4-3.4
	h0.3c0.2-0.6,0.5-1.1,1-1.4c1-0.7,2.8-2.4,4.3-3.7h-0.1c0.7-0.6,1.3-1.2,1.6-1.4c0.4-0.3,0.8-1.1,1.1-1.9h0.3
	c0.5-1.3,0.9-2.9,0.5-3.2c-0.7-0.5-4,0-4.4-0.8c-0.2-0.3-0.3-0.7-0.2-1.1h-0.4c0.2-0.6,0.7-1.3,1.9-2.2c0.4-0.4,0.9-0.8,1.2-1.2h0.2
	c1.6-1.7,2.5-3.6,3.3-4.3c0.2-0.2,0.5-0.5,0.9-0.8h-0.2c0.8-0.8,1.7-1.8,2.1-3c0-0.2,0.1-0.3,0.1-0.4h0.4c0.5-1.6-0.7-0.6-2-0.6
	s-2-2.8-2-4.1c0-0.1,0.1-0.1,0.1-0.2c1-0.1,3.4,1.1,5.3,1.5c0.9,0.2,1.2,0.1,1.4-0.2c0.7-0.1,0.6-0.7,0.4-1.4h-0.5l-0.3-1.2
	c-0.1-0.7,0-1.5,0.2-2.2h0.3c0.2-0.5,0.4-0.9,0.6-1.2c0.2-0.1,0.4-0.1,0.6,0.1c1.3,0.8,8.2-0.3,9-0.5c0.1,0,0.2-0.1,0.4-0.2
	c0.5-0.2,1.4-1.6,2.4-3.2h-0.2c0.6-1.1,1.2-2.2,1.6-2.8c0.2-0.2,0.2-0.4,0.4-0.7h0.3c0.7-1.2,0.8-2.3-0.2-3
	c-0.5-0.4-1.5-1.2-2.4-2.1h-0.7c-0.9-0.9-1.8-1.8-1.9-2.2c-0.1-0.2-0.1-0.7,0-1.2h0.4c0.2-1.4,0.9-3.6,1.3-4.9
	c0.2,1.7,0.4,7.3,2.9,8.2c3.1,1,4.8,1.5,7.7-1.5c0.5-0.6,1.1-1.2,1.6-1.7h0.2c1.9-2,3.3-3.6,3.8-5.1H366c0-0.2,0.1-0.3,0.1-0.4
	c0.1-1,0.4-2.1,0.7-3h0.4c0.3-0.9,0.7-1.7,1.3-2.1c0.5-0.3,0.9-0.3,1.3-0.7c0.5-0.3,1.1-0.8,1.8-2.2h-0.3c0-0.1,0.1-0.3,0.2-0.4
	c1.2-3,2.2-1.3,3.4-3h0.2c0.2-0.2,0.4-0.5,0.5-0.9c0.6-1.3,0.2-2.8-0.2-4.2h-0.5c-0.4-1.3-0.5-2.5,0.1-3.4h0.2
	c0.2-0.3,0.4-0.6,0.7-0.9c0.7-0.6,1.6-1.2,2.5-1.7c2.2-1.4,4.4-2.6,4.4-2.6s1.3-0.8,4-1.6c2.6-0.7,5.3-0.3,6.3-1.7h0.2
	c0.1-0.1,0.2-0.3,0.3-0.4c0.6-1.1,1.2-3,2-4.7h-0.3c0.3-0.7,0.6-1.3,1-1.8s0.7-1.1,1.1-1.7h0.3c1-1.6,1.8-3.6,1.2-4.5
	c0-0.1-0.1-0.3-0.1-0.6h-0.4c0-0.9,0.4-2.1,0.7-3.4h0.3c0.5-1.8,1.1-3.7,1-4.5c0-0.2-0.1-0.4-0.2-0.6h-0.5c-0.2-0.9-0.6-2.1-0.5-3.4
	h0.4c0-1.4,0.4-2.9,1.9-4.3c0.3-0.3,0.5-0.6,0.9-0.8h-0.2c1.1-1.1,2.1-2.3,3-3.4h0.2c1.7-2.1,3-4,3.2-4.8c0-0.1,0-0.2,0.1-0.3h-0.4
	c0.3-0.8,0.7-2,1.2-3.4h0.3c0.7-1.8,1.3-3.7,1.3-5.1h-0.4v-0.6L411.3,355.4z M296.8,199h0.2c0.4-0.4,0.7-0.7,1-0.9
	c0.1-0.1,0.2-0.1,0.3,0c0.6,0.5,5.3-0.8,6.2,0.5c0.9,1.3-0.9,1.5-3.1,2.6c-2.2,1-2.9,0.8-3.7,2.1c-0.2,0.3-0.5,0.5-0.8,0.7
	c-0.9,0.5-2,1-2.9,1.6c-0.5,0.3-1,0.6-1.4,1.1c-0.3,0.3-0.6,0.6-1,0.9v0.1c-1.3,0.9-2.8,1.2-3.1,0.3c0-0.1-0.1-0.2-0.1-0.3h0.5
	c-0.2-0.5-0.3-0.8-0.2-0.9c0.1,0,0.1-0.1,0.2-0.1c0.2-0.1,0.4-0.1,0.5-0.5c0-0.2,0.4-0.4,0.7-0.7c1.2-0.8,3-1.6,3-1.6l0.1-0.1
	c0.2-0.1,0.3-0.2,0.3-0.2s0.3-0.4,0.8-1h-0.2C294.7,201.3,295.9,199.9,296.8,199L296.8,199z M286.3,192.1c0.7-0.3,3.7-0.3,5.3,0
	c1.4,0.2,3.3,3.9,2.9,4.9c-1.1,0.1-2.7-1.1-2.7-2.8v-0.3h-0.2c-0.1,0.1-0.2,0.3-0.2,0.5c0-1.8-1.6,3.3-0.7,4.9
	c0.7,1.2-0.7,2.5-1.8,3.1h-1.3c-0.5-0.5-0.9-1.9-0.9-3.4h0.4v-1.2c0.2-1.7-0.6-3.3-2-3.9h-2.7l-0.6,0.3c-1.6,0.7-2.5,2.4-3.2,3
	c-0.9,0.8-0.9,5.2-0.7,6.2c0.2,0.8,0.2,3-0.7,4c0,0-0.1,0.1-0.2,0.1c-0.3,0.2-0.7,0.4-1.1,0.3c-0.3,0-0.5-0.2-0.7-0.3h1
	c-1.5-0.4-1.5-3.3-1.3-5.1h-0.4c0-0.3,0-0.6,0.1-0.8c0.1-0.6,0-1.6-0.1-2.6h0.4c-0.1-1.7-0.3-3.8,0.3-5.1H275c1-1.9,3.4-2.6,5.1-2.8
	C281.9,190.8,285.6,192.3,286.3,192.1L286.3,192.1z M266.2,186.2c0.6-0.3,1.5-0.5,2.8-1.1c2.9-1.3,6-4.9,7.3-3.4
	c1.4,1.5,3.8,3.4,5.3,3.6c1.3,0.2,0,2.6-0.8,3.4c-0.7,0.2-3.1-0.5-5-0.5c-2,0-1.5-1.5-2.4-1.3c-0.9,0.3-2.8,0.8-4.2,1.6
	c-1.3,0.8-3.5,0.6-3.5-0.8C265.8,186.9,265.9,186.5,266.2,186.2L266.2,186.2z M182.6,189.2c-1,0.2-1.7-2.5-1.9-3.9h-0.5
	c-0.2-1.3-2.4-1.3-3.5-2.1c-0.4-0.2-0.8-0.8-1.2-1.4h0.6c-0.7-0.9-1.3-2-1.3-2.5h0.2c0.7,0.3,2,1.8,2.6,1.8s4,3.1,4.8,4.1
	S183.3,188.4,182.6,189.2L182.6,189.2z M350.4,432.2c0-0.1,0-0.1,0.1-0.2c0.1-0.2,0.1-0.1,0.2,0.2H350.4L350.4,432.2z M207.6,99.1
	c1.2,0,4.1-1.2,5-0.3c0.9,0.9,3.1,0.2,3-0.7c-0.1-0.3,0-0.7,0-1.3h0.4c0.1-1.3,0.4-3.4-0.9-3.5c-1.8-0.2-4.3,1.9-6.9,2.9
	c-0.2,0.1-0.4,0.2-0.5,0.3C206.1,97.3,206.4,99.1,207.6,99.1z M230.5,96.5c1.8,0,5.6-1,5.9-0.2c0.3,0.9-0.2,1.6,1.9,1.9
	c2.1,0.4,3,0.7,4.1,0.7c0.8,0,0.9-1,0.5-2.1h0.5c-0.2-0.6-0.5-1.3-0.9-1.9c-1.1-1.5-0.7-1.4-3.4-2.2c-2.6-0.8-5.3-0.8-7-0.7
	c-1.2,0.1-2.5-0.1-3.4,0.6c-0.6,0.3-1,0.8-1.2,1.7C227.3,95.5,228.8,96.5,230.5,96.5L230.5,96.5z M255.8,113.9
	c1.9-0.3,4.7-0.7,6-0.8c0.2,0,0.5-0.2,0.6-0.3c1.1-0.4,1.3-2.7-0.1-2.9c-0.9-0.1-1.7-0.8-2.5-1.1h-1.7c-0.8,0.3-2.3,1.1-3.5,1.8
	c-1.3,0.8-2.4,1.7-2.1,2.3C252.7,113.3,253.9,114.2,255.8,113.9L255.8,113.9z M249.1,98.4c1.6,0.8,4.2,2.4,6.2,3.3
	c1.9,0.9,5.6,1,6.8,2.8c1.2,1.7,5.1,3.1,5.1,3.1l4.7,0.5c0,0,3.2-0.9,6.6-0.5c3.4,0.3,8.4,0.9,11.2,0.7c2.8-0.2,3.2-1.2,3.5-1.9
	c0.1-0.3-0.7-0.7-1.7-1h1.1c-1.6-0.6-4.6-1.3-5.5-1.2c-1.3,0.2-8.8,0.2-11,0s-5-0.2-6.8,0s-3.1-1.4-4.4-2.2c-0.5-0.3-1.3-1-2.2-1.7
	H262c-1.2-0.9-2.5-1.8-3.5-2c-1.8-0.3-1.4-0.3-5.1-1.4h-0.1h1.3c-0.2-0.1-0.5-0.1-0.8-0.2c-1.9-0.5-5-1.2-5-1.7
	c0-0.2-0.1,0.1-0.2,0.5c-0.2-0.1-0.2-0.2-0.2-0.3C248.3,94.6,247.4,97.5,249.1,98.4L249.1,98.4z M459.3,138.7h0.2
	c0,0,3.2-2.9,2.1-4.1c-0.1-0.1-0.3-0.2-0.4-0.3h-0.8c-1.4-0.9-3.4-1.5-4.6-1.7c-1.3-0.2-2.6,1.2-5.6,1.2c-1.3,0-2.3,0.3-3.2,0.4
	h-2.2c-0.2-0.1-0.4-0.2-0.6-0.4c-1.1-1.4-6-2.1-6.5-1.2c-0.6,1.2-1.7,1.2-0.6,3.6c1.2,2.4,2.1,3.8,3.1,3.6s4.6-0.3,5,1
	c0.4,1.4,1.6,2.6,4.1,1.7c2.5-0.9,4.6-1.4,5.2-2.4s4.6-1.2,4.6-1.2L459.3,138.7L459.3,138.7z M305.8,273c0.3-0.1,0.5-0.3,0.5-0.5
	c0.1-0.5-0.4-1.3-1.1-2.1h-0.7c-0.8-0.8-1.8-1.4-2.6-1.3c-1.1,0.2-3.2-0.8-4.9-2.1h0.8c-0.8-0.5-1.5-1.1-2.1-1.7
	c-1.8-1.8-5.1-1.8-6.4-1.8s-6.6,1.8-6.6,1.8v0.1c-0.2,0.1-0.4,0.1-0.4,0.1c-0.2,2.6,2,1.8,4.6,1.8s7.3-0.5,8.1,0.8
	c0.9,1.3,4.9,3.4,6,4.4S305.1,273.8,305.8,273L305.8,273z M330.2,280.6c0.7-0.4,1-1,1-1.7h-0.4c-0.1-1.2-1-2.3-2.2-2.1
	c-2,0.4-1.5,5,0.9,4.2C329.8,281,330,280.8,330.2,280.6z M713.1,310.5c-0.2-0.2-0.3-0.5-0.4-0.9h0.5c-0.7-1.8-1.3-5.5-3-4.6
	c-0.1,0-0.2,0.1-0.2,0.2h-0.2c-1.4,0.7-2.9,13.1-0.2,14.2c0.8,0.3,1.6-0.3,2.2-1.4h0.2c0.8-1.3,1.4-3.4,1.7-5.1h-0.4
	C713.4,311.8,713.4,310.9,713.1,310.5L713.1,310.5z M525.2,214.6c0.5-0.2,1-0.7,1.4-1.4s0.4-1.6,0.1-2.3h-0.5
	c-0.5-1-1.3-1.8-1.9-1.8c-2.1,0-3.1,3.9-1.8,5.2C523.4,215.2,524.3,215.3,525.2,214.6z M509.4,213.7c0.3-0.1,0.5-0.3,0.6-0.5
	c0.4-0.8-0.3-2.3-1.4-1.4c-0.4,0.1-0.8,0.5-1.2,1.4C506.9,214.1,508.7,214.4,509.4,213.7z M539,222.8c0.5,0.2,1.7,0.1,2.4-0.5
	c0.8-0.3,1.3-1,0.9-2.4c-0.1-0.2-0.2-0.4-0.2-0.5h-0.5c-1-1.8-2.6-1.8-3.2-1.8c-0.6,0-3.5-0.8-4.6,0c-0.8,0.6,1.3,2.3,2.4,2.8
	S538.1,222.5,539,222.8L539,222.8z M477,178.6c1.8,0.3,3.7-1.3,5.3-2c1.2-0.6,2.8-1.7,3.4-3.2h0.3c0.3-0.5,0.5-1.1,0.5-1.8
	c0-1.2-0.2-2.4-0.4-3.4h-0.5c-0.2-0.7-0.5-1.4-0.9-1.8c-0.9-1-2.4-1.3-3.7-1c-2,0.4-2.2,2.8-3.5,2.8h-1.1c-0.2,0.1-0.4,0.2-0.5,0.3
	c-0.7,0.3-1.1,0.9-0.9,2c0.5,1.8,1.3,3.1,0,3.9C473.7,175.3,475.2,178.4,477,178.6L477,178.6z M487.8,167.5c2.2,1,6.9,2.1,5.1,3.1
	s-6.9,6.1-7.3,7.7c-0.4,1.5,5.8,0.8,5.8,0.8s-1.3,1.8-0.2,2.3c0.4,0.2,0.7,0,1-0.3c0.5-0.2,0.9-0.8,1.6-1.3c0.2-0.2,0.6-0.3,0.9-0.3
	c1.8,0,5.3,1.3,7.1,1.3c0.5,0,1.2-0.3,1.8-0.7c1.3-0.7,2.6-2.1,2.9-3.4h-0.4v-0.5c-0.1-0.8-0.6-1.9-1.4-2.9h0.6
	c-0.9-1.3-2.1-2.4-3.2-3.1c-0.7-0.3-1.4-1.1-2.1-2.1h-0.6c-0.9-1.2-1.6-2.5-2.3-3.4h0.6c-0.4-0.6-0.8-1-1.1-1.2
	c-0.9-0.7,1.4-2.3,2.7-3.9h-0.2c0.6-0.8,0.9-1.5,0.4-2.1c-1-1.1-3.2-1.1-5.1-1.3h3.2c-2-0.3-4.4-0.1-5.7-1c-1-0.7-1.9-0.5-2.8,0.1
	c-0.8,0.4-1.5,1.2-2,2c-1.1,1.5-2.5-0.3-3.8,0.2c-1.8,0.7-1.1,3.4-0.2,4.7C484,163.7,485.6,166.5,487.8,167.5L487.8,167.5z
	 M942.4,151c5.3-0.3,7.2-3.3,12.3-4.9c5.1-1.5,9-2.6,10.6-1.8c1,0.5,2.3,0.5,2.8-0.1c0.5-0.2,0.7-0.7,0.3-1.4h-0.6
	c-0.9-1.1-2.5-2.4-3.3-3.4h0.6c-0.5-0.6-0.9-1.2-0.6-1.5c1.1-0.3,2.2-0.5,3-1.2c0.7-0.4,1.2-0.9,1.6-1.9v-0.5h-0.4
	c-0.1-1-0.6-2.2-0.9-3.4h0.5c-0.5-1.4-0.8-2.8,0.1-3.8c0.4-0.4,0.5-0.8,0.5-1.3h-0.4c-0.2-1.5-1.8-2.8-3.4-3.4h1
	c-0.4-0.2-0.9-0.4-1.2-0.5c-2.2-0.5-10.8,0.5-12.5-0.5c-1.8-1-4.6-2.3-5.5-1.5l-0.1,0.1c-0.1,0-0.2,0.1-0.3,0.1
	c-0.9,0.8-2.9,4.9-2.9,4.9s-1.6,0.5-2.9-1.8c-0.2-0.3-0.5-0.6-0.9-0.8h0.7c-2.1-1.7-8.2-1.5-10.2-1.5c-2.2,0-4.6,0.5-7.1,0.8
	c-2.4,0.2-3.7,1-5.5-0.8s-4.2-2.6-5.1-3.4c-0.1-0.1-0.3-0.2-0.5-0.3h-1.9c-1.4-0.1-3.2-0.1-5.1,0H903c-3.7,0.5-7.4,0.5-7.4,0.5
	l-1-0.5h-0.9c-0.7-0.4-1.7-1-2.9-1.8c-0.9-0.6-1.8-1.1-2.6-1.6h0.9c-1.8-1.1-3.4-1.8-4.1-1.8c-0.9,0-7.7,1.3-9.3,0s-3.1-2.1-4.2-2.1
	c-0.6,0-1.2-0.7-1.3-1.3h-0.4c0-0.3,0.2-0.5,0.7-0.5c1.3,0,7.5-2.1,7.5-2.1s-0.2-0.4-0.6-0.8h0.6c-0.6-0.8-2-2.3-3.6-2.3
	c-2.2,0-6.2-1.3-7.3-1.3c-0.4,0-0.5,0.1-0.6,0.3c-0.4,0.1-0.5,0.3-0.6,0.6c-0.2,0.1-0.6,0.1-1.2-0.1c-2.2-0.5-5.2,1.1-5.7-0.5
	c-0.4-1-1-0.9-1.6-0.4c-1.2,0.5-2.4,3.6,0,4.3c3.3,1,6.4,0,7.3,1.6c0.9,1.5,0,2.3,0,3.3s-1.8,3.9-2.9,4.4c-1.1,0.5-2.4-0.8-4.6,0.5
	c-2.2,1.3-7.8,0.2-8.4,1c-0.7,0.8-2-2.1-3.1-1.5c-0.7,0.3-2.2,1.9-3.5,2.8c-0.5,0.4-1.1,0.6-1.6,0.5c-0.7-0.1-1.6-0.6-2.2-1.3h-0.7
	c-0.6-0.7-1-1.6-1-2.6v-0.8h0.4c-0.1-1.9-0.7-4.1-1.3-4.6c-0.3-0.2-1.4-0.4-2.6-0.5h-4.8c-1.8,0.2-6.7,0.7-7.9,1.7
	c-0.3,0.1-0.5,0.2-0.6,0.4c-0.2,0.2-0.4,0.4-0.7,0.5c-1.1,0.6-2.6,1-3.7,1c-1.5,0-2.8-1.8-6.2-2.3c-3.3-0.5-10.6-0.8-11.5-0.5
	c-0.6,0.2-2.3-0.2-2.7-0.8h-0.5c0-0.2,0-0.3,0.2-0.5c0.5-0.5,1.7-1.7,2.4-2.9h0.2c0.8-1.2,1.2-2.5,0.2-3.3c-1.9-1.5-6.2-1.5-8.2-1.8
	h-2.3c-1.5-0.2-3.1-0.4-5.3,0h-0.7c-2.1,0.7-2.8,1.8-3.9,0.5c-0.1-0.1-0.2-0.2-0.2-0.3c0.6,0.1,1.4,0.5-1.5-1
	c-4.6-2.3-7.3,0-8.2-1.3c-0.2-0.2-0.2-0.4-0.3-0.6c-0.4,0.7-1.2,1.6-3,2.6c-3,1.7-5.1,2.1-5.9,2.3c-0.9,0.3-7-1-7-1.8V100h-0.4
	c-0.4-4.7-2.7,0.2-4.8,1.7h-0.1c-2.2,1-3.7,2.6-6,2.1c-2.2-0.5-5.7-0.5-8,0.5c-0.7,0.3-1.2,0.5-1.9,0.7h0.4c-1.7,0.6-3,0.9-4.8,2.4
	c-0.5,0.4-1.1,0.7-1.6,1h-0.1c-2,1-4.2,1.5-4.2,1.5s-3.7-0.3-5.8-0.3c-1.3,0-2.8,0-3.3,0.5c-0.7,0.3-0.9,0.7,0,1.6
	c1.8,1.8,7.1,3.6,7.7,4.6c0.7,1,1.5,4,0.5,4.8c-1.1,0.5-2.5,0.1-2.7-2c-0.1-1.2-0.2-1.8-0.7-2.3h-0.7c-0.4-0.3-1.1-0.6-2.1-1
	c-2.5-1-2.5-0.3-4.4-2.4h0.7l-0.5-0.5c-1.8-1.9-3.8-2.1-5.1-1.2c-0.4,0.2-0.8,0.5-1.1,0.9c-1,1.3-0.6,3.8-1.3,4.6
	c-1.2,0.3-2.6,1.1-3-0.5h-0.5c0-0.1,0-0.2-0.1-0.3c-0.1-0.9-0.1-2.1-0.2-3.1h0.4c-0.2-1.5-0.4-2.6-1.1-1.8c-0.2,0-0.5,0.2-0.8,0.8
	c-1.6,2.6-2.2,2.6-2.2,3.9s1.3,2.6,0.9,4.9c-0.5,2.3-0.5,3.9,0.2,3.9c0.6,0,2.2-2.3,4.1-2.9c2-0.5,5.5-1.8,5.8,0.5
	c0.2,2,1.9,2.9,0.9,3.7c-0.1,0-0.2,0.1-0.2,0.1c-2.2,1-4.6,0.5-5.1-1c0-0.1-0.1-0.2-0.1-0.2h-0.5c-0.6-1-1.9-0.9-3.3,0.3
	c-1.5,1.3-4.8,5.9-4.8,5.9s-3.8,2-5.3,2.3h-0.5c-0.5-0.4,0.7-2,2.1-3.4h0.2c0.6-0.6,1.2-1.1,1.7-1.5c1.2-0.9,2.2-2.4,2.5-3.6h-0.4
	c0.1-0.5,0.1-0.8-0.1-1.1c-0.2-0.3-0.5-1.2-0.8-2.4h0.5c-0.4-1.8-0.7-4-0.3-4.9c0-0.1,0-0.2,0.1-0.3h-0.3c0.5-1.1,1.6-2.4,0.6-3.4
	h0.6c-0.2-0.3-0.4-0.5-0.8-0.8c-2.2-1.3-3.7-2.8-5.5-3.6c-0.5-0.2-1.1,0-1.7,0.4c-1.4,0.7-2.8,3.2-4.1,4c-1.5,1-1.3,2.3-3.3,2.6
	c-2,0.2-3.4,3.4,0,5.2c3.3,1.8,4.4,3.1,3.5,4.1c-0.4,0.1-0.9,0.1-1.5,0h-1.6c-0.9-0.2-1.6-0.5-1.6-0.5s-2.8-1.5-4.6-1.5
	c-1.5,0-3.3-0.9-4.9-1.3h1.3c-0.6-0.2-1.2-0.4-1.8-0.5c-1.6-0.2-4.5-0.2-5.8,0.5h0.2c-0.4,0.1-0.8,0.3-1,0.6
	c-0.6,0.6-1.6,2.1-2.8,2.9h-0.2c-0.5,0.2-1,0.3-1.5,0h-0.9c-1.4-0.9-1.6-1.7-3.8-0.8c-2.4,1-4.8-0.8-6.2,0.8
	c-0.3,0.4-0.5,0.7-0.6,0.9c-0.4,0-1-0.2-2.6-0.8h-1.1c-3-1.1-3.4-0.1-4.8,0.8c-0.5,0.3-1.2,0.6-2.1,0.7c-3.7,0.7-6-0.5-7.2,0.5
	c-0.3,0.1-0.5,0.2-0.7,0.5c-1.1,1.5-2.6,4.4-3.3,2.6h0.5c0-0.1-0.1-0.1-0.1-0.2c-0.5-1.4,1-3.5,1.3-4.9h-0.4c0-0.3,0-0.6-0.2-0.8
	c-1.1-1-5.8-0.5-6.4,0.3c-0.7,0.8-0.2,3.6,0.2,4.6c0.4,0.9,0.9,3.9,0.3,4.4h-0.4c-1.3-0.8-1.1-3.4-2.4-3.1c-1.3,0.3-2.9,1-3.5,1.5
	s-3.3,0.5-4,1.5c-0.5,0.9,0,3.1-0.5,3.9c-1,0.3-2,1.2-4.4-0.5c-1.8-1.3-2.2-1.1-2.6-0.7c-0.4,0.1-0.5,0.5-0.9,0.7
	c-0.1,0.1-0.2,0.2-0.4,0.3c-1.1,0.7-3,1.5-3.2-0.3c-0.2-1.6,0.1-2.5-0.4-3.3h-0.6c-0.2-0.3-0.5-0.7-1-1c-2-1.6-0.5-1.6,2.2-0.5
	c2.6,1,6,1.5,10.8-0.2c2.6-1,4.4-1.6,5.1-2.2c1.1-0.6,1.2-1.1,0.1-1.7c-1.1-0.6-2-1.8-3.2-2.8H606c-0.9-0.8-1.9-1.5-3.2-1.8
	c-3.1-0.5-7.7,1.7-12.5-0.3c-1.2-0.5-2.2-1-3-1.3h1c-2.8-1.3-3.9-1.9-5.5-2.3c-0.9-0.2-3.6-1.5-6.9-2.8h-1.1c-4.2-1.6-9-3.2-12-2.6
	c-1.7,0.3-4.3,1.4-7.1,2.6h-0.2c-3.5,1.6-7.2,3.6-10,5.1h0.1c-2.4,1.3-4.2,2.4-4.4,2.6c-0.9,0.8-2.2,3.9-5.1,6.5
	c-1.1,1-2.5,1.9-4.1,2.8c-2.4,1.3-5.1,2.4-7.6,3c-0.7,0.2-1.3,0.5-2,0.9c-3.8,2.1-7.8,8-7.8,8.9c0,1,1.8,4.9,1.3,5.7
	c-0.4,0.8,0.9,4.7,3.3,5.7s6.6,0.8,6.8-0.8c0-0.4,0.3-0.8,0.7-1.3h0.2c0.4-0.7,1.1-1.4,1.7-1.9c0.5-0.3,1.1-0.2,1.2,0.6
	c0.2,2.3,2.4,5.9,1.9,7.5c-0.4,1.6,0,3.1,1.6,2.8c1.6-0.2,9.7-2.3,9.7-2.3s0.3-0.1,0.6-0.4c0.5-0.3,2.2-1.4,2.1-3h-0.4
	c-0.2-1.1,0.5-2.3,1.4-3.4h0.2c0.9-1.1,2-2.1,2.3-2.5c0.4-0.4,1.2-1.5,1.5-2.6h-0.4c0.2-0.8-0.1-1.6-1.3-2.1
	c-1.4-0.5-2.6-0.8-3.1-1.4h0.7c-1-0.6-1.1-1.4,0.8-3.3c0.3-0.3,0.6-0.5,0.9-0.7c2.4-1.4,4.4,0.3,7.8-3.6c0.2-0.3,0.4-0.6,0.6-0.8
	h0.2c2.2-2.9,0.8-4.4,1.1-5.1h-0.2c0.3-0.1,0.7-0.2,1.5-0.3c4.2-0.2,8.6-0.5,7.7,1c-0.5,1-2.7,2.6-4.9,4.1c-0.1,0.1-0.2,0.1-0.3,0.2
	c-1.3,0.8-2.6,1.6-3.6,2.2c-2.9,1.5-2.5,4.4-1.4,5.9s1.6,5.1,3.5,4.6c2-0.5,4.4-2.3,6.6-2.1c2.2,0.3,6.6-0.3,7.2-0.3
	c0.6,0,3.2,3,2.3,3.9c-1.8,0.5-3.9,0.2-7.6,0.5c-3.6,0.2-7.5,0.3-7.9,0.9c-0.3,0.1-0.5,0.2-0.5,0.4c0,0.8,5.1,2.6,3.3,3.9
	c-1.8,1.3-3.5-0.3-5.7-0.5c-2.2-0.3-3.5,3.4-4.2,5.4c-0.5,1.4,0.2,3.5-0.4,4.3c-0.3,0.1-0.8,0.1-1.4-0.2h-1.2c-2.9-1-5-1-5.8-0.5
	c-0.9,0.5-2.5-0.5-4.7,0.3c-0.2,0.1-0.4,0.1-0.5,0.2h-0.5c-1.1,0.3-1.7,0.3-3.8,0.3h-2.9l-1.8,0.3l-0.5-0.5H530
	c-0.5-0.6-1.1-1.4-1.2-2.6v-0.8h0.4c0-1.9,0.8-3.9-0.2-4.3c-0.9-0.4-3.6,0-5,1c-0.5,0.3-1,0.7-1.2,1.1c-0.6,1.6-1.3,4.4-0.4,5.7
	c0.6,0.9,2,2.3,2.1,2.9c-0.2,0-0.3,0-0.5-0.1c-2.3-0.7-5.1-1-6.9,0.2c-0.3,0.2-0.5,0.3-0.8,0.5c-1.7,1.5-4.8,4.9-4.8,4.9H510
	c-1.2,0.2-2.6,0.6-3.2,1.1h-0.1c-0.5,0.3-0.7,0.6-0.7,0.9c0,1.5,0,3.6-2,3.9c-2,0.3-4.6,1-7.3,1.5c-1.2,0.2-1.8,0.6-2.5,1
	c-0.6,0.3-1.3,0.7-2.6,0.8c-1.2,0.1-1.9,0.4-2.3,0.7c-1.1,0.6-0.8,1.5,1.2,1.9c2.9,0.5,7.3,2.6,7.5,4.9c0.2,2.3-0.2,4.9-1.3,7.2
	c-0.8,1.6-5.3,0.5-7.9,0.5s-7.9-1-10.1,0s-1.8,6.2-1.1,8.5s-0.2,3.6-1.1,4.4c-0.9,0.8-1.1,3.1,0,4.1s2,3.4,2.9,3.6
	c0.9,0.2,3.7-0.8,4.8,0.5c1.1,1.3,2.2,4.4,2.9,3.6c0.2-0.3,0.5-0.9,0.9-1.6h0.3c0.3-0.7,0.7-1.4,1.1-1.8c0.2,0,0.3,0,0.5,0.1
	c1.1,0.8,3.7-0.2,5.7-0.5c0.5-0.1,1-0.3,1.4-0.6c0.9-0.5,1.6-1.4,2.4-2.3h-0.2c0.4-0.5,0.9-0.9,1.4-1.3c1.6-1,1.2-1.2,0.6-2.1h0.6
	c-0.2-0.2-0.4-0.5-0.6-1c-0.5-1.3,1.1-2.7,2.6-4.1h-0.2c0.3-0.2,0.5-0.5,0.7-0.8c1.5-1.8,4.4-0.2,5-2.3c0-0.1,0.1-0.2,0.1-0.3h0.3
	c0.5-1.7,0.8-4.2,1.8-5c0.2-0.1,0.3-0.1,0.5-0.1c1.8,0.2,4.2,1.5,5.7,1.5c0.7,0,1.9-0.7,3-1.4c0.1-0.1,0.2-0.1,0.3-0.2
	c1.1-0.8,2.1-1.5,2.5-1.8c0.9-0.5,4.2-0.2,4.6,2.1c0.5,2.3,4.2,5.2,5.1,5.7c0.9,0.5,6.6,2.6,7.5,3.4c0.9,0.8,2.2,3.1,2.7,5.2
	c0.4,1.9,2.6,4.1,3.2,3c0.2,0,0.5-0.1,0.5-0.5h-0.4c0-0.8-0.3-2.1-0.6-3.4h0.5c-0.4-1.6-0.8-3.1-0.5-3.8c1.5,0.3,3.3-0.5,3.3-0.5
	s-0.1,0-0.1-0.1c0.3-0.1,0.5-0.2,0.5-0.2s-0.2-0.2-0.7-0.5h-0.7c-1.3-1-3.7-2.8-4.8-3.3c0,0-0.1,0-0.1-0.1h0.9
	c-0.1-0.1-0.2-0.2-0.4-0.2c-1.5-0.8-4.4-2.3-5.7-4.9h-0.6c-0.9-1.5-2.5-2.3-3.5-3.4h0.7c-0.6-0.6-1.1-1.3-1-2.3c0-0.5,0.2-0.8,0.4-1
	c1.1-0.3,3,0.8,4.2,2.3c1.8,2,6.2,4.9,7.7,6.7c1.6,1.8,4,2.6,4.6,4.9c0.7,2.3,2.6,4.9,3.3,5.9s1,9.2,1.7,10.5c0.4,0.8,2-0.3,3.4-1.6
	h0.1c1.1-0.9,2.2-2,2.7-2.5c0.9-0.8,2.3-1.4,3-2.6h-0.3c0.1-0.2,0.2-0.5,0.2-0.8c0.1-1-0.5-1.9-1.3-2.6h0.7c-0.9-0.9-2-1.6-2.5-2
	c-0.3-0.3-0.2-0.5,0.2-0.8c0.7-0.4,1.6-0.8,2.3-1.3c0.3-0.2,0.6-0.3,0.8-0.5s0.4-0.3,0.6-0.5h-0.1c1.1-0.9,2.4-1.7,3.1-0.5
	c0.9,1.6,0.4,7.7,0.9,8.8c0.5,1,4.9,2.6,5.8,3.9c0.9,1.3,4.6,1.8,5.3,1c0.6-0.8,4.2,0.5,5.1,0.8c0.9,0.3,3.5-0.5,5.3-1
	c1.7-0.5,3.5-2.1,3.3,1.3c-0.2,3.4-0.9,8.5-3.1,11.1c-1.5,1.7-1.6,2.9-2.1,3.5c-0.2,0.1-0.5,0.2-1,0.2c-1,0-1.9,0-2.7,0.4
	c-0.7-1.3-1.7-2.4-3-2c-1.9,0.6-4.1,0.8-6.1,1.9c-0.9,0.5-1.8,1.2-2.5,2.2c-1,1.4-1.7,2.2-2.2,2.5h-1.2c0-0.1-0.1-0.1-0.2-0.2
	c-0.2-0.5,1.3-1.8,2.8-3.2h0.1c1.7-1.5,3.5-3.1,3-3.8c-0.9-1.3-6.2-0.8-9-0.8c-0.9,0-1.8-0.2-2.6-0.5h-1.1c-1.5-0.6-2.9-1.5-4.2-1.8
	c-2.2-0.5-3.2,4.8-5.5,7.3c-1.5,1.7-3.4,0.5-5.2-0.5h0.9c-1.1-0.6-2.1-1.2-2.8-1.2c-2,0-5.7-3.4-5.7-3.4s-0.5-0.2-1.2-0.5h-1
	c-1.2-0.5-2.6-1-3.5-1c-1,0-2.7-1.4-3.9-2.4h0.7c-0.9-0.7-1.6-1.2-2-1.2c-0.8,0-3-2.1-1.7-3.2c1.8-0.7,5.1,1,3.5-4.1h0.5
	c0-0.2-0.1-0.3-0.1-0.5c-1.8-5.7-7.8-4.6-9.3-3.8s-12.5,0.5-13.4,0.5s-7.2,2.6-9.2,3.6c-0.1,0.1-0.3,0.1-0.4,0.2h0.2
	c0,0-0.1,0.1-0.2,0.1c-2,1-5.5,2.3-6.4,2.8s-5.5-1-7.5,0.3c-2.1,1.3-4,3.3-5.1,4c-0.1,0.1-0.2,0.1-0.3,0.1c-0.2,0-0.4,0.1-0.7,0.3
	c-0.8,0.4-2.5,2.2-3.7,5.6c-1.2,3.7,0.1,7-2,8.4c-1.8,0.9-4.9,2.3-7.2,3.7c-1,0.6-1.9,1.2-2.4,1.9c-1.8,2.1-3.2,10.1-5.3,13.4
	c-2.2,3.4,0,6.5,0.4,8.5c0.4,2.1,2,5.9-0.4,9.6c-2,3-2.2,4.7-2.8,5.4l-0.1,0.1c-0.2,0-0.2,0.1-0.3,0.2l-0.1,0.1
	c-1.1,0.3,1.1,1.3,1.6,3.9c0.4,2.6-2,5.2,2.2,7.5s8,2.4,9.1,5.5s4.8,10.2,4.8,10.2s3.9,4.1,6,5.9c1.2,1.1,1.9,1.1,2.3,0.6
	c0.4-0.1,0.6-0.4,0.8-0.9h-0.3c0.1-0.2,0.2-0.5,0.2-0.7c0.5-1.8,3.1-2.1,6.2-2.1s5.3,0.8,8.4,0.3c0.9-0.1,1.6-0.6,2.3-1.1
	c1.9-1.3,3.3-3.6,4.2-4.4c1.2-0.5,5.6-1.1,8.5,0.9c2.8,2.1,2.4,4.9,4,6.7c1.5,1.8,4.2,0.8,6.2-1s1.1-1,3.5,0.5s3.5,3.1,1.3,5.4
	s-0.9,5.9-2.2,9.6c-1.4,3.6,1.2,3.6,3.7,5.2c2.4,1.5,4.4,11.6,5.8,13.4c1.3,1.8-0.4,7,1.1,10.1s2.2,5,0.5,6.5
	c-1.8,1.5-4,4.6-4.2,9.7c-0.2,5.2,0.9,8.8,1.8,10.6c0.9,1.8,3.1,6.7,4.2,8.5c1.1,1.8,4.9,5.1,5.1,8c0.2,2.8-2.9,7.3-1.8,8.8
	c1.1,1.5,1.8,3.9,3.7,5.9c2,2.1,2.6,6.4,2.6,6.4s0.7,1.8,0.9,4.6c0.2,2.9,0.4,4.7,2.6,5.9c2.2,1.3,3.7,1.5,4.9,0.3
	c1.1-1.3,5.8-3.8,8.6-3.6c2.6,0.2,6.3,0.6,9.1-1.1c0.4-0.2,0.8-0.5,1.2-0.8c0.6-0.5,1.2-1.1,1.9-1.9h-0.2c0.9-1,1.9-2.2,2.8-3.4h0.2
	c1.6-2.1,3.1-4.1,3.9-5.1l0.1-0.1h-0.2c0.8-0.9,2-2.2,2.9-3.4h0.2c1-1.3,1.8-2.7,1.6-3.7c-0.1-0.4-0.3-0.9-0.5-1.3h-0.5
	c-0.5-1.2-1.1-2.4-1.2-3.4h0.5c-0.1-0.6,0-1.1,0.4-1.5c1.6-0.8,5.4-1.5,6.9-2.5c0.6-0.3,1.1-0.7,1.1-1V406h-0.4c0-0.7-0.2-2-0.5-3.4
	h0.5c-0.4-1.9-1-3.9-1.3-5.1h-0.5c0-0.2-0.1-0.4-0.2-0.5c-0.2-0.7,0.1-1.7,0.8-3h0.2c0.6-1,1.4-2.3,2.3-3.5c0.4-0.5,0.8-1.1,1.3-1.6
	h-0.2c1.3-1.3,2.8-2.5,3.9-3.4h0.1c0.8-0.6,1.4-1.1,1.7-1.5c0.5-0.6,1.9-1.9,3.2-3.6h-0.2c0.7-1.1,1.4-2.2,1.6-3.4h0.4
	c0-0.2,0.1-0.4,0.2-0.7c0.2-1.4,0-3-0.1-4.4h-0.4c-0.2-1.3-0.3-2.5-0.2-3.4h0.4c0-0.6,0.1-1.1,0.3-1.4c0.6-1.3,0.4-2.4-0.4-3.7h-0.6
	c-0.3-0.5-0.7-1-1.2-1.5s-0.9-1.2-1.1-1.9h0.5c-0.7-1.7-1.1-3.8-1.4-5.1h-0.5c-0.1-0.3-0.2-0.6-0.3-0.8c-0.2-0.3-0.2-1.4-0.2-2.6
	h0.4c0.1-1.7,0.5-3.9,1.1-5.1h-0.3c0.2-0.4,0.4-0.6,0.6-0.7c0.5-0.2,1.4-1.3,2.4-2.7h0.2c1.2-1.6,2.5-3.7,3.5-5.1h-0.2
	c0-0.1,0.1-0.1,0.2-0.2c0.5-0.7,1.4-1.9,2.4-3.2h0.2c1.3-1.7,2.8-3.7,4.2-5.1h-0.1c0.9-0.9,1.8-1.6,2.5-1.8c0.9-0.2,1.8-0.8,2.8-1.7
	h0.1c1.8-1.4,3.4-3.5,3.8-5.1H626v-0.2c0.1-0.7,0.6-1.8,1.4-3.2h0.3c0.9-1.5,2-3.4,3-5.1H630c0.8-1.3,1.5-2.5,1.9-3.4h0.3
	c0.3-0.6,0.5-1.2,0.6-1.5c0.1-0.7,0.5-2.1,0.9-3.7h-0.3c0.3-1.1,0.6-2.3,0.8-3.4h0.4c0.2-1.3,0.3-2.5,0-3c-1.1-1.5-9.7,2.3-10.8,2.9
	c-0.1,0-0.2,0.1-0.4,0.2h0.1c-0.1,0-0.2,0.1-0.2,0.1c-1.1,0.5-4.2,2.6-7.8,2.3c-1.9-0.1-2.3-1.2-2.3-2.4h0.4c0-1.1,0.3-2.3,0.2-3
	c-0.1-0.4-0.4-1.2-0.9-2.1h-0.5c-0.6-1.1-1.4-2.4-2.1-3.4h0.6c-0.9-1.2-1.6-2.1-1.9-2.2c-0.5-0.2-1.6-1.3-2.7-2.9h-0.6
	c-0.7-1-1.3-2.2-1.7-3.3v-0.1h0.5c0-0.1,0-0.1-0.1-0.2c-0.7-1.9-2.8-3.5-4.6-4.9H599c-1-0.8-1.9-1.5-2.5-2.3
	c-0.2-0.3-0.4-0.7-0.5-1.1h0.5c-0.4-1.3-0.4-3.1-0.3-5.1h-0.4v-3.4h0.4c-0.1-1.4-0.3-2.8-0.7-3.8c-0.2-0.4-0.4-0.9-0.6-1.3h-0.5
	c-0.5-1.1-1-2.3-1.4-3.4h0.5c-0.7-1.8-1.4-3.5-2.1-5.1h-0.5c-0.2-0.5-0.4-1-0.7-1.5c-0.3-0.7-0.6-1.3-0.9-1.9h0.5l-0.3-0.6
	c2-0.6,4.6-1.4,4.9-0.1c0.4,1.8,2.9,5.7,3.3,8.5c0.4,2.8,2.8,1.8,3.1,4.4c0.2,2.6,2.4,8.8,3.3,9.6c0.9,0.8,4.9,4.9,5.5,6.5
	c0.7,1.5,1.6,3.6,2.2,7.5c0.7,3.9,1.3,9,3.1,9.8s7.7-1.3,8.8-2.1c1.1-0.8,8.4-4.9,11.1-5.2c2.6-0.2,3-2.3,6.4-3.1
	c1.4-0.3,2.6-1,3.7-1.8c1.8-1.2,3.2-2.8,4.6-4.1l0.3-0.3h-0.2c0.8-0.9,1.7-2.1,2.5-3.4h0.3c1.2-1.9,2.3-4,2.8-5.1h-0.3
	c0.6-1.2,1.8-2.2,2.1-3.4h0.4c0.2-0.6,0.3-1.2-0.1-2c-0.5-0.9-1.8-2.1-3.2-3.1h-0.7c-1.5-1.1-3.1-1.9-4-2c-0.7-0.1-1.1-0.7-1.4-1.4
	h0.5c-0.5-1.1-0.7-2.5-1.4-2.5c-0.3,0-0.5,0.1-0.6,0.3c-0.9,0.3-0.9,1.9-2.9,3.1c-1.2,0.7-2.5,1.9-3.7,2.6c-0.7,0.4-1.3,0.7-1.9,0.5
	c-0.4-0.1-0.5-0.3-0.6-0.5h-0.5c0-0.7,0.3-1.8-1.3-3.3c0,0,0-0.1-0.1-0.1h0.7l-0.2-0.2c-2.4-2.3-3.3-2.8-3.3-4.6
	c0-0.1-0.1-0.2-0.1-0.3H632c-0.4-0.9-1.5-2.1-2.6-3.4h0.7c-1.2-1.4-2.5-2.8-2.7-4.1c-0.1-0.3,0-0.7,0-1.1H627
	c0.7-2.3,3.4-4.5,4.3-2.5c1.1,2.3,2,5.9,4.8,7.5c2.9,1.6,5.5,4.1,6.9,4.6c1.3,0.5,4.6-2.8,5.7-2.3c1.1,0.5,3.3,5.1,5.3,5.9
	s8.6,1,9.7,1c1,0,4.9,0.2,6.2-0.9c0.4-0.2,0.6-0.4,0.8-0.6c0.3-0.5,0.6-0.9,0.9-1.1c0.4-0.2,0.8-0.2,1.4-0.2c1.1,0,3.1,4.6,4.6,5.2
	c1.6,0.5,4.4,0.3,4.2,3.6c-0.2,3.4,1.3,6.2,2.9,6.5c0.5,0.1,1.1-0.2,1.7-0.7c0.2-0.1,0.4-0.2,0.5-0.4c1.4-1.2,2.8-2.8,2.8-2.8
	s0,6.4-0.2,8.8c-0.2,2.3,2.4,10.8,2.4,10.8s3.3,8,4.2,9.8s4.6,7.2,4.6,9.5s0.4,5.9,1.8,5.9c0.8,0,1.5-1.3,2.3-2.9h0.3
	c0.7-1.3,1.3-2.8,2-4c0.2-0.4,0.5-0.7,0.7-1.1h-0.3c0.7-1.1,1.4-2.3,2-3.4h0.3c0.5-1,1-2,1.2-3c0.2-0.6,0.2-1.3,0.2-2.1h-0.4
	c0-1.1-0.2-2.3-0.3-3.4h0.4c-0.2-2-0.5-3.9-0.5-4.8V287H710c0.2-1.2,1.1-2.3,2.7-3.4c0.2-0.1,0.4-0.3,0.6-0.4
	c0.4-0.2,0.7-0.4,1.1-0.6c0.4-0.2,0.8-0.4,1.2-0.7c1.2-0.8,2.3-2.1,3.4-3.4h-0.2c1-1.2,1.9-2.4,2.9-3.4h0.2c0.3-0.3,0.6-0.7,0.9-0.9
	c1.4-1.2,2-2.9,3-4.1h-0.2c0.9-1,2.1-1.8,4.4-1.8c5.3,0,4.8,0,6.2-1.5l0.1-0.1h0.2c0-0.1,0.1-0.1,0.2-0.2c0.4-0.5,0.8-0.8,1.1-1.1
	c0.7-0.4,1.4-0.1,1.8,1.6c0.7,2.8,4.4,7,5.1,8c0.6,1,1.9,3.9,1.7,7s-1.3,11.6-0.2,11.6c0.3,0,0.7-0.5,1.2-1.3h0.3
	c0.7-1.3,1.8-3.4,2.5-5.1h-0.3c0.7-1.6,1.2-2.8,1.2-2.8s0.3-0.3,0.9-0.6c0.1-0.1,0.2-0.1,0.3-0.2c1.4-0.8,3.6-1.7,3.4,1.1
	c-0.2,4.1,0.5,8.5,0.5,11.1s4,8.8,4,7.2c0-0.5,0.2-1.3,0.4-2.2h0.4c0.4-1.5,1-3.5,1.2-5.1h-0.4c0-0.3,0.1-0.7,0.1-1
	c0-2.3,1.1-1.3,4,1c2.8,2.3,4.9,7,4.9,7s2.7,8.7,3.2,10c0.3,0.7,1.4-1.2,2.4-3.4h0.3c0.9-1.8,1.8-3.8,2.1-4.6l0.3-0.6h-0.3
	c0.5-1,1.1-1.6,2.5-2c1.2-0.4,2.6-0.5,3.5-1.4h0.1c0.6-0.4,1.1-1.1,1.4-2.2c0.2-0.9,0.5-1.9,0.8-2.9h-0.3c0.3-1.1,0.5-2.2,0.4-3.4
	h0.4c-0.1-1.2-0.4-2.5-1.3-3.8c-0.4-0.5-0.6-0.9-0.9-1.3h-0.5c-0.9-1.3-1.6-2.4-2.3-3.4h0.6c-1-1.4-1.8-2.6-2.8-3.5
	c-0.5-0.4-0.9-1-1.2-1.6h-0.6c-0.7-1.2-1.3-2.5-1.7-3.4h0.5c-0.4-0.8-0.5-1.5-0.5-1.5s1.8-1.9,3.4-3.6h-0.2c0.7-0.8,1.4-1.6,1.8-2
	c1.3-1.5,3.3-0.5,3.5,1.3s-1.9,3.4-2.4,7.2c-0.4,3.9,2.6,5.2,3.5,3.9c0.2-0.1,0.3-0.1,0.4-0.3c0.2-0.4,0.7-1,1.1-1.6h-0.2
	c0.9-1.3,1.8-2.8,1.8-3.3v-0.1h0.4V275c0-0.8-1.6-0.5-1.8-3.4c-0.1-0.6,0-1.1,0.2-1.6H788c0.8-1.8,2.8-2.9,3.6-2.3
	c1.1,0.8,8.1-1,11.5-3.1c0.1,0,0.1-0.1,0.2-0.1s0.2-0.1,0.2-0.1c1.2-0.7,2.2-1.8,3.1-2.9h-0.2c0.9-1.2,1.7-2.4,2.5-3.4h0.2
	c0.5-0.8,1.1-1.5,1.6-2c0.7-0.6,2-1.8,3.4-3.1H814c1.1-1.1,2.2-2.3,3.1-3.4h0.2c1.2-1.5,2.1-3,1.9-4.1c-0.1-0.3-0.1-0.7-0.1-1.1
	h-0.4c-0.1-1.1-0.1-2.2-0.2-3.4h0.4c-0.1-1.6-0.3-3.4-1-5.1h-0.5c0-0.2-0.1-0.3-0.2-0.5c-0.5-1.1-1.1-2-1.7-2.9h0.6
	c-1.4-2.1-2.7-3.7-3.4-4.8c-0.1-0.1,0-0.2-0.1-0.3h-0.4c0.4-1.1,3.9-1.6,5.8-3.4h0.1c0.2-0.1,0.4-0.3,0.5-0.4c2.2-2.3,0-4.4-1.1-4.1
	c-1.1,0.3-4,1-5.1,0.8c-0.6-0.2-1.1-0.6-1.8-1.3h-0.7c-0.4-0.4-0.9-1-1.5-1.5c-0.7-0.6-0.8-1.3-0.6-1.9h0.4c0.1-0.6,0.5-1.2,1-1.6
	c0.2-0.1,0.5-0.2,0.7-0.1c0.4,0.1,1-0.2,1.6-0.6c1-0.6,2.3-1.8,3.3-2.7h-0.1l0.5-0.5c1.3-1.3,3.3-2.3,2.7-1s-2.2,5.9-0.5,6.2
	c0.7,0.1,1.8-0.5,2.9-1.2c1.1-0.7,2.1-1.5,3-2c0.4-0.2,0.7-0.4,0.8-0.3c0.7,0.2,1.8,3.6,1.1,5.2c-0.6,1.5-0.6,4.1,0.2,3.9
	c0.2-0.1,0.4-0.2,0.6-0.4c0.4-0.2,1-0.8,1.5-1.2h-0.1c0.5-0.3,0.9-0.5,1.1-0.2c0.4,0.8,2.6,2.3,1.5,5.2c-1.1,2.8-3.3,3.9-0.7,5.7
	c1.8,1.2,2.8,0.9,3.9,0.1c0.6-0.4,1.2-0.9,2-1.4c0.3-0.2,0.5-0.5,0.8-0.8c0.6-0.9,1.1-2.1,1.4-3.4h0.3c0.5-1.8,0.5-3.7,0-4.6
	c-0.1-0.2-0.2-0.3-0.4-0.5h-0.6c-0.6-1-1.5-2.3-2.1-3.4h0.5c-0.7-1.1-1.2-2.2-1.2-2.8c0-0.2,0.1-0.4,0.4-0.5c0.9-0.4,2.2-0.8,3-1.4
	c0.2-0.1,0.4-0.2,0.5-0.4h-0.2c0.2-0.2,0.3-0.5,0.3-0.8c0-1,0.4-1.9,0.9-2.6h0.2c0.6-0.9,1.4-1.6,2.3-2c0,0,0.1-0.1,0.2-0.1
	c1-0.6,2.2-2.1,3-2.8c0.2-0.1,0.4-0.1,0.5,0.1c0.6,1,4.1,2.1,5.5,1c0.3-0.1,0.5-0.3,0.7-0.5s0.4-0.5,0.6-0.8h-0.2
	c0.8-0.9,1.9-2.1,3.3-3.4h0.2c1.7-1.7,3.6-3.6,5.3-5.1h-0.1l0.8-0.8c1-0.8,1.8-1.7,2.5-2.6h0.2c1.2-1.6,2.1-3.3,2.7-5.1h-0.3
	c0.3-0.8,0.5-1.7,0.7-2.6c0.1-0.3,0.2-0.6,0.2-0.8h0.4c0.5-2,1.1-3.6,1.4-5.1h-0.4c0.2-0.9,0.3-1.9,0.1-2.8c1.3,3.6,1.5,6.2,1.3,9
	s0,8.8,0.4,9.5c0.4,0.8,2.2,2.6,3.3,2.1c0.1,0,0.1-0.2,0.2-0.2s0.2,0,0.2-0.1c0.2-0.1,0.3-0.3,0.3-0.5h-0.4c0.1-0.8-0.1-2.2-0.4-3.4
	h0.5c-0.2-1.2-0.5-2.3-0.5-2.8c0-0.7,0.8-1.7,1.6-2.3c0.2-0.1,0.3-0.2,0.4-0.2c0.5-0.2,0.5-1.6,0.1-3.2h0.5
	c-0.3-1.3-0.7-2.7-1.2-3.5c-0.4-0.6-0.8-1.1-1.1-1.5h-0.6c-0.6-0.7-0.9-1.1-0.4-1.3c0.7-0.2,1.4-1.3,1.5-2.1h0.3
	c0.2-0.4,0.2-0.8-0.1-1c-0.7-0.5-0.2-2.3-1.8-1.8c-0.8,0.3-2.8,0-3.6,0.8c-0.3,0.1-0.5,0.3-0.6,0.5c-0.7-1.9-1.9-3.1-3.5-2.9
	c-2,0.3-3.1,1.5-5.1,1.5c-1.2,0-1.1-1.3-1-2.3h-0.4c0-0.6,0-1-0.3-1c-0.5,0-1.3,1-2.1,1.6c-0.5,0.3-1,0.4-1.5-0.3
	c0-0.1,0-0.2-0.1-0.3H854c-0.2-1.7,3.5-3.7,6.5-4.9c0.4-0.2,0.9-0.4,1.3-0.7c1-0.6,2.2-1.7,3.4-2.9h-0.1c1.2-1.2,2.4-2.4,3.5-3.4
	h0.1c0.7-0.7,1.4-1.3,2.1-1.7c0.3-0.1,0.5-0.3,0.7-0.3c2.2-0.3,7.7,0.5,12.5,0.3c4.9-0.3,6.4-2.6,8-1.3c1.5,1.3,4.9,2.8,6.8,2.6
	c1.1-0.2,1.3-0.2,1.8-0.5c0.5-0.2,0.9-0.7,2.8-2.3c0.8-0.7,1.6-1.3,2.3-1.8c1.8-1.2,3.3-2.2,4.3-3.4h0.2l0.7-0.7
	c0.4-0.5,0.9-0.9,1.4-1.3c1.8-1.1,4-1.5,4.1,0c0.2,2.1-0.4,4.1,1.3,4.1c1.8,0,4.4-2.1,6.6-3.1c1.3-0.6,2.5-1.3,3.2-1.8
	c0.3-0.2,0.5-0.3,0.7-0.4c-1.2,0.9-8.6,6.9-10.9,8.5c-1.6,1-4.4,1.8-6.7,3.2c-1.3,0.7-2.5,1.5-3.3,2.6c-2.2,3.1-3.5,4.1-3.3,7.5
	s4,7.7,2.2,10.8s-2.4,7.5-2.4,7.5s0.8-1.3,2.1-2.9h0.2c1.1-1.4,2.7-3.2,4.5-4.6c0.2-0.2,0.4-0.3,0.6-0.5h-0.1
	c1.3-1.1,2.3-2.3,3.2-3.4h0.2c1.4-1.8,2.5-3.5,3.3-4.3c0.2-0.2,0.3-0.3,0.5-0.4c1.7-1,4.4-1.4,4.4-2.9c0-0.3,0-0.6,0.1-0.8h0.4
	c0.2-1.6,0.9-3.4,1.5-5.1h-0.3c0-0.1,0.1-0.2,0.1-0.3c0.6-1.7-0.7-1.7-0.3-3.1h0.3c0.1-0.3,0.2-0.7,0.5-1.3c0.7-1.5,1-2.8,2.4-3.6
	c1-0.5,2.5-0.7,4.9-0.7C939.3,150.8,937.1,151.3,942.4,151L942.4,151z M589.7,333.4c0.9,1.7-1.2,6.3-3.2,7.8
	c-0.3,0.2-0.5,0.2-0.9,0.2c-0.8-0.2-1.2-1.4-1.2-2.9H584c0-1.2,0.1-2.5,0.3-3.4h0.4c0.1-0.6,0.3-1.2,0.4-1.5c0-0.1,0.2-0.2,0.3-0.4
	C586.7,332.6,589.2,332.6,589.7,333.4L589.7,333.4z M581,148.2c0-0.1,0.1-0.2,0.2-0.3h0.3c0.2-0.4,0.4-0.7,0.7-0.9
	c2.1-0.8,6,2.4,5.1,3.8c-0.2,0.2-0.4,0.4-0.7,0.5h-2.4C582.4,150.8,580.6,149.6,581,148.2L581,148.2z M608.6,208.8
	c-1.8,0.5-7.1,1-9,0.8c-1.3-0.2-2.9-1.3-4.6-2.1h0.9c-1-0.5-2.1-1-3.2-1.2c-2.3-0.4-5.1-0.3-6.6,0.7c-0.6,0.3-1,0.6-1.3,1.1
	c-1.1,1.8-5.1,1-6.9,1c-1.8,0-4,2.6-4.4,1.6c0,0,0.5-1.7,0.5-3.2h0.4c0.1-1.1,0-2-0.5-2.3c-0.8-0.3-0.4-1.7,0.3-2.9H574
	c0.4-0.6,0.9-1.2,1.3-1.5c0.5-0.4,1.1-1.1,1.7-1.9h0.2c0.9-1.3,1.9-2.9,2.7-4.6c0.1-0.2,0.2-0.3,0.4-0.5H580c1.2-1.8,2.7-2,3.7-1.8
	c1.1,0.2,3.5,4.9,4.2,6.4c0.4,1.1,1.6,0.4,2.6-0.2c0.6-0.4,1.2-0.8,1.6-1.1c0.9-0.5,2.2-2.1,2.5-3.4h-0.4c0.5-1.1,2.3-1.8,4.3-1.8
	c1.6,0,1,1.1,0,1.9c-0.3,0.2-0.6,0.3-0.9,0.4c-0.3,0.1-0.5,0.2-0.6,0.3c-1.2,0.5-0.3,1.5,2.2,2.5c2.6,1,5.1,3.9,7.9,5.7
	C610,204.7,610.4,208.3,608.6,208.8L608.6,208.8z M643,196.2c-1.3,0.7-4.6,1.1-5.8-0.3c-0.7-0.8-1.9-0.7-2.9,0.1
	c-1.1,0.6-2,1.8-2.1,3.3c-0.2,2.9,0.9,0.8,2.2,1.8s1.8,2.6,2.6,4.1c0.9,1.5,2.4,1,3.5,2.3s-3.1,2.8-1.3,4.4c1.8,1.5,2.6,7.7,2.9,9.3
	c0,0.3-0.2,0.6-0.5,0.9c-1.5,0.8-4.4,1.1-5.5,0.9c-1.5-0.3-6.2-2.1-7.7-2.6c-0.3-0.1-0.6-0.5-0.9-1H627c-0.4-1-0.6-2.3-0.6-3.4h0.4
	c0-0.9,0.2-1.6,0.5-2h0.2c1,0.1,1.7,0,2.3-0.5c0.7-0.4,1.4-1.2,2.7-2.6h-0.2c1.4-1.9-2.5-2.9-4.4-3.4h1.4c-0.6-0.2-1.2-0.3-1.6-0.5
	c-1-0.3-2.5-2.5-3.7-4.7h-0.6c-0.7-1.3-1.4-2.4-1.8-3.1c-0.1-0.1-0.1-0.2-0.2-0.3h0.5c-0.8-1.4-0.5-3.3,0.9-5.1h-0.2
	c0.4-0.4,0.8-0.9,1.3-1.3c1.3-1,4.8,1.3,6.6,0c0.9-0.7,1.9-1.5,2.7-2.1h0.1c0.6-0.5,1.1-0.9,1.5-1.3c0.9-0.3,5,0.9,5.6,2.4
	C641.2,193.1,643.8,195.4,643,196.2L643,196.2z M767.6,96.8c0.2-0.9-0.4-1.1-0.5-0.5c-0.2-0.4-0.8-0.1-0.1,1.2
	c0.2-0.3,0.2-0.5,0.2-0.8h0.4L767.6,96.8z M635.3,117c1.3,0.5,4.2,0.8,6.6,2.3c2.2,1.4,5.2,2,7,0.7c0.3-0.2,0.6-0.4,0.9-0.7
	c0.5-0.6,0.7-1.3,0.6-2h-0.5c-0.2-1-0.8-1.9-1.4-2.1c-0.5-0.1-0.9-0.6-0.9-1.3h0.5c-0.2-0.8,0.3-2,2-3.1c0.9-0.6,1.8-1.2,2.8-1.8
	c1.9-1.2,3.9-2.2,6-2.6c3.3-0.5,10.8-0.8,13.5,0c1.1,0.3,2.4-0.2,3.7-1.1c1.9-1.2,3.7-3.2,4.4-4.3c0.2-0.3,0.2-0.5,0.1-0.8H680
	c-0.7-1.2-3.8-1.7-4.8,0c-0.1,0.1-0.2,0.2-0.4,0.3c-2.1,1.3-7.1,0.9-8.3,0.5c-1.3-0.5-11.9,2.1-14.1,2.1c-0.6,0-1.1,0.3-1.6,0.6
	c-1.4,0.8-2.5,3-5,4.3c-0.5,0.2-1,0.5-1.6,0.8h-0.1c-2.6,1.4-5.5,3-6.8,3.6c-0.1,0-0.1,0.1-0.2,0.2c0,0-0.1,0.1-0.2,0.1
	C635.5,113.4,633.9,116.5,635.3,117L635.3,117z M860.4,221.7c-0.7,0-3.4,1.2-5.3,2.4c-0.8,0.5-1.6,1-2,1.5c-1.3,1.6-7.7-1.3-8.6,0
	c-0.9,1.3-2.6,2.8-3.8,3.9c-0.8,0.4-2,0.5-2.7,1c-0.7,0.3-1.1,0.9-0.9,2.3c0.7,3.1,2.2,5.9,3.5,5.9c0.6,0,1.2-0.2,1.8-0.6
	c0.6-0.3,1.1-0.8,1.4-1.7h-0.4c0.2-0.4,0.2-0.9,0.2-1.5c0-2.8,3.1,0,4.6-0.3c0.9-0.2,1.5-0.8,2-1.6h0.2c0.4-0.6,0.7-1.4,1-2.2
	c0.2,0.6,0.5,1.2,1.6,1.5c1.2,0.3,2,0.1,2.6-0.3c1-0.5,1.3-1.5,1.3-2c0-0.1,0.1-0.2,0.3-0.3c1.3-0.7,4.4-1.6,5.1-2.2
	c0.8-0.7,4-1.9,4.5-2.9h0.3c0.1-0.2,0.2-0.3,0.3-0.4c0.1-0.6,0.1-2.8,0.3-4.7h-0.4c0.2-1.3,0.4-2.4,0.8-2.5c0.5-0.2,1.2-0.4,1.5-0.8
	h0.2c0.6-0.4,0.8-1.3-0.3-3.5c-0.3-0.5-0.5-1.1-0.7-1.6h-0.5c-0.5-1.4-0.9-2.7-1.4-3.4h0.5c-0.5-0.8-1-1.1-1.9-0.5l-0.1,0.1
	l-0.4,0.2c-1.6,1.1-0.7,5.7-2,8.8C862.2,218.6,861.3,220.9,860.4,221.7L860.4,221.7z M798.9,360.3c0.3-0.1,0.5-0.2,0.6-0.5
	c0.2-1.5-2.4-3.9-3.5-3.9c-0.3,0-1-0.1-1.8-0.3h-1.6c-1.8-0.4-3.7-1-3.7-1c-0.8,0.4-1.8,0.7-2.4,1.2c-0.1-0.1-0.1-0.2-0.2-0.2h-0.7
	c-0.1-0.1-0.1-0.1-0.3-0.2c-2.4-1.5-5.3,0-6.2-2.1c-0.2-0.5-0.5-0.9-0.7-1.1h0.6c-0.7-0.9-1.4-0.9-2.1-0.4c-0.4,0.1-0.7,0.4-0.9,0.8
	c-1.6,2.4,0.4,4.1,1.1,4.7c0.7,0.5,3.1,1,5.3,0.8c1.3-0.1,2.8-0.5,3.4-1c0.1,0,0.1-0.1,0.2-0.1c0.1,0.2,0.2,0.5,0.5,0.9
	c1.8,1.8,2.9,2.6,5.5,2.3C794.7,359.8,798.2,361.3,798.9,360.3L798.9,360.3z M810.6,363.1c-0.4,1.9,1.9,2.9,3,1.8
	c0.3-0.2,0.6-0.4,0.7-0.8H814v-0.2C814.3,361.3,811,361.1,810.6,363.1z M810.3,346.1c1.2,0.9,3-1.4,4.4-2.4h0.1
	c0.2-0.1,0.4-0.3,0.5-0.4c0.4-0.2,0.8-0.2,1,0.2c0.9,1.8-0.2,2.6,1.3,4.9c1.6,2.3,4.4,2.1,4.4,2.1v-0.3h0.4c0,0,0-1.5-0.4-3.1h-0.5
	c-0.2-1.2-0.6-2.5-1.2-3.4h0.5c-0.3-0.5-0.6-0.9-1.1-1.2c-1.6-1-2.8-2.1-2.6-2.6c0.3,0,0.6,0,1.1,0.1c1.6,0.3,2.8,0,3.4-0.6
	c0.3-0.2,0.6-0.4,0.7-0.8H822c0-0.3,0-0.6-0.1-1c-0.7-1.5-4.8-0.8-6.2-0.5c-1.3,0.2-3.3-1-3.3-1c-1.3,0.5-1.1,1.8-1.5,4.4
	C810.6,343,808.6,344.8,810.3,346.1L810.3,346.1z M836.4,327.3c-2-1-5.8,8.5-3.1,9.3c0.7,0.2,1.4-0.4,2-1.4h0.3
	c0.8-1.3,1.4-3.4,1.6-5.1h-0.4C837,328.6,836.8,327.5,836.4,327.3L836.4,327.3z M800.6,319.3c-4.1,0-4.4,3.9-5.3,4.7
	c-0.1,0.1-0.3,0.2-0.4,0.3c-0.7,0.4-1.4,0.6-2.7,1c-0.4,0.1-0.7,0.3-1.1,0.6c-1.2,0.8-1.6,2.4-2,3.5c-0.4,1.3-3.5-2.3-4.4-1.3
	s-0.2,5.9,1.3,10.1c1.5,4.1,5.5,6.7,6.6,6.7s3.3,0,4.9,0.5c1.5,0.5,6.6,1,6.4-1.3v-0.4h0.4c-0.2-1.4-0.4-3.3,0-5.1H804
	c0.2-1,0.7-2,1.4-2.8l0.6-0.6h0.2c1.7-1.7,3.3-3,3.2-5.1H809c0-0.4-0.1-0.8-0.3-1.3c-0.2-0.8-0.6-1.5-0.9-2.2h0.5
	c-1.1-2.3-2.2-3.8-1-5.1h-0.1c1.4-1.3,3-1.9,3-3.1c0-0.9-1.8,1.2-3.1-0.3h0.7c-0.7-0.5-1.2-1.9-1.4-4.8c0-0.1,0-0.2-0.1-0.3h-0.6
	c-0.2-0.1-0.5-0.1-0.8,0h-0.1c-0.1,0-0.2,0.1-0.3,0.2c-1,0.5-2.1,1.7-2.3,2.7C802.2,317.7,804.8,319.3,800.6,319.3L800.6,319.3z
	 M811.7,287.5c1.3,3.1,5.9,5.4,4.8,6.7c-1.1,1.3-4.4,3.9-4.8,6.2c-0.2,0.8,0.4,0.6,1.2,0c1.1-0.7,3.2-2.7,4.6-4.4h-0.2
	c0.5-0.6,0.9-1.1,1.1-1.5c1.4-2.1,4.1-1.2,5.1-2.1c0.3-0.1,0.5-0.2,0.7-0.5l0.6-1.3c0,0-2.4-0.5-4.4-1.3c-1.9-0.8-4.3,1.9-3.4-1.8
	h-0.3c0.5-1.9,1.5-2.7,2.3-3.4h0.1c1.1-1,2.1-1.4,1.8-3.3c-0.2-0.7-0.4-1.3-0.7-1.8h-0.6c-0.9-1.4-2.2-1.8-2.6-1.8
	c-1.6,0,0.2,2.8-2,4.6C812.8,283.6,810.3,284.4,811.7,287.5L811.7,287.5z M69.1,168.6c-0.6-0.2-0.9-0.1-1.2,0.2
	c-1,0.3-0.8,2.5-1.8,3.5c-0.1,0.1-0.2,0.2-0.4,0.2c-0.9,0.2-2,0.6-2.7,1h0.1c-1.3,0.6-2.1,1.3-0.9,1.6c1.8,0.5,5.8-0.2,6.2-1
	c0-0.1,0.1-0.3,0.2-0.6H69C69.4,172.2,69.7,168.8,69.1,168.6z M74,130.9h0.6l-0.2-0.2L74,130.9z M68,151.3c-0.2,0.1-0.6,0.3-1.3,0.5
	c-0.1,0.1-0.2,0.1-0.2,0.2c-0.1,0-0.2,0-0.2,0.1c-0.9,0.3,1.6,2.1,2.4,2.1c0.2,0,0.4-0.1,0.6-0.3c0.7-0.2,1.7-1.9,1.1-2.5H68V151.3z
	 M841.1,369.2c-0.5-0.5-0.6-0.4-0.6,0H841.1z M935.3,401.3c0.2-0.9-0.2-2.2-1.9-3.1h-0.9c-0.6-0.3-1.2-0.5-2-0.7c-4-1-1.3,0.8,0,3.1
	c1.1,1.9,3,3,3.9,2C934.9,402.4,935.2,402.1,935.3,401.3z M963.5,449.2c-0.2-0.3-0.5-0.4-0.8-0.4c-0.4,0-0.7,0.3-1.1,0.4h-1.3
	c-0.2-0.1-0.5-0.2-0.9-0.4c-1.9-1.2-1.6-0.9-2.7-3h0.5c-0.1-0.2-0.2-0.4-0.3-0.7c-0.9-1.6-1.2-3.6-2-4.5h-0.7
	c-0.4-0.2-0.8-0.3-1.4,0.1c-0.9,0.5,0,3.4,0.9,4.4s1.3,4.7,1.1,5.7s-3.9,2.3-2.2,3.6c1.8,1.3,5.1,0,4.6,1.5
	c-0.4,1.6-2.2,3.6-0.2,4.1c0.7,0.2,1.3,0,1.8-0.5c0.6-0.4,1.1-1.1,1.4-1.9h-0.3c0.2-0.4,0.4-0.8,0.5-1.2c0.4-0.8,0.7-1.5,1.1-2.2
	h0.3c0.5-1,1.1-1.8,2.1-2.4c1-0.7,0.7-1.9,0.1-2.6H963.5L963.5,449.2z M969.3,383c-0.5-0.2-1.1,0-1.7,0.5c-2,1.1-4.7,5.2-4.7,5.2
	c1.6,0.7,3.9-0.8,5.2-2.4h0.2C969.6,384.9,970.2,383.3,969.3,383L969.3,383z M778,100.2h-0.2C778,100.3,778.1,100.3,778,100.2z
	 M253.2,104.6c-0.5,0.2-0.9,0.5-1.1,1.1c-0.6,1.8,5.9,2.8,5.2,0.7c-0.2-0.4-0.4-0.7-0.7-1h0.7C256.3,104.1,254.3,103.8,253.2,104.6z
	 M248.1,110.5c-1.2-0.9-5-0.3-6,0.2c-1.1,0.5-4.1-0.9-5.8,0.3v0.1c-0.1,0.1-0.3,0.1-0.3,0.2c-1,0.8-0.5,3.3,1.2,3.4
	c1.6,0.2,4.4-1.2,4.7-0.2s1.4,5.7,4,4.1c0.2-0.1,0.3-0.2,0.4-0.2c0.7-0.4,1.2-0.8,1.6-1.2h-0.2c0.8-0.9,0.9-1.5,1.4-1.6
	c0.3-0.1,0.3-0.8,0.1-1.8h0.5C249.4,112.6,248.8,111,248.1,110.5L248.1,110.5z M952.7,457.7H952c-0.5-0.4-0.9-0.7-1-0.4
	c-0.1,0.5-0.5,0.8-0.9,1.1c-0.5,0.3-0.9,0.5-1.4,0.9c-0.4,0.2-0.8,0.5-1.2,0.9c-1.3,1.3,0,1.8-3.7,4.4s-8.4,5.4-9.3,7.7
	c-0.9,2.3,0.9,3.6,4.4,3.9c2.3,0.2,2.7,0.5,3.4-0.1c0.4-0.2,0.7-0.5,1.3-1.3h-0.2c0.2-0.2,0.3-0.4,0.5-0.7c0.8-1,1.6-1.9,2.4-2.7
	h0.1c1.7-1.8,3.4-3.2,5.4-5l0.1-0.1h-0.2c1.1-1.1,1.7-2.3,2-3.4h0.4c0.6-1.6,0.6-3,0.6-3S953.6,458.6,952.7,457.7L952.7,457.7z
	 M230.9,101.9c-0.2,0.1-0.4,0.2-0.4,0.3c-1.1,1.1,0,4.6-0.4,5c-0.4,0.3,0.1,1.9,1.3,1.5c1-0.3,1.6-2.7,2.3-3.4h0.2l0.2-0.2
	c0.9,0,5.4-1.2,6.2,0.7c0.7,1.9,0.7,1,2.8,1.2c1.2,0.1,2.3-0.8,3-1.7h0.2c0.6-0.7,1-1.5,1.1-1.9c0.2-0.9-1.1-2.6-3.8-2.2
	C240.6,101.6,232.1,100.7,230.9,101.9L230.9,101.9z M819.3,299.4c-0.1,0-0.2,0.1-0.3,0.2h-0.2c-0.7,0.3-2.6,4.9-0.2,4.9
	s6.6,0.8,5.7-0.5c-0.4-0.6-1.2-1.9-2.1-2.9h0.6C822,299.9,820.7,298.8,819.3,299.4z M826.9,330.1h-0.4c0-0.1-0.1-0.2-0.2-0.2
	c-0.2,0-0.8,0.1-1.6,0.2h-1c-2,0.4-4.4,0.9-4.8,1.1c-0.7,0.2-4.6-0.5-4.6-0.5c-0.1,0.1-0.1,0.2-0.2,0.3h-0.2c-1.5,1.8-0.4,3.6,2,3.3
	c2.5-0.2,7.5-1,8.6-1c0.2,0,0.4-0.2,0.6-0.3C825.9,332.6,826.8,330.9,826.9,330.1L826.9,330.1z M827.3,305.1
	c-0.1,0.2-0.2,0.3-0.3,0.4c-0.1-0.1-0.2-0.1-0.2-0.1c-1.1,1.7-1.8,2.6-2.3,3.1c-0.6,0.3-1.2-0.2-2.3-0.8c-1-0.4-2.1-0.1-3.2,0.6
	c-1.5,0.8-2.7,2.5-2.3,3.3c0.7,1.3,5.5-0.3,6.6,2.1c1.1,2.3,1.1,2.6,3.3,2c0.4-0.1,0.8-0.3,1.2-0.5c0.8-0.4,1.6-1.2,2.1-2.1h-0.2
	c0.7-1.2,1-2.4,0.7-3.3v-0.1h0.5v-0.2C830.1,307.7,827.3,305.1,827.3,305.1z M775.9,352.2c0.1-0.3,0.2-0.7,0.2-1.2
	c0-1.3,0.1-2.6,0.3-3.9H776c0.2-1.4,0.6-2.6,1.1-3.4h0.3c0.1-0.2,0.2-0.3,0.3-0.4c1.1-1.5,0.6-3.9-1.1-3.6c-0.7,0.1-1.3-0.3-2-1.1
	H774c-0.9-0.9-1.8-2.2-3-3.4h0.7c-0.4-0.4-0.9-0.8-1.3-1.2c-1.7-1.4-3.2-2.5-4.7-3.9H765c-0.9-0.9-1.8-1.8-2.8-3.1
	c-0.1-0.1-0.2-0.2-0.3-0.4h0.7c-1.7-2.1-3.7-3.7-5.3-5.1h-0.7c-0.7-0.6-1.4-1.2-2-1.8c-0.7-0.7-1.6-1.2-2.4-1.6h0.9
	c-1.4-0.8-2.9-1.1-3.6-0.9c-0.3,0.1-0.5,0.2-0.5,0.3c-2.4,0.8,4.1,6.2,4.8,6.9c0.6,0.8,6.6,6.7,6.6,9.6c0,2.8,1.9,11.7,3,12.7
	s8.6,2.8,9.5,4.9c0.8,1.8,2.4,2.4,2.8,0.7h0.2V352.2z M817.1,257.8c-0.3,0.1-0.6,0.2-0.9,0.5c-3,1.3-4.6,8.6-2.1,8.3
	c0.3,0,0.6-0.2,0.9-0.4c1.1-0.6,2.2-2.4,2.8-4.2h-0.3c0.4-1.4,0.5-2.7,0.2-3.4h0.5C818.1,258,817.7,257.7,817.1,257.8L817.1,257.8z
	 M763.1,309.4c-0.8-1.4-2.8-3.6-4.1-4.9h-0.7l-0.7-0.7c-1.8,0.3-1.8,4.1-0.9,5.4c0.9,1.3,2.7,0.5,3.8,5.2c1.1,4.6,3.3,9.3,4.2,11.1
	c0.9,1.8,4.7,4.4,6,5.7c0.6,0.7,1.5,0.5,2,0c0.4-0.2,0.8-0.6,0.9-1.1h-0.4c0.1-0.3,0-0.7-0.2-1c-0.4-0.7-1-1.5-1.5-2.4h0.5
	c-0.7-1.2-1.4-2.4-1.6-3.5c0-0.5-0.2-1-0.3-1.6h-0.5c-0.3-1-0.7-2.2-1.3-3.4h0.5c-0.4-0.9-0.9-1.8-1.4-2.7c-0.6-1-1.1-1.7-1.6-2.4
	h-0.6c-1-1.2-1.9-2-2.6-3.3l-0.1-0.1h0.5C763.2,309.6,763.2,309.5,763.1,309.4L763.1,309.4z M826.6,358.4c-0.3,0.1-0.5,0.3-0.8,0.6
	c-1.3,2.1-3.7,4.1-3.5,5.9c0.2,1.5,1.6,0.9,2.8,0.1c0.4-0.3,0.9-0.6,1.3-0.9h-0.1c0.5-0.4,0.8-0.7,0.8-0.7s3.5-0.5,3.5-2.3
	c0-0.1,0-0.2-0.1-0.4h0.5C830.9,359,828,357.1,826.6,358.4L826.6,358.4z M828,296h-1c-0.2-0.1-0.5-0.2-0.8-0.2
	c-0.9-0.1-3.8,5.4,0.2,5.1c0.7,0,1.2-0.3,1.6-0.6C830,299.5,829.6,297.1,828,296z M886.9,457.7c-0.6-0.1-1.7,0.6-2.8,1.3
	c0,0-0.1,0.1-0.2,0.1c-1.1,0.7-2.2,1.4-2.6,1.3c-1.1-0.3-3.5-1.3-3.5-1.3c-0.1,0.1-0.2,0.2-0.2,0.3c-0.1,0-0.2-0.1-0.2-0.1
	c-2.4,2.8,2.5,2.8,1.8,5.7c-0.7,2.8,3.3,1.8,4.4,1.3c0.5-0.3,1.4-1.8,2.1-3.5h0.3c0.9-1.8,1.5-3.9,1.2-4.8
	C887.2,457.9,887.1,457.8,886.9,457.7z M902.3,423.7c-0.3-1.1-0.7-2.2-1.1-3.4h0.5c-0.6-1.7-1.3-3.4-2.1-5.1h-0.5
	c-0.5-1.2-1.1-2.3-1.6-3.4h0.5c-0.7-1.3-1.3-2.6-1.8-3.5c-0.3-0.5-0.5-1.1-0.8-1.6h-0.5c-0.5-1.2-0.9-2.3-1.3-3.4h0.5
	c-0.6-1.9-0.9-3.7-1-5.1h-0.4v-0.8c0.2-1.5-2.8-1.9-5.5-2.6h1.6c-2-0.4-4.1-0.9-5-1.7c-0.8-0.7-1.3-1.9-1.7-3.4h-0.5
	c-0.3-1.1-0.5-2.3-0.7-3.4h0.4c-0.2-1.3-0.5-2.5-0.9-3.5c-0.2-0.6-0.5-1.1-0.7-1.6h-0.5c-0.7-1.2-1.5-2.3-2.4-3.4h0.6
	c-0.8-0.9-1.6-1.9-2.5-3c-0.4-0.6-0.8-1.3-1.2-2.1h-0.5c-0.5-1.1-0.9-2.3-1.2-3.4h0.5c-0.6-1.9-1.1-3.5-1.4-3.2
	c-0.1,0-0.2,0.2-0.2,0.3c-0.1-0.1-0.2-0.1-0.2,0c-0.7,0.5-2.6,8-1.1,10.3s-0.7,6.9-1.8,10.1c-0.8,2.2-2.3,1-4-0.4h0.7
	c-0.8-0.7-1.6-1.4-2.3-2c-1.7-1.2-3.8-2-5.4-3.1H856c-0.4-0.3-0.8-0.6-1.1-1c-0.5-0.6-0.4-1.5-0.1-2.4h0.3c0.4-1.6,1.6-3.6,1.8-5.1
	h-0.4c0-0.4,0-0.7-0.2-1c-1.1-1.8-7.1-0.2-7.7-0.2c-0.5,0-1.4-1.5-2.3-2.2h0.7c-0.4-0.4-0.9-0.7-1.3-0.7c-0.2,0-0.3,0.1-0.4,0.3
	c-1,0-1.1,2.9-1.1,4.3c-0.1-0.2-0.2-0.3-0.4-0.5h-0.6c-0.6-0.7-1.4-1.7-2.3-2.8c-2-2.3,0.2,1.6-1.8,3.9s-1.3,1.5-2.2,4.1
	c-0.8,2.3-2.4,1.8-4.1-0.1h0.7c-0.4-0.3-0.7-0.7-1.1-1.2c-1.4-1.8-2.4-1.4-3.3-0.8c-0.5,0.3-1,0.8-1.5,1.1c-1.3,0.8-2.4,4.9-3,6.1
	c-1.4,0.3-6.7-1.9-7.8-0.7v0.1c-0.2,0.1-0.3,0.1-0.4,0.2c-1.1,1.3,0.2,9.6,0.2,10.6c0,0.1-0.1,0.1-0.1,0.2c-1.2,0.4-4.4,0.3-5.6,1.4
	c-0.1,0.1-0.2,0.1-0.2,0.2c-0.1,0-0.2,0.1-0.2,0.1c-1.6,1.3-4,0.5-5.5,0.5c-1.6,0-6.8,4.9-8.6,6.2c-1.8,1.3-4.8,5.9-3.9,7.2
	c0.9,1.3,5.6,4.4,4.5,4.9s-1.8,4.1,0.9,7.2c2.6,3.1,1.8,3.9,2,5.4c0.2,1.6,1.3,2.1,3.1,4.7s-3.1,4.6-3.7,6.2
	c-0.7,1.6,1.6,3.9,2.8,5.2c1.3,1.3,4.7,0.5,6.6-0.3c2-0.8,4.2-2.8,5.5-3.1c1.3-0.3,8.8,2.2,8.8,2.2s0-0.2,0.1-0.4
	c0.2,0.1,0.3,0.1,0.3,0.1V441h-0.3c0.1-0.7,0.3-2,0.6-3.4h0.4c0.4-1.9,1-4,1.8-5l0.1-0.1h-0.1c1.8-1.4,6,0.1,6,0.1s2-1.5,7.3-2.8
	s3.1,1.3,5.1,2.1c2,0.8,4.6,1.3,6.2,2.6c1.5,1.3,0,4.4-0.2,5.7c-0.2,1.3,3.7,0.8,4-0.5c0.1-0.6,0.4-1.3,1-1.9h0.2
	c0.5-0.7,1.3-1.5,2.5-2.3c1.8-1.1,0.3,2.5,1.1,4.7c0.9,2.3,2.2-3.1,2.2-0.5c0,0.8,0.7,1.5,0.9,2.3s3.1,1,3.1,3.6s0,4.1,0.7,4.7
	c0.7,0.5,4.2,0,5.7,3.1c0.8,1.6,1.5,1.6,2.1,1c0.7-0.3,1.4-1.6,1.9-2.3c0-0.1,0.1-0.1,0.2-0.1c1.2-0.4,3.5,1,4.3,1.9
	c0.4,0.4,1.1,0.1,2-0.5c0.5-0.3,1.1-0.7,1.7-1.1c0.9-0.6,1.9-1.1,3-1.5c3.3-1,2.9-0.8,3.7-2.3c0.3-0.5,0.5-1.3,0.9-2.2h0.3
	c0.5-1.4,1-3.3,1.9-5.1h-0.3c0.2-0.5,0.5-1,0.8-1.5c0.4-0.6,1-1.2,1.6-1.9h0.2c1.5-1.5,3.4-3.3,5.1-5.1h-0.2c1-1.1,1.8-2.3,2.2-3.4
	h0.3c0.2-0.6,0.4-1.2,0.4-1.7c0-0.9-0.2-2.1-0.6-3.4h-0.9V423.7z M810.1,318.1h0.6C810.7,317.9,810.5,318,810.1,318.1z M432.3,117.2
	h-0.5c-0.4-0.8-0.7-2-1-2.8c-0.1-0.2-0.2-0.3-0.2-0.6h0.5c-0.5-1.2-1.1-3.5,0-4.6c0.2-0.1,0.4-0.2,0.7-0.2c2.5-0.3,6.9,2.8,7.8,1.5
	c0.4-0.1,0.6-0.4,0.6-0.9v-0.9h-0.4c0-1.2,0-2.4,0.2-3.4h0.4c0.1-1.1,0.3-2.2,0.7-2.9c0.5-0.9,1.3-1.7,1.7-2.2h-0.3
	c0.1-0.2,0.1-0.5-0.2-0.6c-0.9-0.5-2.1,0.7-3.1-1.9c-0.1-0.3-0.2-0.6-0.2-0.9h0.5c-0.5-2.3,1.1-3.9,2-4.9l0.2-0.2h-0.2
	c0.7-0.7,1.9-2,3.2-3.4h0.2c1.6-1.6,3.3-3.3,4.8-4.3c0.4-0.3,0.8-0.5,1.2-0.6c1.8-0.6,3.3-2.2,3.7-3.6h0.3c0.5-1.1,0.4-2.1-0.6-2.5
	c-1.9-0.8-5.6-2.1-8.4-0.3c-0.4,0.2-0.9,0.5-1.2,0.9c-2.8,2.8-4.4,5.3-7.7,4.5c-1.3-0.3-2.2-1.4-2.9-2.6h0.5c-1-1.6-1.6-3.7-2.6-5.1
	h-0.6c-0.7-0.9-1.1-2.1-1.4-3.4h0.5c-0.4-1.9-0.5-3.8-0.9-5.1H429c-0.2-0.8-0.7-1.3-1.5-1.1l-2.8,0.5c0,0-3.3-0.7-5.3-0.2
	c-0.8,0.2-1.4,0.5-2.1,0.8h-0.2c-1.3,0.7-2.3,1.4-3.4,1.1c-3-0.8-5.7,1.1-6.5,1.3c-4.9,1.3-9,0.3-11.3-0.3c1.8,0.1,4.5,0.2,6.8-0.2
	c3.2-0.6,8.6-1.8,11.2-2.4c2.6-0.5,0.5-1.7-0.4-1.9c-1.4-0.2-3.2-0.6-5.1-1h1.6c-2.9-0.6-6.1-1.4-8.8-1.6c-3.2-0.2-5.3,0.9-8.5,1
	c-2.6,0.1-5.5,0-8.1,0.5h1.2c-2.1,0.2-4.1,0.7-5.7,1.9c-0.9,0.7-2,1.2-3,1.5h-0.4c-1.5,0.4-2.7,0.6-2.9,0.8c0,0,0,0.1-0.1,0.1
	c-0.2,0.1-0.3,0.1-0.3,0.2c-1.6,2.1-3.1,7.2-4.6,5.8c-0.5-0.5-0.9-1.2-1.2-1.8h0.5c-0.7-1.4-1.2-2.8-2.6-1.9c0,0,0,0.1-0.1,0.1
	s-0.2,0.1-0.3,0.2c-1.9,1.4-0.2,4.8-1.8,7.2c-0.2,0.3-0.4,0.5-0.7,0.7c-2.1,1.3-5.3,0.9-6.4,0.2c-1.4-0.8-2.7-1.5-8.1-1.2
	c-3.5,0.2-7.1,1.2-9,2.4c-1.3,0.7-2,1.6-1.5,2.4c0.4,0.8,0.2,1.4-0.3,1.9c-0.9,0.5-2.1,0.7-2.6,0.1c-0.1-0.1-0.2-0.1-0.3-0.2h-1.1
	c-0.6,0.2-1.3,0.5-1.8,0.9c-1.2,0.7-2.3,1.8-2.1,2.8c0.3,2.1-0.7,4.5-3,4s-3.9,1.2-4,2.9c0,0.4-0.4,0.8-0.8,1.1
	c-1.6,0.9-4.2,1.5-4.4,1.5c-0.3,0-3-0.1-4.3,0.4h0.9c-1.5,0.2-2.8,0.7-1.5,1.8c1.6,1.4,2.6,0.5,4.6,1s3.6,4.3,4.7,4.8
	c0.9,0.4,2,0.2,2.7-0.5c0.4-0.2,0.7-0.5,1-0.8c0.3-0.5,0.8-1.8,1.1-2.9h-0.3c0.2-0.8,0.4-1.5,0.4-1.5s0,3.5,1.6,4.1
	c1.6,0.7,5.6-0.5,6.7-0.3s7.4,1.2,9.2,2.2c1.8,1,6,1.7,7.2,4c1.2,2.2,1.4,10,2,10.8c0.2,0.2,0.5,0.1,0.9-0.2c0.5-0.2,1.4-1.2,2-2.1
	h-0.2c0.4-0.5,0.7-1,0.9-1.3c0.5-0.9,3.4-0.3,4.3,0.9c0.9,1.2,3.1,4.1,3,5.3c-0.2,1.2-0.5,3.1-1.4,2.4c-0.8-0.7-2.1-0.5-1.6-1.9
	c0-0.1,0.1-0.2,0.1-0.3h0.3c0.5-1.4,0.8-4.3-0.3-4.3h-2c0,0-1.2-0.4-2.3,0.5c-0.5,0.3-1,0.8-1.5,1.6c-1.3,2.6-0.3,5.2,0.7,5.2
	c0.9,0,3.1,0,3.1,0.7s-2.3,2.8-2.2,4c0.2,1.2,1.9,5.3,2.5,6.2c0.5,0.8,3.4,1.7,4.1,1.9h0.1c-0.2,0.1-0.5,0.2-0.7,0.4
	c-0.5,0.2-0.9,0.6-0.6,1.1c0.7,1.2,1.8,4.1,3.2,4.8c1.5,0.7,5.6,3.8,6.2,5.1c0.5,1.4,3.8-1,4.4-1.2c0.7-0.2,0.5,3.6,2.4,3.8
	c1.3,0.1,2-0.1,2.9-0.8c0.1-0.1,0.2-0.1,0.2-0.2c0.3-0.3,0.7-0.6,1.1-0.9c0.7-0.7,1.1-1.6,1.2-2.5h0.4c0.2-1,0.1-2.1,0.2-3
	s0.1-1.7,0.4-2.1c0.2-0.1,0.5,0,0.9,0.1c1.8,0.5,2.7-0.3,2.5-2c0-0.5-0.2-1-0.3-1.5h0.5c-0.3-1-0.5-1.9,0.2-2.5
	c0.2-0.1,0.5-0.2,0.9-0.2c1.4-0.3,2.5-1,3.4-1.6c0.3-0.2,0.5-0.3,0.8-0.5c0.6-0.4,1.2-0.7,1.8-0.7c1.8,0,6.6,0.9,7.1,0
	c0.2-0.4,0.9-1.7,1.6-3h0.3c0.7-1.2,1.4-2.4,2.1-3c0.1-0.1,0.2-0.2,0.3-0.2c1.5-0.2,5.4,0.7,8.9,0s7.2-3.3,8.5-3.1
	c1.2,0.2,4.2,0.2,3.2-0.9c-0.3-0.3-0.7-0.8-1.1-1.3h0.6c-0.9-1.1-1.9-2.4-3.4-2.4c-1,0-1.6-1.4-1.9-2.7h-0.5
	c-0.2-1.2-0.2-2.3,0.1-2.3c0.5,0,5.5,2,5.3,3.8c-0.1,1.7,0.8,3.9,3.5,3.3c0.5-0.1,0.8-0.3,1.1-0.5c1.9-0.9,1.5-3.1,1-3.7
	C432.5,117.6,432.4,117.4,432.3,117.2L432.3,117.2z M319.1,273.3c-1.7-0.5-3.7,0-5.1,0.3c-0.2,0.1-0.6,0.2-0.9,0.5
	c-1.6,0.9-4.5,3.9-4.5,3.9s2.4,0.5,3.9,0.5c1.6,0,2.5,1,3.8,1.8s3.7-1,4.6-1c0.7,0,1.6,2,2,1c0.3,0.1,0.5-0.2,0.6-1.3h-0.4
	c0.1-1.5-0.4-2.6-1.2-3.4h0.7C321.6,274.3,320.2,273.6,319.1,273.3z M326.8,301.1h2.3C328.4,300.9,327.6,300.9,326.8,301.1z
	 M338.9,190.4c-0.2-0.2-0.4-0.2-0.7,0H338.9z M879.5,348.9c-0.4-0.4-0.9-1.1-1.3-1.9h-0.6c-0.9-1.4-2-2.8-3.8-3.4h1.1
	c-0.4-0.2-0.7-0.3-1.2-0.4c-3.3-0.8-4.2-2.1-7.7-4.1l-1.2-0.6h-1.2c-3.9-1.2-9.5-1-9.7,0.1v0.1c0,0-0.1-0.1-0.2-0.1H853
	c-0.4-0.3-0.9-0.6-1.8-1c-2.6-1-4.6,0-5.3-1.8l-0.3-0.6h0.5c-0.6-1.2-1.6-1.6-2.8-0.7c-0.5,0.2-1,0.7-1.6,1.3
	c-1.7,1.9-2.4,2.1,1.3,2.9s4.9,0.8,3.3,2.8c-1.6,2.1-2.6,4.6-1.3,4.9c1.3,0.2,5.3-1,5.7,0s-0.9,1.3,3.5,2.1s5.3,2.6,6.2,3.6
	c0.7,0.8,2.6,3.3,2.3,4.1h-0.1c-0.5,0-1.1,0.2-1.6,0.6c-1.3,0.7-2.3,2.3-1.2,2.5c1.3,0.3,5.3-0.8,5.5,0s2.4,5.7,4.6,5.4
	c0.4,0,0.7-0.2,1-0.5c0.1,0,0.2,0,0.2-0.1H871c0.9-0.8,1.6-2.1,2.3-3.4h0.3c0.5-1,0.9-2,1.4-2.5c0.1-0.1,0.2-0.2,0.4-0.3
	c1.7-0.9,4.8-1.1,5.2,0.8c0.4,2.3,1.8,4.7,4.4,6.2c2.5,1.4,5.3,2.9,5.8,2c0.3,0,0.5-0.2,0.5-0.4c0.1-0.4-0.1-1.3-0.4-2.4h-0.5
	c-0.4-1.2-1-2.5-1.6-3.4h0.6c-0.4-0.6-0.8-1-1.2-1.2c-1-0.5-2.6-2.2-3.6-3.9H884c-0.6-1.1-1.1-2.1-1.1-2.8c0-0.2-0.1-0.4-0.2-0.6
	h0.5C883.1,350.7,880.8,350.1,879.5,348.9L879.5,348.9z M631.4,372.6h-0.6c-0.3-0.5-0.7-0.8-1.1-1c-2.8-0.9-3.1,3.4-5.3,6.2
	c-1.5,1.9-3.1,3.6-4.2,4.4c-0.4,0.2-0.6,0.3-0.9,0.2c-0.4-0.1-1.4,0.2-2.5,0.9c-1.5,0.9-3.1,2.6-2.1,5.1c1.6,3.9,1.3,7.8-0.2,9.6
	c-1.5,1.8,1.3,7,0.9,9.8c-0.4,2.8,0.7,4.6,3.8,4.6c1.5,0,2.6-0.3,3.4-1.1c1.1-0.7,1.8-1.9,2.5-3.8c0.1-0.3,0.2-0.6,0.2-0.8H625
	c0.4-1.2,0.7-2.3,1-3.4h0.4c0.4-1.8,0.8-3.5,1.5-5.1h-0.3c0.4-0.9,0.8-2.1,1.2-3.4h0.4c0.5-1.8,1-3.6,1.3-5.1h-0.3
	c0.2-0.8,0.4-1.4,0.5-1.7c0.2-0.4,0.4-1,0.5-1.7h0.3c0.4-1.4,0.9-3.3,1.1-5.1h-0.4c0.1-0.9,0.2-1.8,0.1-2.5c0-0.3,0-0.6-0.1-0.9h0.5
	C632.6,375.9,632.1,373.9,631.4,372.6L631.4,372.6z M284.7,143.3c-0.3,0.1-0.6,0.3-0.8,0.6c-0.6,0.8,2.4,1.8,3.2,0.9
	c0.2-0.1,0.4-0.2,0.5-0.3C288,143.6,286.1,142.1,284.7,143.3L284.7,143.3z M292.8,145.3c-0.4,0.1-0.6,0.2-0.7,0.4
	c-1.7,0.8,0.3,2.5,1.6,1.9c0.2-0.1,0.3-0.2,0.4-0.3C295.6,146.6,294.9,144.6,292.8,145.3L292.8,145.3z M870.7,197
	c-0.3,0.1-0.5,0.2-0.7,0.4c-1.4,0.7-1.9,3-1.9,3.7c0,0.3-0.9,0.7-2,1.3H866c-0.3,0.2-0.6,0.4-0.9,0.5c-1.2,0.7-2.1,1.6-1.2,2.6
	c2,2.1,4,0.5,7,0.3c3.1-0.3,6-1.3,6-1.3s2.6,0.1,3.6-0.9c0.5-0.3,0.7-0.6,0.8-1.2h-0.4v-0.2c-0.7-2.6-5.5-2.9-6.4-2.6
	c-0.3,0.1-0.7-0.2-1.1-0.6h0.7C873.3,198.2,872.1,196.6,870.7,197L870.7,197z M299.9,279.5c-0.3,0.1-0.5,0.2-0.7,0.4
	c-1.6,0.8-1.1,4.8,1.2,4c0.3-0.1,0.5-0.3,0.8-0.5C303,282.4,301.8,279.1,299.9,279.5z M298.8,258.1c-0.4,0-0.7,0.2-0.9,0.4
	c-1.4,0.6-0.9,2.9,1.3,2.4c1.9-0.4,1.5-1.9,0.3-2.4h0.9C300,258.2,299.5,258,298.8,258.1L298.8,258.1z"/>
</svg>
